<svg xmlns="http://www.w3.org/2000/svg" viewBox="0 0 40.67 40.67"><defs><style>.a{fill:blue;}</style></defs><path class="a" d="M4,24.75V44.67h9.49V17.56H4Z" transform="translate(-4 -4)"/><path class="a" d="M8.75,4a4.75,4.75,0,1,0,4.74,4.74A4.75,4.75,0,0,0,8.75,4Z" transform="translate(-4 -4)"/><path class="a" d="M44.47,25.88c-.65-5.11-3-8.32-9.9-8.32-4.1,0-6.85,1.52-8,3.65h-.11V17.56H18.92V44.67h7.9V31.23c0-3.55.67-7,5.05-7s4.67,4,4.67,7.2V44.67h8.13V29.77h0A31.58,31.58,0,0,0,44.47,25.88Z" transform="translate(-4 -4)"/></svg>