<?xml version="1.0" encoding="utf-8"?>
<!-- Generator: Adobe Illustrator 25.4.1, SVG Export Plug-In . SVG Version: 6.00 Build 0)  -->
<svg version="1.1" id="Layer_1" xmlns="http://www.w3.org/2000/svg" xmlns:xlink="http://www.w3.org/1999/xlink" x="0px" y="0px"
	 viewBox="0 0 1665.4 330.7" style="enable-background:new 0 0 1665.4 330.7;" xml:space="preserve">
<style type="text/css">
	.st0{fill:#0A00FF;}
	.st1{font-family:'Poppins-Bold';}
	.st2{font-size:192.23px;}
	.st3{font-family:'Poppins-Medium';}
</style>
<text transform="matrix(1 0 0 1 437.0422 214.2)" class="st0 st1 st2">apollo</text>
<text transform="matrix(1 0 0 1 1056.3922 214.2)" class="st0 st3 st2">saúde</text>
<g>
	<path class="st0" d="M282.4,194c-26.2,30.6-58.7,58.7-99.3,86.1c-24.9-16.3-48.5-34.9-70.1-55.5c-33.6-30.9-69.8-67.4-73.9-109.8
		c-2.4-24.8,8.3-46.5,29.4-59.3c24.9-15.2,57.5-14.5,83,1.9c16.8,10.8,28.2,31.7,28.3,31.9l4,7.5l3.2-7.9
		c0.2-0.4,16.6-39.3,58.3-45.2c24.7-3.5,45.3,5.2,61.2,25.9c12.1,15.8,16.8,33,16.9,33.2l2.2,8.1l23.9-32.8l-0.9-2.1
		c-0.3-0.7-6.9-16.3-17.4-29.9C314.7,24.4,286.1,12,254.8,13c-29.5,0.9-56.1,13.9-72,34.8c-28-28.1-53.8-38.2-88.2-34.9l-0.2,0
		c-45,7-75.2,33.9-83.1,73.7c-8.3,41.8,6.7,83.5,45.6,127.5c32.7,37,76.5,68.8,111.7,94.4c4.3,3.1,8.4,6.1,12.4,9l2.3,1.7l2.3-1.6
		c40.9-27.7,79-60,113-95.9l1.8-1.9l-13.8-30.7L282.4,194z"/>
	<path class="st0" d="M375.4,181.2l-23.7-85l-35.9,52.9c-8.7-19.9-33.6-77.1-35.9-81.8l-3.7-7.7l-40.8,91.2l-23-33.6l-34.5,64.1
		h-41.1v29.7l61.3,0l17.7-30.9l25.7,34.7l35.6-77.2l35.1,77.8l26.5-42.4l12.2,38h52.6v-29.7L375.4,181.2z"/>
</g>
</svg>
