<?xml version="1.0" encoding="utf-8"?>
<!-- Generator: Adobe Illustrator 25.4.1, SVG Export Plug-In . SVG Version: 6.00 Build 0)  -->
<svg version="1.1"
	 id="Layer_1" shape-rendering="geometricPrecision" image-rendering="optimizeQuality" text-rendering="geometricPrecision"
	 xmlns="http://www.w3.org/2000/svg" xmlns:xlink="http://www.w3.org/1999/xlink" x="0px" y="0px" viewBox="0 0 432 136.8"
	 style="enable-background:new 0 0 432 136.8;" xml:space="preserve">
<style type="text/css">
	.st0{fill-rule:evenodd;clip-rule:evenodd;}
</style>
<g id="Layer_x0020_1">
	<path class="st0" d="M259.3,133.9L299.9,52h-19.2l-21.3,48.9L238.1,52h-19.3L259.3,133.9z M101.4,61C93.8,68.8,90,78.7,90,90.8
		c0,12.6,3.7,22.7,11,30.2c7.3,7.5,17.2,11.3,29.6,11.3c8.6,0,16.1-1.9,22.5-5.7c6.4-3.8,11.8-9.6,16.1-17.3l-14.8-8.3
		c-2.8,5.3-6.1,9.2-10,11.6c-3.8,2.4-8.5,3.6-14.2,3.6c-8,0-17.7-5.5-18.7-11.7l58-22.9c-4.2-19.5-20.2-32.5-38.9-32.3
		C118.7,49.5,108.9,53.2,101.4,61L101.4,61z M108.3,89.8c-3.5-12.7,6.3-24.4,19.1-26c5.6-0.7,15,1.2,21.2,9.1L108.3,89.8L108.3,89.8
		z M189.3,2.9v126.2h17.7V2.9H189.3z M311.7,52v77.2h17.7V52H311.7L311.7,52z M360.3,61c-7.6,7.8-11.4,17.7-11.4,29.9
		c0,12.6,3.7,22.7,11,30.2c7.3,7.5,17.2,11.3,29.6,11.3c8.6,0,16.1-1.9,22.5-5.7c6.4-3.8,11.8-9.6,16.1-17.3l-14.8-8.3
		c-2.8,5.3-6.1,9.2-9.9,11.6c-3.8,2.4-8.5,3.6-14.2,3.6c-8,0-17.7-5.5-18.7-11.7l58-22.9c-4.2-19.5-20.2-32.5-38.9-32.3
		C377.6,49.5,367.9,53.2,360.3,61L360.3,61z M367.2,89.8c-3.5-12.7,6.3-24.4,19.1-26c5.6-0.7,15,1.2,21.2,9.1L367.2,89.8L367.2,89.8
		z M44.1,133.9L84.6,52H65.4l-21.3,48.9L22.9,52H3.6C3.6,52,44.1,133.9,44.1,133.9z M320.8,37.9 M322,22.8
		c-6.2-5.4-13.3-12.1-15.9-15.6c-1.1,18.8,5.8,30.6,14.8,30.6c9.1,0,13.9-10.8,14.7-20.2c0.3-2.5,2.2-5.9,7.4-6.2
		c-4-6.6-17-9.2-21,11.5 M323.1,36.4"/>
</g>
</svg>
