<?xml version="1.0" encoding="utf-8"?>
<svg version="1.1" id="Layer_1" xmlns="http://www.w3.org/2000/svg" xmlns:xlink="http://www.w3.org/1999/xlink" x="0px" y="0px"
	 viewBox="0 0 1665.4 330.7" style="enable-background:new 0 0 1665.4 330.7;" xml:space="preserve">

<g>
	<path fill="#0A00FF" d="M448.7,131.3c4.2-8.3,9.8-14.7,17-19.2c7.2-4.5,15.2-6.7,24-6.7c7.6,0,14.2,1.5,19.9,4.6
		c5.7,3.1,10.1,7.1,13.2,12.1v-15.2h32.9v107.3h-32.9V199c-3.2,5-7.7,9-13.4,12.1c-5.7,3.1-12.3,4.6-19.9,4.6
		c-8.7,0-16.7-2.3-23.8-6.8c-7.2-4.5-12.8-11-17-19.4c-4.2-8.4-6.2-18.1-6.2-29.1C442.4,149.4,444.5,139.7,448.7,131.3z M516,141.2
		c-4.5-4.7-10.1-7.1-16.6-7.1c-6.5,0-12.1,2.3-16.6,7c-4.6,4.7-6.8,11.1-6.8,19.3c0,8.2,2.3,14.7,6.8,19.5
		c4.5,4.8,10.1,7.2,16.6,7.2c6.5,0,12.1-2.4,16.6-7.1c4.5-4.7,6.8-11.2,6.8-19.4C522.8,152.4,520.5,145.9,516,141.2z"/>
	<path fill="#0A00FF" d="M625.6,110c5.6-3.1,12.2-4.6,19.8-4.6c8.8,0,16.8,2.2,24,6.7c7.2,4.5,12.8,10.9,17,19.2c4.2,8.3,6.2,18,6.2,29
		c0,11-2.1,20.7-6.2,29.1c-4.2,8.4-9.8,14.9-17,19.4c-7.2,4.5-15.2,6.8-24,6.8c-7.4,0-14-1.5-19.7-4.6c-5.7-3.1-10.2-7-13.4-11.9
		v66.1h-32.9V106.9h32.9v15.2C615.6,117.1,620,113.1,625.6,110z M652.4,141.1c-4.5-4.7-10.2-7-16.8-7c-6.5,0-12.1,2.4-16.6,7.1
		c-4.6,4.7-6.8,11.2-6.8,19.4c0,8.2,2.3,14.7,6.8,19.4c4.5,4.7,10.1,7.1,16.6,7.1c6.5,0,12.1-2.4,16.7-7.2s6.9-11.3,6.9-19.5
		C659.3,152.2,657,145.7,652.4,141.1z"/>
	<path fill="#0A00FF" d="M730.5,209c-8.4-4.5-15-10.9-19.8-19.2c-4.8-8.3-7.2-18.1-7.2-29.2c0-11,2.4-20.7,7.3-29.1
		c4.9-8.4,11.5-14.8,20-19.3c8.5-4.5,17.9-6.7,28.5-6.7c10.5,0,20,2.2,28.5,6.7c8.5,4.5,15.1,10.9,20,19.3
		c4.9,8.4,7.3,18.1,7.3,29.1c0,11-2.5,20.7-7.4,29.1c-4.9,8.4-11.7,14.8-20.2,19.3c-8.5,4.5-18,6.7-28.5,6.7
		C748.3,215.7,738.9,213.5,730.5,209z M774.9,180.4c4.4-4.6,6.6-11.2,6.6-19.8c0-8.6-2.1-15.2-6.4-19.8c-4.3-4.6-9.6-6.9-15.9-6.9
		c-6.4,0-11.7,2.3-16,6.8c-4.2,4.6-6.3,11.2-6.3,19.9c0,8.6,2.1,15.2,6.2,19.8c4.2,4.6,9.4,6.9,15.7,6.9
		C765.1,187.3,770.5,185,774.9,180.4z"/>
	<path fill="#0A00FF" d="M865.3,72v142.2h-32.9V72H865.3z"/>
	<path fill="#0A00FF" d="M922,72v142.2h-32.9V72H922z"/>
	<path fill="#0A00FF" d="M966.3,209c-8.4-4.5-15-10.9-19.8-19.2c-4.8-8.3-7.2-18.1-7.2-29.2c0-11,2.4-20.7,7.3-29.1
		c4.9-8.4,11.5-14.8,20-19.3c8.5-4.5,17.9-6.7,28.5-6.7c10.5,0,20,2.2,28.5,6.7c8.5,4.5,15.1,10.9,20,19.3
		c4.9,8.4,7.3,18.1,7.3,29.1c0,11-2.5,20.7-7.4,29.1c-4.9,8.4-11.7,14.8-20.2,19.3c-8.5,4.5-18,6.7-28.5,6.7
		C984.2,215.7,974.7,213.5,966.3,209z M1010.7,180.4c4.4-4.6,6.6-11.2,6.6-19.8c0-8.6-2.1-15.2-6.4-19.8c-4.3-4.6-9.6-6.9-15.9-6.9
		c-6.4,0-11.7,2.3-16,6.8c-4.2,4.6-6.3,11.2-6.3,19.9c0,8.6,2.1,15.2,6.2,19.8c4.2,4.6,9.4,6.9,15.7,6.9
		C1001,187.3,1006.3,185,1010.7,180.4z"/>
</g>
<g>
	<path fill="#0A00FF" d="M1086.9,211.4c-6.6-3-11.8-7.1-15.7-12.3s-5.9-11-6.2-17.4h22.7c0.4,4.5,2.5,8.2,6.4,11.2
		c3.9,3,8.8,4.5,14.7,4.5c6.2,0,10.9-1.2,14.3-3.6c3.4-2.4,5.1-5.4,5.1-9.1c0-4-1.9-6.9-5.7-8.8c-3.8-1.9-9.8-4-18-6.3
		c-7.9-2.2-14.4-4.3-19.4-6.3c-5-2-9.3-5.2-13-9.4s-5.5-9.8-5.5-16.7c0-5.6,1.7-10.8,5-15.5c3.3-4.7,8.1-8.4,14.3-11.1
		c6.2-2.7,13.4-4,21.4-4c12,0,21.8,3,29.1,9.1c7.4,6.1,11.3,14.4,11.8,24.9h-21.9c-0.4-4.7-2.3-8.5-5.8-11.3
		c-3.5-2.8-8.1-4.2-14-4.2c-5.8,0-10.2,1.1-13.3,3.3c-3.1,2.2-4.6,5.1-4.6,8.7c0,2.8,1,5.2,3.1,7.1c2,1.9,4.5,3.4,7.5,4.5
		c2.9,1.1,7.3,2.5,13.1,4.1c7.7,2.1,14,4.1,18.9,6.2c4.9,2.1,9.2,5.2,12.8,9.3c3.6,4.1,5.4,9.5,5.6,16.3c0,6-1.7,11.4-5,16.1
		c-3.3,4.7-8,8.5-14.1,11.1c-6.1,2.7-13.2,4-21.4,4C1100.9,215.9,1093.5,214.4,1086.9,211.4z"/>
	<path fill="#0A00FF" d="M1172.8,132.5c4.4-8.2,10.4-14.6,18.1-19.1c7.6-4.5,16.1-6.8,25.3-6.8c8.3,0,15.6,1.6,21.8,4.9
		c6.2,3.3,11.2,7.3,14.9,12.2v-15.4h22.1v105.9h-22.1v-15.8c-3.7,5-8.8,9.2-15.2,12.5c-6.4,3.3-13.7,5-21.9,5c-9.1,0-17.4-2.3-25-7
		c-7.6-4.7-13.6-11.2-18-19.6c-4.4-8.4-6.6-17.9-6.6-28.5C1166.2,150.1,1168.4,140.7,1172.8,132.5z M1248.3,142.1
		c-3-5.4-7-9.5-11.8-12.3c-4.9-2.8-10.1-4.2-15.8-4.2c-5.6,0-10.9,1.4-15.8,4.1c-4.9,2.8-8.8,6.8-11.8,12.1
		c-3,5.3-4.5,11.6-4.5,18.9c0,7.3,1.5,13.7,4.5,19.2c3,5.5,7,9.7,11.9,12.6c4.9,2.9,10.2,4.3,15.7,4.3c5.6,0,10.9-1.4,15.8-4.2
		c4.9-2.8,8.8-7,11.8-12.4c3-5.4,4.5-11.8,4.5-19.1S1251.3,147.5,1248.3,142.1z"/>
	<path fill="#0A00FF" d="M1399.7,108.3v105.9h-21.9v-12.5c-3.5,4.4-8,7.8-13.6,10.3c-5.6,2.5-11.5,3.7-17.8,3.7
		c-8.3,0-15.8-1.7-22.4-5.2c-6.6-3.5-11.8-8.6-15.6-15.4c-3.8-6.8-5.7-15-5.7-24.6v-62.3h21.7v59c0,9.5,2.4,16.8,7.1,21.8
		c4.7,5.1,11.2,7.6,19.4,7.6c8.2,0,14.7-2.5,19.5-7.6c4.8-5.1,7.2-12.3,7.2-21.8v-59H1399.7z M1371.6,79.8l-42.5,21V84.6l42.5-23.5
		V79.8z"/>
	<path fill="#0A00FF" d="M1427.9,132.5c4.4-8.2,10.4-14.6,18.1-19.1c7.6-4.5,16.1-6.8,25.5-6.8c6.9,0,13.7,1.5,20.5,4.5
		c6.7,3,12.1,7,16.1,12V72h22.1v142.2h-22.1v-16c-3.6,5.1-8.6,9.4-14.9,12.7s-13.6,5-21.8,5c-9.2,0-17.7-2.3-25.3-7
		c-7.6-4.7-13.6-11.2-18.1-19.6c-4.4-8.4-6.6-17.9-6.6-28.5C1421.2,150.1,1423.5,140.7,1427.9,132.5z M1503.4,142.1
		c-3-5.4-7-9.5-11.8-12.3c-4.9-2.8-10.1-4.2-15.8-4.2c-5.6,0-10.9,1.4-15.8,4.1c-4.9,2.8-8.8,6.8-11.8,12.1
		c-3,5.3-4.5,11.6-4.5,18.9c0,7.3,1.5,13.7,4.5,19.2c3,5.5,7,9.7,11.9,12.6c4.9,2.9,10.2,4.3,15.7,4.3c5.6,0,10.9-1.4,15.8-4.2
		c4.9-2.8,8.8-7,11.8-12.4c3-5.4,4.5-11.8,4.5-19.1S1506.4,147.5,1503.4,142.1z"/>
	<path fill="#0A00FF" d="M1655.2,169.4h-80.9c0.6,8.5,3.8,15.3,9.4,20.4c5.6,5.1,12.6,7.7,20.8,7.7c11.8,0,20.1-4.9,25-14.8h23.6
		c-3.2,9.7-9,17.7-17.4,23.9c-8.4,6.2-18.8,9.3-31.2,9.3c-10.1,0-19.2-2.3-27.2-6.8c-8-4.5-14.3-11-18.8-19.2
		c-4.5-8.3-6.8-17.8-6.8-28.7c0-10.9,2.2-20.5,6.6-28.7c4.4-8.3,10.6-14.6,18.6-19.1c8-4.5,17.2-6.7,27.6-6.7
		c10,0,18.9,2.2,26.7,6.5c7.8,4.4,13.9,10.5,18.3,18.4c4.4,7.9,6.5,16.9,6.5,27.2C1656,162.6,1655.7,166.2,1655.2,169.4z
		 M1633.1,151.7c-0.1-8.1-3-14.5-8.7-19.4c-5.6-4.9-12.6-7.3-21-7.3c-7.6,0-14,2.4-19.4,7.2c-5.4,4.8-8.6,11.3-9.6,19.5H1633.1z"/>
</g>
<g>
	<path fill="#0A00FF" d="M282.4,194c-26.2,30.6-58.7,58.7-99.3,86.1c-24.9-16.3-48.5-34.9-70.1-55.5c-33.6-30.9-69.8-67.4-73.9-109.8
		C36.7,90,47.4,68.3,68.5,55.5c24.9-15.2,57.5-14.5,83,1.9c16.8,10.8,28.2,31.7,28.3,31.9l4,7.5l3.2-7.9
		c0.2-0.4,16.6-39.3,58.3-45.2c24.7-3.5,45.3,5.2,61.2,25.9c12.1,15.8,16.8,33,16.9,33.2l2.2,8.1l23.9-32.8l-0.9-2.1
		c-0.3-0.7-6.9-16.3-17.4-29.9C314.7,24.4,286.1,12,254.8,13c-29.5,0.9-56.1,13.9-72,34.8c-28-28.1-53.8-38.2-88.2-34.9h-0.2
		c-45,7-75.2,33.9-83.1,73.7C3,128.4,18,170.1,56.9,214.1c32.7,37,76.5,68.8,111.7,94.4c4.3,3.1,8.4,6.1,12.4,9l2.3,1.7l2.3-1.6
		c40.9-27.7,79-60,113-95.9l1.8-1.9l-13.8-30.7L282.4,194z"/>
	<path fill="#0A00FF" d="M375.4,181.2l-23.7-85l-35.9,52.9c-8.7-19.9-33.6-77.1-35.9-81.8l-3.7-7.7l-40.8,91.2l-23-33.6l-34.5,64.1
		h-41.1V211h61.3l17.7-30.9l25.7,34.7l35.6-77.2l35.1,77.8l26.5-42.4l12.2,38h52.6v-29.7L375.4,181.2z"/>
</g>
</svg>
