<?xml version="1.0" encoding="utf-8"?>
<!-- Generator: Adobe Illustrator 25.4.1, SVG Export Plug-In . SVG Version: 6.00 Build 0)  -->
<svg version="1.1" id="Layer_1" xmlns="http://www.w3.org/2000/svg" xmlns:xlink="http://www.w3.org/1999/xlink" x="0px" y="0px"
	 viewBox="0 0 384.6 298.1" style="enable-background:new 0 0 384.6 298.1;" xml:space="preserve">
<style type="text/css">
	.st0{fill:url(#SVGID_1_);}
	.st1{fill:url(#SVGID_00000117650898503298328900000011384262772533161603_);}
</style>
<g>
	<linearGradient id="SVGID_1_" gradientUnits="userSpaceOnUse" x1="166.9934" y1="5.1286" x2="166.9934" y2="293.0114">
		<stop  offset="0" style="stop-color:#0A00FF"/>
		<stop  offset="1" style="stop-color:#FF00E2"/>
	</linearGradient>
	<path class="st0" d="M263.8,175.5c-24.5,28.7-55,55.1-93.1,80.8c-23.4-15.3-45.5-32.7-65.7-52c-31.5-28.9-65.5-63.2-69.3-102.9
		c-2.2-23.3,7.8-43.6,27.6-55.6c23.4-14.3,53.9-13.6,77.8,1.7c15.8,10.1,26.4,29.8,26.5,30l3.8,7l3-7.4c0.2-0.4,15.5-36.9,54.7-42.4
		c23.2-3.3,42.5,4.9,57.4,24.3c11.4,14.8,15.8,31,15.8,31.1l2,7.6l22.4-30.7l-0.8-2c-0.3-0.6-6.5-15.3-16.3-28
		C294,16.5,267.2,4.9,237.8,5.8c-27.7,0.9-52.6,13-67.6,32.7C144,12.1,119.8,2.6,87.5,5.7l-0.2,0C45.1,12.3,16.7,37.5,9.4,74.8
		c-7.7,39.2,6.2,78.3,42.7,119.6c30.6,34.7,71.7,64.5,104.8,88.5c4,2.9,7.9,5.7,11.6,8.5l2.1,1.6l2.2-1.5c38.4-26,74-56.3,106-89.9
		l1.7-1.8l-12.9-28.7L263.8,175.5z"/>

		<linearGradient id="SVGID_00000150822789385677496110000006905455577365217957_" gradientUnits="userSpaceOnUse" x1="252.2505" y1="49.4756" x2="252.2505" y2="195.6017">
		<stop  offset="0" style="stop-color:#0A00FF"/>
		<stop  offset="1" style="stop-color:#FF00E2"/>
	</linearGradient>
	<path style="fill:url(#SVGID_00000150822789385677496110000006905455577365217957_);" d="M351,163.6l-22.2-79.7l-33.6,49.6
		c-8.1-18.7-31.5-72.3-33.7-76.7l-3.5-7.2L219.6,135l-21.5-31.5l-32.3,60.1h-38.6v27.8l57.5,0l16.6-28.9l24.1,32.5l33.3-72.4
		l32.9,73l24.9-39.8l11.4,35.6h49.4v-27.8L351,163.6z"/>
</g>
</svg>
