<svg xmlns="http://www.w3.org/2000/svg" xmlns:xlink="http://www.w3.org/1999/xlink" viewBox="0 0 384.63 298.14"><defs><linearGradient id="a" x1="96.93" x2="96.93" y2="1.55" gradientUnits="userSpaceOnUse"><stop offset="0" stop-color="#0a00ff"/><stop offset="1" stop-color="#ff00e2"/></linearGradient><linearGradient id="b" x1="243.67" x2="243.67" y2="1.55" xlink:href="#a"/><linearGradient id="c" x1="79.91" y1="1.54" x2="79.91" y2="3.1" xlink:href="#a"/><linearGradient id="d" x1="112.35" y1="1.54" x2="112.35" y2="3.1" xlink:href="#a"/><linearGradient id="e" x1="228.2" y1="1.54" x2="228.2" y2="3.1" xlink:href="#a"/><linearGradient id="f" x1="260.64" y1="1.54" x2="260.64" y2="3.1" xlink:href="#a"/><linearGradient id="g" x1="232.47" y1="59.03" x2="232.47" y2="62.12" xlink:href="#a"/><linearGradient id="h" x1="79.54" y1="60.58" x2="79.54" y2="63.67" xlink:href="#a"/><linearGradient id="i" x1="344.46" y1="62.11" x2="344.46" y2="66.76" xlink:href="#a"/><linearGradient id="j" x1="200.82" y1="63.66" x2="200.82" y2="77.56" xlink:href="#a"/><linearGradient id="k" x1="68.73" y1="65.21" x2="68.73" y2="77.57" xlink:href="#a"/><linearGradient id="l" x1="220.89" y1="65.21" x2="220.89" y2="76.03" xlink:href="#a"/><linearGradient id="m" x1="176.86" y1="76.02" x2="176.86" y2="79.11" xlink:href="#a"/><linearGradient id="n" x1="357.59" y1="76.02" x2="357.59" y2="79.11" xlink:href="#a"/><linearGradient id="o" x1="93.45" y1="79.11" x2="93.45" y2="82.23" xlink:href="#a"/><linearGradient id="p" x1="328.24" y1="79.11" x2="328.24" y2="82.23" xlink:href="#a"/><linearGradient id="q" x1="183.04" y1="80.66" x2="183.04" y2="83.75" xlink:href="#a"/><linearGradient id="r" x1="234.01" y1="80.66" x2="234.01" y2="93.05" xlink:href="#a"/><linearGradient id="s" x1="193.08" y1="89.93" x2="193.08" y2="94.56" xlink:href="#a"/><linearGradient id="t" x1="224.74" y1="96.1" x2="224.74" y2="99.19" xlink:href="#a"/><linearGradient id="u" x1="300.44" y1="99.19" x2="300.44" y2="102.25" xlink:href="#a"/><linearGradient id="v" x1="0.77" y1="86.5" x2="0.77" y2="90.32" xlink:href="#a"/><linearGradient id="w" x1="315.88" y1="86.5" x2="315.88" y2="93.46" xlink:href="#a"/><linearGradient id="x" x1="23.95" y1="88.05" x2="23.95" y2="99.63" xlink:href="#a"/><linearGradient id="y" x1="0.77" y1="97.32" x2="0.77" y2="101.13" xlink:href="#a"/><linearGradient id="z" x1="237.1" y1="154.8" x2="237.1" y2="157.9" xlink:href="#a"/><linearGradient id="aa" x1="252.55" y1="176.43" x2="252.55" y2="179.52" xlink:href="#a"/><linearGradient id="ab" x1="82.63" y1="185.7" x2="82.63" y2="188.79" xlink:href="#a"/><linearGradient id="ac" x1="261.41" y1="187.23" x2="261.41" y2="190.38" xlink:href="#a"/><linearGradient id="ad" x1="88.81" y1="194.97" x2="88.81" y2="198.05" xlink:href="#a"/><linearGradient id="ae" x1="64.09" y1="201.14" x2="64.09" y2="204.27" xlink:href="#a"/><linearGradient id="af" x1="243.28" y1="204.27" x2="243.28" y2="207.36" xlink:href="#a"/><linearGradient id="ag" x1="67.19" y1="205.78" x2="67.19" y2="208.87" xlink:href="#a"/><linearGradient id="ah" x1="98.08" y1="207.32" x2="98.08" y2="210.41" xlink:href="#a"/><linearGradient id="ai" x1="246.38" y1="208.87" x2="246.38" y2="211.96" xlink:href="#a"/><linearGradient id="aj" x1="354.49" y1="208.87" x2="354.49" y2="211.96" xlink:href="#a"/><linearGradient id="ak" x1="103.49" y1="213.5" x2="103.49" y2="218.13" xlink:href="#a"/><linearGradient id="al" x1="368.81" y1="171.46" x2="368.81" y2="174.55" xlink:href="#a"/><linearGradient id="am" x1="151.77" y1="173.01" x2="151.77" y2="197.73" xlink:href="#a"/><linearGradient id="an" x1="74.93" y1="216.59" x2="74.93" y2="219.68" xlink:href="#a"/><linearGradient id="ao" x1="80.32" y1="222.77" x2="80.32" y2="227.4" xlink:href="#a"/><linearGradient id="ap" x1="255.64" y1="222.77" x2="255.64" y2="225.86" xlink:href="#a"/><linearGradient id="aq" x1="311.25" y1="222.77" x2="311.25" y2="225.86" xlink:href="#a"/><linearGradient id="ar" x1="125.88" y1="225.86" x2="125.88" y2="253.67" xlink:href="#a"/><linearGradient id="as" x1="258.73" y1="227.4" x2="258.73" y2="230.49" xlink:href="#a"/><linearGradient id="at" x1="88.81" y1="232.03" x2="88.81" y2="238.21" xlink:href="#a"/><linearGradient id="au" x1="261.82" y1="232.03" x2="261.82" y2="235.13" xlink:href="#a"/><linearGradient id="av" x1="294.26" y1="233.58" x2="294.26" y2="252.11" xlink:href="#a"/><linearGradient id="aw" x1="264.91" y1="236.69" x2="264.91" y2="239.78" xlink:href="#a"/><linearGradient id="ax" x1="360.31" y1="196.18" x2="360.31" y2="197.73" xlink:href="#a"/><linearGradient id="ay" x1="108.89" y1="247.48" x2="108.89" y2="266.02" xlink:href="#a"/><linearGradient id="az" x1="311.29" y1="249.03" x2="311.29" y2="267.56" xlink:href="#a"/><linearGradient id="ba" x1="150.6" y1="259.84" x2="150.6" y2="266.02" xlink:href="#a"/><linearGradient id="bb" x1="271.09" y1="261.38" x2="271.09" y2="267.56" xlink:href="#a"/><linearGradient id="bc" x1="162.19" y1="270.65" x2="162.19" y2="275.29" xlink:href="#a"/><linearGradient id="bd" x1="260.28" y1="272.19" x2="260.28" y2="275.29" xlink:href="#a"/><linearGradient id="be" x1="132.07" y1="275.29" x2="132.07" y2="281.5" xlink:href="#a"/><linearGradient id="bf" x1="288.85" y1="275.29" x2="288.85" y2="283.01" xlink:href="#a"/><linearGradient id="bg" x1="171.46" y1="278.37" x2="171.46" y2="283.01" xlink:href="#a"/><linearGradient id="bh" x1="252.55" y1="278.37" x2="252.55" y2="281.5" xlink:href="#a"/><linearGradient id="bi" x1="244.82" y1="284.55" x2="244.82" y2="287.65" xlink:href="#a"/><linearGradient id="bj" x1="143.65" y1="286.09" x2="143.65" y2="290.74" xlink:href="#a"/><linearGradient id="bk" x1="179.95" y1="286.09" x2="179.95" y2="289.19" xlink:href="#a"/><linearGradient id="bl" x1="276.51" y1="287.65" x2="276.51" y2="292.28" xlink:href="#a"/><linearGradient id="bm" x1="238.64" y1="289.19" x2="238.64" y2="292.28" xlink:href="#a"/><linearGradient id="bn" x1="186.13" y1="290.74" x2="186.13" y2="293.83" xlink:href="#a"/><linearGradient id="bo" x1="153.71" y1="295.37" x2="153.71" y2="298.46" xlink:href="#a"/><linearGradient id="bp" x1="267.23" y1="295.37" x2="267.23" y2="300" xlink:href="#a"/><linearGradient id="bq" x1="193.85" y1="296.92" x2="193.85" y2="300" xlink:href="#a"/><linearGradient id="br" x1="226.29" y1="298.45" x2="226.29" y2="301.52" xlink:href="#a"/><linearGradient id="bs" x1="161.42" y1="301.52" x2="161.42" y2="304.61" xlink:href="#a"/><linearGradient id="bt" x1="200.03" y1="301.52" x2="200.03" y2="304.61" xlink:href="#a"/><linearGradient id="bu" x1="259.5" y1="301.52" x2="259.5" y2="306.15" xlink:href="#a"/><linearGradient id="bv" x1="220.11" y1="303.09" x2="220.11" y2="306.18" xlink:href="#a"/><linearGradient id="bw" x1="206.21" y1="306.18" x2="206.21" y2="309.27" xlink:href="#a"/><linearGradient id="bx" x1="169.14" y1="307.73" x2="169.14" y2="310.82" xlink:href="#a"/><linearGradient id="by" x1="251.78" y1="307.73" x2="251.78" y2="312.36" xlink:href="#a"/><linearGradient id="bz" x1="176.86" y1="313.92" x2="176.86" y2="317" xlink:href="#a"/><linearGradient id="ca" x1="244.82" y1="313.92" x2="244.82" y2="317" xlink:href="#a"/><linearGradient id="cb" x1="183.04" y1="318.54" x2="183.04" y2="321.63" xlink:href="#a"/><linearGradient id="cc" x1="238.64" y1="318.54" x2="238.64" y2="321.63" xlink:href="#a"/><linearGradient id="cd" x1="189.22" y1="323.17" x2="189.22" y2="326.26" xlink:href="#a"/><linearGradient id="ce" x1="232.47" y1="323.17" x2="232.47" y2="326.31" xlink:href="#a"/><linearGradient id="cf" x1="195.4" y1="327.81" x2="195.4" y2="330.9" xlink:href="#a"/><linearGradient id="cg" x1="220.11" y1="332.44" x2="220.11" y2="335.53" xlink:href="#a"/><linearGradient id="ch" x1="206.21" y1="335.53" x2="206.21" y2="338.62" xlink:href="#a"/><linearGradient id="ci" x1="86.88" x2="86.88" y2="1.55" xlink:href="#a"/><linearGradient id="cj" x1="106.16" x2="106.16" y2="1.55" xlink:href="#a"/><linearGradient id="ck" x1="234.38" x2="234.38" y2="1.55" xlink:href="#a"/><linearGradient id="cl" x1="253.71" x2="253.71" y2="1.55" xlink:href="#a"/><linearGradient id="cm" x1="186.13" y1="55.94" x2="186.13" y2="59.03" xlink:href="#a"/><linearGradient id="cn" x1="335.96" y1="55.94" x2="335.96" y2="59.03" xlink:href="#a"/><linearGradient id="co" x1="82.63" y1="57.44" x2="82.63" y2="60.54" xlink:href="#a"/><linearGradient id="cp" x1="340.58" y1="59.03" x2="340.58" y2="62.12" xlink:href="#a"/><linearGradient id="cq" x1="192.31" y1="60.58" x2="192.31" y2="63.67" xlink:href="#a"/><linearGradient id="cr" x1="228.62" y1="60.58" x2="228.62" y2="65.21" xlink:href="#a"/><linearGradient id="cs" x1="76.47" y1="62.11" x2="76.47" y2="65.21" xlink:href="#a"/><linearGradient id="ct" x1="351.41" y1="65.21" x2="351.41" y2="74.48" xlink:href="#a"/><linearGradient id="cu" x1="252.92" y1="24.72" x2="252.92" y2="26.27" xlink:href="#a"/><linearGradient id="cv" x1="170.33" y1="33.98" x2="170.33" y2="38.62" xlink:href="#a"/><linearGradient id="cw" x1="61.01" y1="77.57" x2="61.01" y2="80.66" xlink:href="#a"/><linearGradient id="cx" x1="96.52" y1="77.57" x2="96.52" y2="80.66" xlink:href="#a"/><linearGradient id="cy" x1="241.74" y1="79.11" x2="241.74" y2="82.23" xlink:href="#a"/><linearGradient id="cz" x1="360.68" y1="79.11" x2="360.68" y2="82.23" xlink:href="#a"/><linearGradient id="da" x1="85.72" y1="82.23" x2="85.72" y2="94.63" xlink:href="#a"/><linearGradient id="db" x1="335.96" y1="82.23" x2="335.96" y2="94.63" xlink:href="#a"/><linearGradient id="dc" x1="187.67" y1="83.75" x2="187.67" y2="89.93" xlink:href="#a"/><linearGradient id="dd" x1="195.4" y1="94.56" x2="195.4" y2="97.65" xlink:href="#a"/><linearGradient id="de" x1="198.52" y1="99.19" x2="198.52" y2="102.28" xlink:href="#a"/><linearGradient id="df" x1="0.77" y1="81.87" x2="0.77" y2="85.68" xlink:href="#a"/><linearGradient id="dg" x1="362.22" y1="127.04" x2="362.22" y2="130.14" xlink:href="#a"/><linearGradient id="dh" x1="359.14" y1="131.63" x2="359.14" y2="134.72" xlink:href="#a"/><linearGradient id="di" x1="368.4" y1="142.44" x2="368.4" y2="145.54" xlink:href="#a"/><linearGradient id="dj" x1="0.77" y1="101.95" x2="0.77" y2="105.76" xlink:href="#a"/><linearGradient id="dk" x1="357.59" y1="159.46" x2="357.59" y2="162.56" xlink:href="#a"/><linearGradient id="dl" x1="349.86" y1="171.8" x2="349.86" y2="174.89" xlink:href="#a"/><linearGradient id="dm" x1="340.59" y1="185.7" x2="340.59" y2="188.79" xlink:href="#a"/><linearGradient id="dn" x1="87.27" y1="191.88" x2="87.27" y2="194.97" xlink:href="#a"/><linearGradient id="do" x1="94.98" y1="202.69" x2="94.98" y2="205.78" xlink:href="#a"/><linearGradient id="dp" x1="68.73" y1="208.87" x2="68.73" y2="211.96" xlink:href="#a"/><linearGradient id="dq" x1="101.17" y1="210.41" x2="101.17" y2="213.5" xlink:href="#a"/><linearGradient id="dr" x1="71.82" y1="213.5" x2="71.82" y2="216.59" xlink:href="#a"/><linearGradient id="ds" x1="383.86" y1="173.01" x2="383.86" y2="196.95" xlink:href="#a"/><linearGradient id="dt" x1="108.89" y1="218.13" x2="108.89" y2="224.29" xlink:href="#a"/><linearGradient id="du" x1="76.48" y1="219.68" x2="76.48" y2="222.78" xlink:href="#a"/><linearGradient id="dv" x1="348.32" y1="219.68" x2="348.32" y2="222.78" xlink:href="#a"/><linearGradient id="dw" x1="305.84" y1="225.86" x2="305.84" y2="233.58" xlink:href="#a"/><linearGradient id="dx" x1="83.41" y1="227.4" x2="83.41" y2="232.03" xlink:href="#a"/><linearGradient id="dy" x1="94.99" y1="238.21" x2="94.99" y2="247.49" xlink:href="#a"/><linearGradient id="dz" x1="322.06" y1="245.94" x2="322.06" y2="249.08" xlink:href="#a"/><linearGradient id="ea" x1="279.6" y1="250.57" x2="279.6" y2="261.39" xlink:href="#a"/><linearGradient id="eb" x1="143.63" y1="252.11" x2="143.63" y2="259.84" xlink:href="#a"/><linearGradient id="ec" x1="123.57" y1="266.02" x2="123.57" y2="276.84" xlink:href="#a"/><linearGradient id="ed" x1="157.55" y1="266.02" x2="157.55" y2="270.65" xlink:href="#a"/><linearGradient id="ee" x1="264.13" y1="267.56" x2="264.13" y2="272.19" xlink:href="#a"/><linearGradient id="ef" x1="297.35" y1="267.56" x2="297.35" y2="276.84" xlink:href="#a"/><linearGradient id="eg" x1="167.59" y1="275.29" x2="167.59" y2="278.38" xlink:href="#a"/><linearGradient id="eh" x1="255.64" y1="275.29" x2="255.64" y2="278.38" xlink:href="#a"/><linearGradient id="ei" x1="138.25" y1="281.5" x2="138.25" y2="287.68" xlink:href="#a"/><linearGradient id="ej" x1="176.09" y1="281.5" x2="176.09" y2="286.13" xlink:href="#a"/><linearGradient id="ek" x1="247.92" y1="281.5" x2="247.92" y2="284.59" xlink:href="#a"/><linearGradient id="el" x1="282.67" y1="283.01" x2="282.67" y2="287.65" xlink:href="#a"/><linearGradient id="em" x1="241.74" y1="286.09" x2="241.74" y2="289.19" xlink:href="#a"/><linearGradient id="en" x1="183.04" y1="287.65" x2="183.04" y2="290.74" xlink:href="#a"/><linearGradient id="eo" x1="148.29" y1="290.74" x2="148.29" y2="295.37" xlink:href="#a"/><linearGradient id="ep" x1="235.56" y1="290.74" x2="235.56" y2="293.83" xlink:href="#a"/><linearGradient id="eq" x1="272.63" y1="292.27" x2="272.63" y2="295.37" xlink:href="#a"/><linearGradient id="er" x1="190.76" y1="293.83" x2="190.76" y2="296.92" xlink:href="#a"/><linearGradient id="es" x1="229.4" y1="295.37" x2="229.4" y2="298.46" xlink:href="#a"/><linearGradient id="et" x1="157.55" y1="298.45" x2="157.55" y2="303.09" xlink:href="#a"/><linearGradient id="eu" x1="196.96" y1="298.45" x2="196.96" y2="301.52" xlink:href="#a"/><linearGradient id="ev" x1="223.2" y1="300" x2="223.2" y2="303.09" xlink:href="#a"/><linearGradient id="ew" x1="263.36" y1="300" x2="263.36" y2="303.09" xlink:href="#a"/><linearGradient id="ex" x1="203.12" y1="303.09" x2="203.12" y2="306.18" xlink:href="#a"/><linearGradient id="ey" x1="165.28" y1="304.64" x2="165.28" y2="309.27" xlink:href="#a"/><linearGradient id="ez" x1="217" y1="304.64" x2="217" y2="307.73" xlink:href="#a"/><linearGradient id="fa" x1="255.64" y1="306.18" x2="255.64" y2="309.27" xlink:href="#a"/><linearGradient id="fb" x1="169.5" y1="265.69" x2="169.5" y2="268.78" xlink:href="#a"/><linearGradient id="fc" x1="172.21" y1="310.82" x2="172.21" y2="313.92" xlink:href="#a"/><linearGradient id="fd" x1="247.92" y1="312.36" x2="247.92" y2="315.45" xlink:href="#a"/><linearGradient id="fe" x1="179.95" y1="317" x2="179.95" y2="320.08" xlink:href="#a"/><linearGradient id="ff" x1="241.74" y1="317" x2="241.74" y2="320.08" xlink:href="#a"/><linearGradient id="fg" x1="186.13" y1="321.63" x2="186.13" y2="324.72" xlink:href="#a"/><linearGradient id="fh" x1="235.56" y1="321.63" x2="235.56" y2="324.72" xlink:href="#a"/><linearGradient id="fi" x1="229.4" y1="326.31" x2="229.4" y2="329.4" xlink:href="#a"/><linearGradient id="fj" x1="223.2" y1="330.9" x2="223.2" y2="333.99" xlink:href="#a"/><linearGradient id="fk" x1="203.12" y1="333.99" x2="203.12" y2="337.07" xlink:href="#a"/><linearGradient id="fl" x1="110.81" x2="110.81" y2="1.55" xlink:href="#a"/><linearGradient id="fm" x1="229.75" x2="229.75" y2="1.55" xlink:href="#a"/><linearGradient id="fn" x1="237.1" y1="54.4" x2="237.1" y2="57.49" xlink:href="#a"/><linearGradient id="fo" x1="189.22" y1="57.44" x2="189.22" y2="60.54" xlink:href="#a"/><linearGradient id="fp" x1="232.47" y1="57.44" x2="232.47" y2="60.54" xlink:href="#a"/><linearGradient id="fq" x1="79.54" y1="59.03" x2="79.54" y2="62.12" xlink:href="#a"/><linearGradient id="fr" x1="201.57" y1="62.11" x2="201.57" y2="77.57" xlink:href="#a"/><linearGradient id="fs" x1="345.24" y1="62.11" x2="345.24" y2="65.21" xlink:href="#a"/><linearGradient id="ft" x1="220.12" y1="63.66" x2="220.12" y2="76.05" xlink:href="#a"/><linearGradient id="fu" x1="67.96" y1="65.21" x2="67.96" y2="76.03" xlink:href="#a"/><linearGradient id="fv" x1="89.98" y1="24.72" x2="89.98" y2="26.27" xlink:href="#a"/><linearGradient id="fw" x1="103.88" y1="24.72" x2="103.88" y2="26.27" xlink:href="#a"/><linearGradient id="fx" x1="236.75" y1="24.72" x2="236.75" y2="26.27" xlink:href="#a"/><linearGradient id="fy" x1="248.28" y1="24.72" x2="248.28" y2="26.27" xlink:href="#a"/><linearGradient id="fz" x1="358.37" y1="74.48" x2="358.37" y2="79.11" xlink:href="#a"/><linearGradient id="ga" x1="244.82" y1="77.57" x2="244.82" y2="80.66" xlink:href="#a"/><linearGradient id="gb" x1="93.45" y1="80.66" x2="93.45" y2="83.75" xlink:href="#a"/><linearGradient id="gc" x1="182.27" y1="80.66" x2="182.27" y2="85.29" xlink:href="#a"/><linearGradient id="gd" x1="328.24" y1="80.66" x2="328.24" y2="83.75" xlink:href="#a"/><linearGradient id="ge" x1="234.01" y1="82.23" x2="234.01" y2="94.63" xlink:href="#a"/><linearGradient id="gf" x1="192.31" y1="91.47" x2="192.31" y2="94.56" xlink:href="#a"/><linearGradient id="gg" x1="79.54" y1="94.56" x2="79.54" y2="97.65" xlink:href="#a"/><linearGradient id="gh" x1="342.14" y1="94.56" x2="342.14" y2="97.65" xlink:href="#a"/><linearGradient id="gi" x1="334.43" y1="63.34" x2="334.43" y2="67.15" xlink:href="#a"/><linearGradient id="gj" x1="373.02" y1="111.55" x2="373.02" y2="114.65" xlink:href="#a"/><linearGradient id="gk" x1="369.95" y1="116.18" x2="369.95" y2="119.27" xlink:href="#a"/><linearGradient id="gl" x1="366.86" y1="120.82" x2="366.86" y2="123.92" xlink:href="#a"/><linearGradient id="gm" x1="25.49" y1="85.01" x2="25.49" y2="93.5" xlink:href="#a"/><linearGradient id="gn" x1="314.35" y1="85.01" x2="314.35" y2="88.82" xlink:href="#a"/><linearGradient id="go" x1="357.59" y1="134.72" x2="357.59" y2="137.82" xlink:href="#a"/><linearGradient id="gp" x1="25.49" y1="95.77" x2="25.49" y2="102.72" xlink:href="#a"/><linearGradient id="gq" x1="363.77" y1="148.62" x2="363.77" y2="151.72" xlink:href="#a"/><linearGradient id="gr" x1="197.3" y1="111.22" x2="197.3" y2="113.54" xlink:href="#a"/><linearGradient id="gs" x1="241.74" y1="157.9" x2="241.74" y2="160.99" xlink:href="#a"/><linearGradient id="gt" x1="300.44" y1="160.98" x2="300.44" y2="164.07" xlink:href="#a"/><linearGradient id="gu" x1="244.82" y1="162.52" x2="244.82" y2="165.62" xlink:href="#a"/><linearGradient id="gv" x1="352.96" y1="165.62" x2="352.96" y2="168.71" xlink:href="#a"/><linearGradient id="gw" x1="250.96" y1="171.8" x2="250.96" y2="174.89" xlink:href="#a"/><linearGradient id="gx" x1="254.1" y1="176.43" x2="254.1" y2="179.52" xlink:href="#a"/><linearGradient id="gy" x1="345.24" y1="177.98" x2="345.24" y2="181.06" xlink:href="#a"/><linearGradient id="gz" x1="257.18" y1="181.05" x2="257.18" y2="184.15" xlink:href="#a"/><linearGradient id="ha" x1="260.28" y1="185.7" x2="260.28" y2="188.79" xlink:href="#a"/><linearGradient id="hb" x1="363.77" y1="196.51" x2="363.77" y2="199.6" xlink:href="#a"/><linearGradient id="hc" x1="93.45" y1="199.6" x2="93.45" y2="202.69" xlink:href="#a"/><linearGradient id="hd" x1="98.08" y1="205.78" x2="98.08" y2="208.87" xlink:href="#a"/><linearGradient id="he" x1="105.04" y1="213.5" x2="105.04" y2="218.13" xlink:href="#a"/><linearGradient id="hf" x1="352.96" y1="213.5" x2="352.96" y2="216.59" xlink:href="#a"/><linearGradient id="hg" x1="73.37" y1="216.59" x2="73.37" y2="219.68" xlink:href="#a"/><linearGradient id="hh" x1="311.25" y1="219.68" x2="311.25" y2="225.86" xlink:href="#a"/><linearGradient id="hi" x1="79.54" y1="224.29" x2="79.54" y2="227.38" xlink:href="#a"/><linearGradient id="hj" x1="125.88" y1="224.29" x2="125.88" y2="252.1" xlink:href="#a"/><linearGradient id="hk" x1="87.27" y1="232.03" x2="87.27" y2="238.21" xlink:href="#a"/><linearGradient id="hl" x1="293.48" y1="233.58" x2="293.48" y2="250.57" xlink:href="#a"/><linearGradient id="hm" x1="152.53" y1="196.18" x2="152.53" y2="199.28" xlink:href="#a"/><linearGradient id="hn" x1="266.05" y1="238.21" x2="266.05" y2="241.36" xlink:href="#a"/><linearGradient id="ho" x1="360.31" y1="197.72" x2="360.31" y2="199.28" xlink:href="#a"/><linearGradient id="hp" x1="108.12" y1="247.48" x2="108.12" y2="267.56" xlink:href="#a"/><linearGradient id="hq" x1="311.25" y1="249.03" x2="311.25" y2="270.65" xlink:href="#a"/><linearGradient id="hr" x1="151.38" y1="258.29" x2="151.38" y2="266.02" xlink:href="#a"/><linearGradient id="hs" x1="270.32" y1="259.84" x2="270.32" y2="267.56" xlink:href="#a"/><linearGradient id="ht" x1="162.96" y1="269.1" x2="162.96" y2="275.28" xlink:href="#a"/><linearGradient id="hu" x1="259.5" y1="270.65" x2="259.5" y2="275.29" xlink:href="#a"/><linearGradient id="hv" x1="132.07" y1="276.84" x2="132.07" y2="283.01" xlink:href="#a"/><linearGradient id="hw" x1="251.78" y1="276.84" x2="251.78" y2="281.5" xlink:href="#a"/><linearGradient id="hx" x1="289.62" y1="276.84" x2="289.62" y2="283.01" xlink:href="#a"/><linearGradient id="hy" x1="172.21" y1="278.37" x2="172.21" y2="281.5" xlink:href="#a"/><linearGradient id="hz" x1="244.82" y1="283.01" x2="244.82" y2="286.1" xlink:href="#a"/><linearGradient id="ia" x1="179.95" y1="284.55" x2="179.95" y2="287.65" xlink:href="#a"/><linearGradient id="ib" x1="143.65" y1="287.65" x2="143.65" y2="292.28" xlink:href="#a"/><linearGradient id="ic" x1="238.64" y1="287.65" x2="238.64" y2="290.74" xlink:href="#a"/><linearGradient id="id" x1="278.04" y1="287.65" x2="278.04" y2="292.28" xlink:href="#a"/><linearGradient id="ie" x1="187.67" y1="290.74" x2="187.67" y2="293.83" xlink:href="#a"/><linearGradient id="if" x1="152.92" y1="295.37" x2="152.92" y2="300" xlink:href="#a"/><linearGradient id="ig" x1="193.85" y1="295.37" x2="193.85" y2="298.46" xlink:href="#a"/><linearGradient id="ih" x1="268.77" y1="295.37" x2="268.77" y2="300" xlink:href="#a"/><linearGradient id="ii" x1="226.29" y1="296.92" x2="226.29" y2="300" xlink:href="#a"/><linearGradient id="ij" x1="200.03" y1="300" x2="200.03" y2="303.09" xlink:href="#a"/><linearGradient id="ik" x1="220.11" y1="301.52" x2="220.11" y2="304.61" xlink:href="#a"/><linearGradient id="il" x1="161.42" y1="303.09" x2="161.42" y2="306.18" xlink:href="#a"/><linearGradient id="im" x1="259.5" y1="303.09" x2="259.5" y2="307.73" xlink:href="#a"/><linearGradient id="in" x1="206.21" y1="304.64" x2="206.21" y2="307.73" xlink:href="#a"/><linearGradient id="io" x1="213.93" y1="306.18" x2="213.93" y2="309.27" xlink:href="#a"/><linearGradient id="ip" x1="169.14" y1="309.27" x2="169.14" y2="312.36" xlink:href="#a"/><linearGradient id="iq" x1="252.55" y1="309.27" x2="252.55" y2="312.36" xlink:href="#a"/><linearGradient id="ir" x1="175.32" y1="313.92" x2="175.32" y2="317" xlink:href="#a"/><linearGradient id="is" x1="244.82" y1="315.45" x2="244.82" y2="318.54" xlink:href="#a"/><linearGradient id="it" x1="183.04" y1="320.08" x2="183.04" y2="323.17" xlink:href="#a"/><linearGradient id="iu" x1="238.64" y1="320.08" x2="238.64" y2="323.17" xlink:href="#a"/><linearGradient id="iv" x1="232.47" y1="324.72" x2="232.47" y2="327.81" xlink:href="#a"/><linearGradient id="iw" x1="193.85" y1="327.81" x2="193.85" y2="330.9" xlink:href="#a"/><linearGradient id="ix" x1="226.29" y1="329.35" x2="226.29" y2="332.44" xlink:href="#a"/><linearGradient id="iy" x1="200.03" y1="332.44" x2="200.03" y2="335.53" xlink:href="#a"/><linearGradient id="iz" x1="220.11" y1="333.99" x2="220.11" y2="337.07" xlink:href="#a"/><linearGradient id="ja" x1="215.48" y1="337.07" x2="215.48" y2="340.17" xlink:href="#a"/><linearGradient id="jb" x1="207.74" y1="43.58" x2="207.74" y2="340.16" xlink:href="#a"/><linearGradient id="jc" x1="294.99" y1="100.74" x2="294.99" y2="238.72" xlink:href="#a"/></defs><polygon points="90.36 0 103.5 0.78 90.36 1.55 90.36 0" fill="url(#a)"/><polygon points="237.11 0 250.24 0.78 237.11 1.55 237.11 0" fill="url(#b)"/><polygon points="78 1.54 81.81 2.33 78 3.1 78 1.54" fill="url(#c)"/><polygon points="110.44 1.54 114.26 2.33 110.44 3.1 110.44 1.54" fill="url(#d)"/><polygon points="226.3 1.54 230.11 2.33 226.3 3.1 226.3 1.54" fill="url(#e)"/><polygon points="258.73 1.54 262.55 2.33 258.73 3.1 258.73 1.54" fill="url(#f)"/><path d="M233.24,59l-1.55,3.09Z" transform="translate(-40.93 -42.04)" fill="url(#g)"/><path d="M80.32,60.58l-1.55,3.09Z" transform="translate(-40.93 -42.04)" fill="url(#h)"/><path d="M342.91,62.11l3.1,4.65Z" transform="translate(-40.93 -42.04)" fill="url(#i)"/><path d="M194.62,63.66,207,77.56Z" transform="translate(-40.93 -42.04)" fill="url(#j)"/><path d="M74.14,65.21,63.32,77.57Z" transform="translate(-40.93 -42.04)" fill="url(#k)"/><path d="M225.52,65.21,216.25,76Z" transform="translate(-40.93 -42.04)" fill="url(#l)"/><path d="M176.09,76l1.54,3.09Z" transform="translate(-40.93 -42.04)" fill="url(#m)"/><path d="M356.82,76l1.55,3.09Z" transform="translate(-40.93 -42.04)" fill="url(#n)"/><path d="M94.22,79.11l-1.55,3.12Z" transform="translate(-40.93 -42.04)" fill="url(#o)"/><path d="M327.47,79.11,329,82.23Z" transform="translate(-40.93 -42.04)" fill="url(#p)"/><path d="M182.27,80.66l1.54,3.09Z" transform="translate(-40.93 -42.04)" fill="url(#q)"/><path d="M239.43,80.66,228.6,93.05Z" transform="translate(-40.93 -42.04)" fill="url(#r)"/><path d="M191.53,89.93l3.09,4.63Z" transform="translate(-40.93 -42.04)" fill="url(#s)"/><path d="M225.51,96.1,224,99.19Z" transform="translate(-40.93 -42.04)" fill="url(#t)"/><path d="M301.21,99.19l-1.55,3.06Z" transform="translate(-40.93 -42.04)" fill="url(#u)"/><polygon points="0.77 86.5 1.54 90.32 0 90.32 0.77 86.5" fill="url(#v)"/><polygon points="315.89 86.5 316.66 93.45 315.09 93.45 315.89 86.5" fill="url(#w)"/><polygon points="23.94 88.05 24.72 99.63 23.17 99.63 23.94 88.05" fill="url(#x)"/><polygon points="0.77 97.32 1.54 101.13 0 101.13 0.77 97.32" fill="url(#y)"/><path d="M237.87,154.8l-1.54,3.1Z" transform="translate(-40.93 -42.04)" fill="url(#z)"/><path d="M251.78,176.43l1.55,3.09Z" transform="translate(-40.93 -42.04)" fill="url(#aa)"/><path d="M81.86,185.7l1.55,3.09Z" transform="translate(-40.93 -42.04)" fill="url(#ab)"/><path d="M259.5,187.23l3.82.79Q260.11,193.11,259.5,187.23Z" transform="translate(-40.93 -42.04)" fill="url(#ac)"/><path d="M88,195l1.54,3.08Z" transform="translate(-40.93 -42.04)" fill="url(#ad)"/><path d="M63.32,201.14l1.55,3.13Z" transform="translate(-40.93 -42.04)" fill="url(#ae)"/><path d="M242.5,204.27l1.55,3.09Z" transform="translate(-40.93 -42.04)" fill="url(#af)"/><path d="M66.42,205.78,68,208.87Z" transform="translate(-40.93 -42.04)" fill="url(#ag)"/><path d="M97.31,207.32l1.54,3.09Z" transform="translate(-40.93 -42.04)" fill="url(#ah)"/><path d="M245.6,208.87l1.55,3.09Z" transform="translate(-40.93 -42.04)" fill="url(#ai)"/><path d="M355.27,208.87,353.72,212Z" transform="translate(-40.93 -42.04)" fill="url(#aj)"/><path d="M101.94,213.5l3.09,4.63Z" transform="translate(-40.93 -42.04)" fill="url(#ak)"/><polygon points="354.5 171.47 356.09 173.01 383.12 173.78 356.09 174.55 354.5 171.47" fill="url(#al)"/><polygon points="125.89 173.01 165.28 173.78 125.12 174.55 125.12 196.19 179.96 196.19 179.96 197.73 123.57 197.73 123.57 175.34 125.89 173.01" fill="url(#am)"/><path d="M74.14,216.59l1.57,3.09Z" transform="translate(-40.93 -42.04)" fill="url(#an)"/><path d="M78.77,222.77l3.1,4.63Z" transform="translate(-40.93 -42.04)" fill="url(#ao)"/><path d="M254.87,222.77l1.54,3.09Z" transform="translate(-40.93 -42.04)" fill="url(#ap)"/><path d="M312,222.77l-1.55,3.09Z" transform="translate(-40.93 -42.04)" fill="url(#aq)"/><path d="M112.75,225.86,139,253.67Z" transform="translate(-40.93 -42.04)" fill="url(#ar)"/><path d="M258,227.4l1.54,3.09Z" transform="translate(-40.93 -42.04)" fill="url(#as)"/><path d="M86.5,232l4.63,6.18Z" transform="translate(-40.93 -42.04)" fill="url(#at)"/><path d="M261.05,232l1.54,3.1Z" transform="translate(-40.93 -42.04)" fill="url(#au)"/><path d="M302.75,233.58l-17,18.53Z" transform="translate(-40.93 -42.04)" fill="url(#av)"/><path d="M264.14,236.69l1.54,3.09Z" transform="translate(-40.93 -42.04)" fill="url(#aw)"/><polygon points="337.51 196.18 383.1 196.96 337.51 197.73 337.51 196.18" fill="url(#ax)"/><path d="M100.4,247.48l17,18.54Z" transform="translate(-40.93 -42.04)" fill="url(#ay)"/><path d="M319.79,249l-17,18.53Z" transform="translate(-40.93 -42.04)" fill="url(#az)"/><path d="M148.29,259.84l4.63,6.18Z" transform="translate(-40.93 -42.04)" fill="url(#ba)"/><path d="M273.41,261.38l-4.64,6.18Z" transform="translate(-40.93 -42.04)" fill="url(#bb)"/><path d="M160.64,270.65l3.09,4.64Z" transform="translate(-40.93 -42.04)" fill="url(#bc)"/><path d="M261.05,272.19l-1.55,3.1Z" transform="translate(-40.93 -42.04)" fill="url(#bd)"/><path d="M129.75,275.29l4.64,6.21Z" transform="translate(-40.93 -42.04)" fill="url(#be)"/><path d="M291.94,275.29,285.76,283Z" transform="translate(-40.93 -42.04)" fill="url(#bf)"/><path d="M169.91,278.37,173,283Z" transform="translate(-40.93 -42.04)" fill="url(#bg)"/><path d="M253.33,278.37l-1.55,3.13Z" transform="translate(-40.93 -42.04)" fill="url(#bh)"/><path d="M245.59,284.55l-1.54,3.1Z" transform="translate(-40.93 -42.04)" fill="url(#bi)"/><path d="M142.11,286.09l3.09,4.65Z" transform="translate(-40.93 -42.04)" fill="url(#bj)"/><path d="M179.18,286.09l1.54,3.1Z" transform="translate(-40.93 -42.04)" fill="url(#bk)"/><path d="M278,287.65,275,292.28Z" transform="translate(-40.93 -42.04)" fill="url(#bl)"/><path d="M239.42,289.19l-1.55,3.09Z" transform="translate(-40.93 -42.04)" fill="url(#bm)"/><path d="M185.36,290.74l1.54,3.09Z" transform="translate(-40.93 -42.04)" fill="url(#bn)"/><path d="M152.94,295.37l1.54,3.09Z" transform="translate(-40.93 -42.04)" fill="url(#bo)"/><path d="M268.77,295.37,265.68,300Z" transform="translate(-40.93 -42.04)" fill="url(#bp)"/><path d="M193.08,296.92l1.54,3.08Z" transform="translate(-40.93 -42.04)" fill="url(#bq)"/><path d="M227.06,298.45l-1.55,3.07Z" transform="translate(-40.93 -42.04)" fill="url(#br)"/><path d="M160.64,301.52l1.55,3.09Z" transform="translate(-40.93 -42.04)" fill="url(#bs)"/><path d="M199.26,301.52l1.54,3.09Z" transform="translate(-40.93 -42.04)" fill="url(#bt)"/><path d="M261.05,301.52,258,306.15Z" transform="translate(-40.93 -42.04)" fill="url(#bu)"/><path d="M220.88,303.09l-1.54,3.09Z" transform="translate(-40.93 -42.04)" fill="url(#bv)"/><path d="M205.44,306.18l1.54,3.09Z" transform="translate(-40.93 -42.04)" fill="url(#bw)"/><path d="M168.37,307.73l1.54,3.09Z" transform="translate(-40.93 -42.04)" fill="url(#bx)"/><path d="M253.33,307.73l-3.09,4.63Z" transform="translate(-40.93 -42.04)" fill="url(#by)"/><path d="M176.09,313.92l1.54,3.08Z" transform="translate(-40.93 -42.04)" fill="url(#bz)"/><path d="M245.59,313.92,244.05,317Z" transform="translate(-40.93 -42.04)" fill="url(#ca)"/><path d="M182.27,318.54l1.54,3.09Z" transform="translate(-40.93 -42.04)" fill="url(#cb)"/><path d="M239.42,318.54l-1.55,3.09Z" transform="translate(-40.93 -42.04)" fill="url(#cc)"/><path d="M188.45,323.17l1.54,3.09Z" transform="translate(-40.93 -42.04)" fill="url(#cd)"/><path d="M233.24,323.17l-1.55,3.14Z" transform="translate(-40.93 -42.04)" fill="url(#ce)"/><path d="M194.62,327.81l1.55,3.09Z" transform="translate(-40.93 -42.04)" fill="url(#cf)"/><path d="M220.88,332.44l-1.54,3.09Z" transform="translate(-40.93 -42.04)" fill="url(#cg)"/><path d="M205.44,335.53l1.54,3.09Z" transform="translate(-40.93 -42.04)" fill="url(#ch)"/><polygon points="84.18 0 89.58 0.78 84.18 1.55 84.18 0" fill="url(#ci)"/><polygon points="104.26 0 108.07 0.78 104.26 1.55 104.26 0" fill="url(#cj)"/><polygon points="232.47 0 236.29 0.78 232.47 1.55 232.47 0" fill="url(#ck)"/><polygon points="251.01 0 256.42 0.78 251.01 1.55 251.01 0" fill="url(#cl)"/><path d="M185.36,55.94,186.9,59Z" transform="translate(-40.93 -42.04)" fill="url(#cm)"/><path d="M335.19,55.94,336.73,59Z" transform="translate(-40.93 -42.04)" fill="url(#cn)"/><path d="M83.41,57.44l-1.55,3.1Z" transform="translate(-40.93 -42.04)" fill="url(#co)"/><path d="M339.81,59l1.55,3.09Z" transform="translate(-40.93 -42.04)" fill="url(#cp)"/><path d="M191.53,60.58l1.55,3.09Z" transform="translate(-40.93 -42.04)" fill="url(#cq)"/><path d="M230.17,60.58l-3.09,4.63Z" transform="translate(-40.93 -42.04)" fill="url(#cr)"/><path d="M77.23,62.11l-1.52,3.1Z" transform="translate(-40.93 -42.04)" fill="url(#cs)"/><path d="M347.54,65.21l7.73,9.27Z" transform="translate(-40.93 -42.04)" fill="url(#ct)"/><polygon points="251.01 24.72 254.82 25.5 251.01 26.27 251.01 24.72" fill="url(#cu)"/><polygon points="173.78 33.98 170.69 38.62 166.88 36.31 169.2 37.08 173.78 33.98" fill="url(#cv)"/><path d="M61.78,77.57l-1.54,3.09Z" transform="translate(-40.93 -42.04)" fill="url(#cw)"/><path d="M97.31,77.57l-1.58,3.09Z" transform="translate(-40.93 -42.04)" fill="url(#cx)"/><path d="M242.5,79.11,241,82.23Z" transform="translate(-40.93 -42.04)" fill="url(#cy)"/><path d="M359.91,79.11l1.54,3.12Z" transform="translate(-40.93 -42.04)" fill="url(#cz)"/><path d="M91.13,82.23,80.32,94.63Z" transform="translate(-40.93 -42.04)" fill="url(#da)"/><path d="M330.55,82.23l10.82,12.4Z" transform="translate(-40.93 -42.04)" fill="url(#db)"/><path d="M185.36,83.75,190,89.93Z" transform="translate(-40.93 -42.04)" fill="url(#dc)"/><path d="M194.62,94.56l1.55,3.09Z" transform="translate(-40.93 -42.04)" fill="url(#dd)"/><path d="M197.75,99.19l1.55,3.09Z" transform="translate(-40.93 -42.04)" fill="url(#de)"/><polygon points="0.77 81.87 1.54 85.69 0 85.69 0.77 81.87" fill="url(#df)"/><path d="M363,127l-1.54,3.1Z" transform="translate(-40.93 -42.04)" fill="url(#dg)"/><path d="M359.91,131.63l-1.54,3.09Z" transform="translate(-40.93 -42.04)" fill="url(#dh)"/><path d="M369.17,142.44l-1.55,3.1Z" transform="translate(-40.93 -42.04)" fill="url(#di)"/><polygon points="0.77 101.95 1.54 105.76 0 105.76 0.77 101.95" fill="url(#dj)"/><path d="M358.37,159.46l-1.55,3.1Z" transform="translate(-40.93 -42.04)" fill="url(#dk)"/><path d="M350.63,171.8l-1.54,3.09Z" transform="translate(-40.93 -42.04)" fill="url(#dl)"/><path d="M341.37,185.7l-1.56,3.09Z" transform="translate(-40.93 -42.04)" fill="url(#dm)"/><path d="M86.5,191.88,88,195Z" transform="translate(-40.93 -42.04)" fill="url(#dn)"/><path d="M94.22,202.69l1.51,3.09Z" transform="translate(-40.93 -42.04)" fill="url(#do)"/><path d="M68,208.87,69.51,212Z" transform="translate(-40.93 -42.04)" fill="url(#dp)"/><path d="M100.4,210.41l1.54,3.09Z" transform="translate(-40.93 -42.04)" fill="url(#dq)"/><path d="M71.05,213.5l1.54,3.09Z" transform="translate(-40.93 -42.04)" fill="url(#dr)"/><polygon points="383.85 173.01 384.63 196.95 383.08 196.95 383.85 173.01" fill="url(#ds)"/><path d="M106.57,218.13l4.64,6.16Z" transform="translate(-40.93 -42.04)" fill="url(#dt)"/><path d="M75.71,219.68l1.55,3.1Z" transform="translate(-40.93 -42.04)" fill="url(#du)"/><path d="M349.09,219.68l-1.55,3.1Z" transform="translate(-40.93 -42.04)" fill="url(#dv)"/><path d="M308.93,225.86l-6.18,7.72Z" transform="translate(-40.93 -42.04)" fill="url(#dw)"/><path d="M81.86,227.4,85,232Z" transform="translate(-40.93 -42.04)" fill="url(#dx)"/><path d="M91.13,238.21l7.72,9.28Z" transform="translate(-40.93 -42.04)" fill="url(#dy)"/><path d="M322.83,245.94l-1.54,3.14Z" transform="translate(-40.93 -42.04)" fill="url(#dz)"/><path d="M284.22,250.57,275,261.39Z" transform="translate(-40.93 -42.04)" fill="url(#ea)"/><path d="M140.55,252.11l6.17,7.73Z" transform="translate(-40.93 -42.04)" fill="url(#eb)"/><path d="M118.93,266l9.28,10.82Z" transform="translate(-40.93 -42.04)" fill="url(#ec)"/><path d="M156,266l3.09,4.63Z" transform="translate(-40.93 -42.04)" fill="url(#ed)"/><path d="M265.68,267.56l-3.1,4.63Z" transform="translate(-40.93 -42.04)" fill="url(#ee)"/><path d="M301.21,267.56l-7.73,9.28Z" transform="translate(-40.93 -42.04)" fill="url(#ef)"/><path d="M166.82,275.29l1.55,3.09Z" transform="translate(-40.93 -42.04)" fill="url(#eg)"/><path d="M256.41,275.29l-1.54,3.09Z" transform="translate(-40.93 -42.04)" fill="url(#eh)"/><path d="M135.93,281.5l4.63,6.18Z" transform="translate(-40.93 -42.04)" fill="url(#ei)"/><path d="M174.54,281.5l3.09,4.63Z" transform="translate(-40.93 -42.04)" fill="url(#ej)"/><path d="M248.69,281.5l-1.54,3.09Z" transform="translate(-40.93 -42.04)" fill="url(#ek)"/><path d="M284.22,283l-3.09,4.64Z" transform="translate(-40.93 -42.04)" fill="url(#el)"/><path d="M242.5,286.09l-1.53,3.1Z" transform="translate(-40.93 -42.04)" fill="url(#em)"/><path d="M182.27,287.65l1.54,3.09Z" transform="translate(-40.93 -42.04)" fill="url(#en)"/><path d="M146.74,290.74l3.09,4.63Z" transform="translate(-40.93 -42.04)" fill="url(#eo)"/><path d="M236.33,290.74l-1.54,3.09Z" transform="translate(-40.93 -42.04)" fill="url(#ep)"/><path d="M273.41,292.27l-1.55,3.1Z" transform="translate(-40.93 -42.04)" fill="url(#eq)"/><path d="M190,293.83l1.54,3.09Z" transform="translate(-40.93 -42.04)" fill="url(#er)"/><path d="M230.17,295.37l-1.55,3.09Z" transform="translate(-40.93 -42.04)" fill="url(#es)"/><path d="M156,298.45l3.09,4.64Z" transform="translate(-40.93 -42.04)" fill="url(#et)"/><path d="M196.17,298.45l1.58,3.07Z" transform="translate(-40.93 -42.04)" fill="url(#eu)"/><path d="M224,300l-1.54,3.09Z" transform="translate(-40.93 -42.04)" fill="url(#ev)"/><path d="M264.13,300l-1.55,3.09Z" transform="translate(-40.93 -42.04)" fill="url(#ew)"/><path d="M202.35,303.09l1.54,3.09Z" transform="translate(-40.93 -42.04)" fill="url(#ex)"/><path d="M163.73,304.64l3.09,4.63Z" transform="translate(-40.93 -42.04)" fill="url(#ey)"/><path d="M217.77,304.64l-1.54,3.09Z" transform="translate(-40.93 -42.04)" fill="url(#ez)"/><path d="M256.41,306.18l-1.54,3.09Z" transform="translate(-40.93 -42.04)" fill="url(#fa)"/><polygon points="167.59 265.69 171.41 268.01 169.09 268.78 167.59 265.69" fill="url(#fb)"/><path d="M171.46,310.82l1.5,3.1Z" transform="translate(-40.93 -42.04)" fill="url(#fc)"/><path d="M248.69,312.36l-1.54,3.09Z" transform="translate(-40.93 -42.04)" fill="url(#fd)"/><path d="M179.18,317l1.54,3.08Z" transform="translate(-40.93 -42.04)" fill="url(#fe)"/><path d="M242.5,317,241,320.08Z" transform="translate(-40.93 -42.04)" fill="url(#ff)"/><path d="M185.36,321.63l1.54,3.09Z" transform="translate(-40.93 -42.04)" fill="url(#fg)"/><path d="M236.33,321.63l-1.54,3.09Z" transform="translate(-40.93 -42.04)" fill="url(#fh)"/><path d="M230.17,326.31l-1.55,3.09Z" transform="translate(-40.93 -42.04)" fill="url(#fi)"/><path d="M224,330.9,222.43,334Z" transform="translate(-40.93 -42.04)" fill="url(#fj)"/><path d="M202.35,334l1.54,3.08Z" transform="translate(-40.93 -42.04)" fill="url(#fk)"/><polygon points="108.9 0 112.72 0.78 108.9 1.55 108.9 0" fill="url(#fl)"/><polygon points="227.84 0 231.66 0.78 227.84 1.55 227.84 0" fill="url(#fm)"/><path d="M237.87,54.4l-1.54,3.09Z" transform="translate(-40.93 -42.04)" fill="url(#fn)"/><path d="M188.45,57.44l1.54,3.1Z" transform="translate(-40.93 -42.04)" fill="url(#fo)"/><path d="M233.24,57.44l-1.55,3.1Z" transform="translate(-40.93 -42.04)" fill="url(#fp)"/><path d="M80.32,59l-1.55,3.09Z" transform="translate(-40.93 -42.04)" fill="url(#fq)"/><path d="M194.62,62.11l13.9,15.46Z" transform="translate(-40.93 -42.04)" fill="url(#fr)"/><path d="M344.46,62.11l1.55,3.1Z" transform="translate(-40.93 -42.04)" fill="url(#fs)"/><path d="M225.52,63.66,214.71,76.05Z" transform="translate(-40.93 -42.04)" fill="url(#ft)"/><path d="M72.59,65.21,63.32,76Z" transform="translate(-40.93 -42.04)" fill="url(#fu)"/><polygon points="87.28 24.72 92.68 25.5 87.28 26.27 87.28 24.72" fill="url(#fv)"/><polygon points="101.18 24.72 106.58 25.5 101.18 26.27 101.18 24.72" fill="url(#fw)"/><polygon points="234.05 24.72 239.44 25.5 234.05 26.27 234.05 24.72" fill="url(#fx)"/><polygon points="246.38 24.72 250.19 25.5 246.38 26.27 246.38 24.72" fill="url(#fy)"/><path d="M356.82,74.48l3.09,4.63Z" transform="translate(-40.93 -42.04)" fill="url(#fz)"/><path d="M245.59,77.57l-1.54,3.09Z" transform="translate(-40.93 -42.04)" fill="url(#ga)"/><path d="M94.22,80.66l-1.55,3.09Z" transform="translate(-40.93 -42.04)" fill="url(#gb)"/><path d="M180.72,80.66l3.09,4.63Z" transform="translate(-40.93 -42.04)" fill="url(#gc)"/><path d="M327.47,80.66,329,83.75Z" transform="translate(-40.93 -42.04)" fill="url(#gd)"/><path d="M239.43,82.23,228.6,94.63Z" transform="translate(-40.93 -42.04)" fill="url(#ge)"/><path d="M191.53,91.47l1.55,3.09Z" transform="translate(-40.93 -42.04)" fill="url(#gf)"/><path d="M80.32,94.56l-1.55,3.09Z" transform="translate(-40.93 -42.04)" fill="url(#gg)"/><path d="M341.37,94.56l1.54,3.09Z" transform="translate(-40.93 -42.04)" fill="url(#gh)"/><polygon points="334.43 63.34 335.2 67.15 333.65 67.15 334.43 63.34" fill="url(#gi)"/><path d="M373.81,111.55l-1.58,3.1Z" transform="translate(-40.93 -42.04)" fill="url(#gj)"/><path d="M370.72,116.18l-1.54,3.09Z" transform="translate(-40.93 -42.04)" fill="url(#gk)"/><path d="M367.62,120.82l-1.53,3.1Z" transform="translate(-40.93 -42.04)" fill="url(#gl)"/><polygon points="25.48 85.01 26.26 93.5 24.71 93.5 25.48 85.01" fill="url(#gm)"/><polygon points="314.35 85.01 315.12 88.82 313.57 88.82 314.35 85.01" fill="url(#gn)"/><path d="M358.37,134.72l-1.55,3.1Z" transform="translate(-40.93 -42.04)" fill="url(#go)"/><polygon points="25.48 95.77 26.26 102.72 24.71 102.72 25.48 95.77" fill="url(#gp)"/><path d="M364.54,148.62l-1.54,3.1Z" transform="translate(-40.93 -42.04)" fill="url(#gq)"/><polygon points="195.4 111.22 199.21 113.54 196.89 112.76 195.4 111.22" fill="url(#gr)"/><path d="M241,157.9,242.5,161Z" transform="translate(-40.93 -42.04)" fill="url(#gs)"/><path d="M301.21,161l-1.55,3.09Z" transform="translate(-40.93 -42.04)" fill="url(#gt)"/><path d="M244.05,162.52l1.54,3.1Z" transform="translate(-40.93 -42.04)" fill="url(#gu)"/><path d="M353.72,165.62l-1.51,3.09Z" transform="translate(-40.93 -42.04)" fill="url(#gv)"/><path d="M250.19,171.8l1.54,3.09Z" transform="translate(-40.93 -42.04)" fill="url(#gw)"/><path d="M253.33,176.43l1.54,3.09Z" transform="translate(-40.93 -42.04)" fill="url(#gx)"/><path d="M346,178l-1.55,3.08Z" transform="translate(-40.93 -42.04)" fill="url(#gy)"/><path d="M256.41,181.05l1.54,3.1Z" transform="translate(-40.93 -42.04)" fill="url(#gz)"/><path d="M259.5,185.7l1.55,3.09Z" transform="translate(-40.93 -42.04)" fill="url(#ha)"/><path d="M364.54,196.51,363,199.6Z" transform="translate(-40.93 -42.04)" fill="url(#hb)"/><path d="M92.67,199.6l1.55,3.09Z" transform="translate(-40.93 -42.04)" fill="url(#hc)"/><path d="M97.31,205.78l1.54,3.09Z" transform="translate(-40.93 -42.04)" fill="url(#hd)"/><path d="M103.49,213.5l3.09,4.63Z" transform="translate(-40.93 -42.04)" fill="url(#he)"/><path d="M353.72,213.5l-1.51,3.09Z" transform="translate(-40.93 -42.04)" fill="url(#hf)"/><path d="M72.59,216.59l1.55,3.09Z" transform="translate(-40.93 -42.04)" fill="url(#hg)"/><path d="M313.56,219.68l-4.63,6.18Z" transform="translate(-40.93 -42.04)" fill="url(#hh)"/><path d="M78.77,224.29l1.55,3.09Z" transform="translate(-40.93 -42.04)" fill="url(#hi)"/><path d="M112.75,224.29,139,252.1Z" transform="translate(-40.93 -42.04)" fill="url(#hj)"/><path d="M85,232l4.64,6.18Z" transform="translate(-40.93 -42.04)" fill="url(#hk)"/><path d="M301.21,233.58l-15.45,17Z" transform="translate(-40.93 -42.04)" fill="url(#hl)"/><polygon points="181.5 196.18 179.96 199.28 123.57 198.47 179.96 197.69 181.5 196.18" fill="url(#hm)"/><path d="M264.14,238.21,268,239Q264.76,244.09,264.14,238.21Z" transform="translate(-40.93 -42.04)" fill="url(#hn)"/><polygon points="337.51 197.72 383.1 198.5 337.51 199.28 337.51 197.72" fill="url(#ho)"/><path d="M98.85,247.48l18.54,20.08Z" transform="translate(-40.93 -42.04)" fill="url(#hp)"/><path d="M321.29,249l-20.08,21.62Z" transform="translate(-40.93 -42.04)" fill="url(#hq)"/><path d="M148.29,258.29l6.18,7.73Z" transform="translate(-40.93 -42.04)" fill="url(#hr)"/><path d="M273.41,259.84l-6.18,7.72Z" transform="translate(-40.93 -42.04)" fill="url(#hs)"/><path d="M160.64,269.1l4.64,6.18Z" transform="translate(-40.93 -42.04)" fill="url(#ht)"/><path d="M261.05,270.65,258,275.29Z" transform="translate(-40.93 -42.04)" fill="url(#hu)"/><path d="M129.75,276.84l4.64,6.17Z" transform="translate(-40.93 -42.04)" fill="url(#hv)"/><path d="M253.33,276.84l-3.09,4.66Z" transform="translate(-40.93 -42.04)" fill="url(#hw)"/><path d="M291.94,276.84,287.31,283Z" transform="translate(-40.93 -42.04)" fill="url(#hx)"/><path d="M171.46,278.37l1.5,3.13Z" transform="translate(-40.93 -42.04)" fill="url(#hy)"/><path d="M245.59,283l-1.54,3.09Z" transform="translate(-40.93 -42.04)" fill="url(#hz)"/><path d="M179.18,284.55l1.54,3.1Z" transform="translate(-40.93 -42.04)" fill="url(#ia)"/><path d="M142.11,287.65l3.09,4.63Z" transform="translate(-40.93 -42.04)" fill="url(#ib)"/><path d="M239.42,287.65l-1.55,3.09Z" transform="translate(-40.93 -42.04)" fill="url(#ic)"/><path d="M279.58,287.65l-3.08,4.63Z" transform="translate(-40.93 -42.04)" fill="url(#id)"/><path d="M186.9,290.74l1.55,3.09Z" transform="translate(-40.93 -42.04)" fill="url(#ie)"/><path d="M151.38,295.37l3.09,4.63Z" transform="translate(-40.93 -42.04)" fill="url(#if)"/><path d="M193.08,295.37l1.54,3.09Z" transform="translate(-40.93 -42.04)" fill="url(#ig)"/><path d="M270.32,295.37,267.23,300Z" transform="translate(-40.93 -42.04)" fill="url(#ih)"/><path d="M227.06,296.92,225.51,300Z" transform="translate(-40.93 -42.04)" fill="url(#ii)"/><path d="M199.26,300l1.54,3.09Z" transform="translate(-40.93 -42.04)" fill="url(#ij)"/><path d="M220.88,301.52l-1.54,3.09Z" transform="translate(-40.93 -42.04)" fill="url(#ik)"/><path d="M160.64,303.09l1.55,3.09Z" transform="translate(-40.93 -42.04)" fill="url(#il)"/><path d="M261.05,303.09,258,307.73Z" transform="translate(-40.93 -42.04)" fill="url(#im)"/><path d="M205.44,304.64l1.54,3.09Z" transform="translate(-40.93 -42.04)" fill="url(#in)"/><path d="M214.7,306.18l-1.54,3.09Z" transform="translate(-40.93 -42.04)" fill="url(#io)"/><path d="M168.37,309.27l1.54,3.09Z" transform="translate(-40.93 -42.04)" fill="url(#ip)"/><path d="M253.33,309.27l-1.55,3.09Z" transform="translate(-40.93 -42.04)" fill="url(#iq)"/><path d="M174.54,313.92l1.55,3.08Z" transform="translate(-40.93 -42.04)" fill="url(#ir)"/><path d="M245.59,315.45l-1.54,3.09Z" transform="translate(-40.93 -42.04)" fill="url(#is)"/><path d="M182.27,320.08l1.54,3.09Z" transform="translate(-40.93 -42.04)" fill="url(#it)"/><path d="M239.42,320.08l-1.55,3.09Z" transform="translate(-40.93 -42.04)" fill="url(#iu)"/><path d="M233.24,324.72l-1.55,3.09Z" transform="translate(-40.93 -42.04)" fill="url(#iv)"/><path d="M193.08,327.81l1.54,3.09Z" transform="translate(-40.93 -42.04)" fill="url(#iw)"/><path d="M227.06,329.35l-1.55,3.09Z" transform="translate(-40.93 -42.04)" fill="url(#ix)"/><path d="M199.26,332.44l1.54,3.09Z" transform="translate(-40.93 -42.04)" fill="url(#iy)"/><path d="M220.88,334l-1.54,3.08Z" transform="translate(-40.93 -42.04)" fill="url(#iz)"/><path d="M216.25,337.07l-1.54,3.1Z" transform="translate(-40.93 -42.04)" fill="url(#ja)"/><path d="M123.57,43.58h26.26l18.54,4.64L190,60.62,211.62,80.7a108.81,108.81,0,0,1,41.71-32.42l18.53-4.64h26.26q38,6.88,57.9,31.61a82.43,82.43,0,0,1,18.53,34l-16.2,23.94-7-25.48a83,83,0,0,0-23.94-28.56L304.3,68.3l-7.73-1.54H270.32a68.64,68.64,0,0,0-42.48,25.48L212.4,120.85c-2.78,1.12-3.81.35-3.09-2.33a86.67,86.67,0,0,0-27-37.84L163.74,69.84l-12.39-3.09H123.57A71.21,71.21,0,0,0,78,95.35L67.19,115.41,64.1,130.86v10.82l6.18,23.17,17,30.84A356,356,0,0,0,139,253.63a493.85,493.85,0,0,0,72.6,57.16,539.85,539.85,0,0,0,91.91-76.47l10-11.58,10,22.4a679,679,0,0,1-112,95A651.64,651.64,0,0,1,91.92,239a241.53,241.53,0,0,1-41.74-61.8l-7.72-24.71L40.93,134l1.55-1.55L44,113.89,56.38,86.05,77.25,63.69l23.17-13.87Z" transform="translate(-40.93 -42.04)" fill="url(#jb)"/><path d="M301.21,100.74l33.21,79.54,5.4,8.5q3.56,1.25,2.32-2.32l30.09-47.11,6.95,17.76,13.9,52.53,3.81,7h27v21.62H378.41l-.78-5.39-10.82-35.54L364.5,195l-27,43.24q-4.19,1.69-3.09-2.31L302,159.44q-4.63-1.86-3.09,3.81l-33.19,75L241,202.68c-2.27-.73-3,0-2.32,2.32l-17.76,33.21H166.05V216.59h39.39l3.81-3.81,28.6-56.39,23.22,34Z" transform="translate(-40.93 -42.04)" fill="url(#jc)"/></svg>