<svg xmlns="http://www.w3.org/2000/svg"  viewBox="0 0 1665.4 330.69"><text transform="translate(439.38 214.2)" font-size="192.23" font-family="Poppins-Bold, Poppins" font-weight="700" style="isolation:isolate">apollo</text><text transform="translate(1058.73 214.2)" font-size="192.23" font-family="Poppins-Medium, Poppins" font-weight="500" style="isolation:isolate">saúde</text><path d="M131.29,42l13.14.78-13.14.77Z" transform="translate(-40.93 -42.04)"/><path d="M278,42l13.13.78L278,43.59Z" transform="translate(-40.93 -42.04)"/><path d="M118.93,43.58l3.81.78-3.81.77Z" transform="translate(-40.93 -42.04)"/><path d="M151.38,43.58l3.81.78-3.81.77Z" transform="translate(-40.93 -42.04)"/><path d="M267.23,43.58l3.81.78-3.81.77Z" transform="translate(-40.93 -42.04)"/><path d="M299.66,43.58l3.82.78-3.82.77Z" transform="translate(-40.93 -42.04)"/><path d="M233.24,59l-1.55,3.09Z" transform="translate(-40.93 -42.04)"/><path d="M80.32,60.58l-1.55,3.09Z" transform="translate(-40.93 -42.04)"/><path d="M342.91,62.11l3.1,4.65Z" transform="translate(-40.93 -42.04)"/><path d="M194.62,63.66,207,77.56Z" transform="translate(-40.93 -42.04)"/><path d="M74.14,65.21,63.32,77.57Z" transform="translate(-40.93 -42.04)"/><path d="M225.52,65.21,216.25,76Z" transform="translate(-40.93 -42.04)"/><path d="M176.09,76l1.54,3.09Z" transform="translate(-40.93 -42.04)"/><path d="M356.82,76l1.55,3.09Z" transform="translate(-40.93 -42.04)"/><path d="M94.22,79.11l-1.55,3.12Z" transform="translate(-40.93 -42.04)"/><path d="M327.47,79.11,329,82.23Z" transform="translate(-40.93 -42.04)"/><path d="M182.27,80.66l1.54,3.09Z" transform="translate(-40.93 -42.04)"/><path d="M239.43,80.66,228.6,93.05Z" transform="translate(-40.93 -42.04)"/><path d="M191.53,89.93l3.09,4.63Z" transform="translate(-40.93 -42.04)"/><path d="M225.51,96.1,224,99.19Z" transform="translate(-40.93 -42.04)"/><path d="M301.21,99.19l-1.55,3.06Z" transform="translate(-40.93 -42.04)"/><path d="M41.7,128.54l.78,3.81H40.93Z" transform="translate(-40.93 -42.04)"/><path d="M356.82,128.54l.77,7H356Z" transform="translate(-40.93 -42.04)"/><path d="M64.87,130.08l.78,11.59H64.1Z" transform="translate(-40.93 -42.04)"/><path d="M41.7,139.35l.78,3.82H40.93Z" transform="translate(-40.93 -42.04)"/><path d="M237.87,154.8l-1.54,3.1Z" transform="translate(-40.93 -42.04)"/><path d="M251.78,176.43l1.55,3.09Z" transform="translate(-40.93 -42.04)"/><path d="M81.86,185.7l1.55,3.09Z" transform="translate(-40.93 -42.04)"/><path d="M259.5,187.23l3.82.79Q260.11,193.11,259.5,187.23Z" transform="translate(-40.93 -42.04)"/><path d="M88,195l1.54,3.08Z" transform="translate(-40.93 -42.04)"/><path d="M63.32,201.14l1.55,3.13Z" transform="translate(-40.93 -42.04)"/><path d="M242.5,204.27l1.55,3.09Z" transform="translate(-40.93 -42.04)"/><path d="M66.42,205.78,68,208.87Z" transform="translate(-40.93 -42.04)"/><path d="M97.31,207.32l1.54,3.09Z" transform="translate(-40.93 -42.04)"/><path d="M245.6,208.87l1.55,3.09Z" transform="translate(-40.93 -42.04)"/><path d="M355.27,208.87,353.72,212Z" transform="translate(-40.93 -42.04)"/><path d="M101.94,213.5l3.09,4.63Z" transform="translate(-40.93 -42.04)"/><path d="M395.44,213.5,397,215l27,.78-27,.77Z" transform="translate(-40.93 -42.04)"/><path d="M166.82,215l39.39.78-40.16.77v21.63h54.84v1.55H164.5v-22.4Z" transform="translate(-40.93 -42.04)"/><path d="M74.14,216.59l1.57,3.09Z" transform="translate(-40.93 -42.04)"/><path d="M78.77,222.77l3.1,4.63Z" transform="translate(-40.93 -42.04)"/><path d="M254.87,222.77l1.54,3.09Z" transform="translate(-40.93 -42.04)"/><path d="M312,222.77l-1.55,3.09Z" transform="translate(-40.93 -42.04)"/><path d="M112.75,225.86,139,253.67Z" transform="translate(-40.93 -42.04)"/><path d="M258,227.4l1.54,3.09Z" transform="translate(-40.93 -42.04)"/><path d="M86.5,232l4.63,6.18Z" transform="translate(-40.93 -42.04)"/><path d="M261.05,232l1.54,3.1Z" transform="translate(-40.93 -42.04)"/><path d="M302.75,233.58l-17,18.53Z" transform="translate(-40.93 -42.04)"/><path d="M264.14,236.69l1.54,3.09Z" transform="translate(-40.93 -42.04)"/><path d="M378.44,238.21,424,239l-45.59.78Z" transform="translate(-40.93 -42.04)"/><path d="M100.4,247.48l17,18.54Z" transform="translate(-40.93 -42.04)"/><path d="M319.79,249l-17,18.53Z" transform="translate(-40.93 -42.04)"/><path d="M148.29,259.84l4.63,6.18Z" transform="translate(-40.93 -42.04)"/><path d="M273.41,261.38l-4.64,6.18Z" transform="translate(-40.93 -42.04)"/><path d="M160.64,270.65l3.09,4.64Z" transform="translate(-40.93 -42.04)"/><path d="M261.05,272.19l-1.55,3.1Z" transform="translate(-40.93 -42.04)"/><path d="M129.75,275.29l4.64,6.21Z" transform="translate(-40.93 -42.04)"/><path d="M291.94,275.29,285.76,283Z" transform="translate(-40.93 -42.04)"/><path d="M169.91,278.37,173,283Z" transform="translate(-40.93 -42.04)"/><path d="M253.33,278.37l-1.55,3.13Z" transform="translate(-40.93 -42.04)"/><path d="M245.59,284.55l-1.54,3.1Z" transform="translate(-40.93 -42.04)"/><path d="M142.11,286.09l3.09,4.65Z" transform="translate(-40.93 -42.04)"/><path d="M179.18,286.09l1.54,3.1Z" transform="translate(-40.93 -42.04)"/><path d="M278,287.65,275,292.28Z" transform="translate(-40.93 -42.04)"/><path d="M239.42,289.19l-1.55,3.09Z" transform="translate(-40.93 -42.04)"/><path d="M185.36,290.74l1.54,3.09Z" transform="translate(-40.93 -42.04)"/><path d="M152.94,295.37l1.54,3.09Z" transform="translate(-40.93 -42.04)"/><path d="M268.77,295.37,265.68,300Z" transform="translate(-40.93 -42.04)"/><path d="M193.08,296.92l1.54,3.08Z" transform="translate(-40.93 -42.04)"/><path d="M227.06,298.45l-1.55,3.07Z" transform="translate(-40.93 -42.04)"/><path d="M160.64,301.52l1.55,3.09Z" transform="translate(-40.93 -42.04)"/><path d="M199.26,301.52l1.54,3.09Z" transform="translate(-40.93 -42.04)"/><path d="M261.05,301.52,258,306.15Z" transform="translate(-40.93 -42.04)"/><path d="M220.88,303.09l-1.54,3.09Z" transform="translate(-40.93 -42.04)"/><path d="M205.44,306.18l1.54,3.09Z" transform="translate(-40.93 -42.04)"/><path d="M168.37,307.73l1.54,3.09Z" transform="translate(-40.93 -42.04)"/><path d="M253.33,307.73l-3.09,4.63Z" transform="translate(-40.93 -42.04)"/><path d="M176.09,313.92l1.54,3.08Z" transform="translate(-40.93 -42.04)"/><path d="M245.59,313.92,244.05,317Z" transform="translate(-40.93 -42.04)"/><path d="M182.27,318.54l1.54,3.09Z" transform="translate(-40.93 -42.04)"/><path d="M239.42,318.54l-1.55,3.09Z" transform="translate(-40.93 -42.04)"/><path d="M188.45,323.17l1.54,3.09Z" transform="translate(-40.93 -42.04)"/><path d="M233.24,323.17l-1.55,3.14Z" transform="translate(-40.93 -42.04)"/><path d="M194.62,327.81l1.55,3.09Z" transform="translate(-40.93 -42.04)"/><path d="M220.88,332.44l-1.54,3.09Z" transform="translate(-40.93 -42.04)"/><path d="M205.44,335.53l1.54,3.09Z" transform="translate(-40.93 -42.04)"/><path d="M125.11,42l5.41.78-5.41.77Z" transform="translate(-40.93 -42.04)"/><path d="M145.19,42l3.81.78-3.81.77Z" transform="translate(-40.93 -42.04)"/><path d="M273.41,42l3.81.78-3.81.77Z" transform="translate(-40.93 -42.04)"/><path d="M291.94,42l5.41.78-5.41.77Z" transform="translate(-40.93 -42.04)"/><path d="M185.36,55.94,186.9,59Z" transform="translate(-40.93 -42.04)"/><path d="M335.19,55.94,336.73,59Z" transform="translate(-40.93 -42.04)"/><path d="M83.41,57.44l-1.55,3.1Z" transform="translate(-40.93 -42.04)"/><path d="M339.81,59l1.55,3.09Z" transform="translate(-40.93 -42.04)"/><path d="M191.53,60.58l1.55,3.09Z" transform="translate(-40.93 -42.04)"/><path d="M230.17,60.58l-3.09,4.63Z" transform="translate(-40.93 -42.04)"/><path d="M77.23,62.11l-1.52,3.1Z" transform="translate(-40.93 -42.04)"/><path d="M347.54,65.21l7.73,9.27Z" transform="translate(-40.93 -42.04)"/><path d="M291.94,66.76l3.81.77-3.81.77Z" transform="translate(-40.93 -42.04)"/><path d="M214.71,76l-3.09,4.64-3.81-2.32,2.32.77Z" transform="translate(-40.93 -42.04)"/><path d="M61.78,77.57l-1.54,3.09Z" transform="translate(-40.93 -42.04)"/><path d="M97.31,77.57l-1.58,3.09Z" transform="translate(-40.93 -42.04)"/><path d="M242.5,79.11,241,82.23Z" transform="translate(-40.93 -42.04)"/><path d="M359.91,79.11l1.54,3.12Z" transform="translate(-40.93 -42.04)"/><path d="M91.13,82.23,80.32,94.63Z" transform="translate(-40.93 -42.04)"/><path d="M330.55,82.23l10.82,12.4Z" transform="translate(-40.93 -42.04)"/><path d="M185.36,83.75,190,89.93Z" transform="translate(-40.93 -42.04)"/><path d="M194.62,94.56l1.55,3.09Z" transform="translate(-40.93 -42.04)"/><path d="M197.75,99.19l1.55,3.09Z" transform="translate(-40.93 -42.04)"/><path d="M41.7,123.91l.78,3.81H40.93Z" transform="translate(-40.93 -42.04)"/><path d="M363,127l-1.54,3.1Z" transform="translate(-40.93 -42.04)"/><path d="M359.91,131.63l-1.54,3.09Z" transform="translate(-40.93 -42.04)"/><path d="M369.17,142.44l-1.55,3.1Z" transform="translate(-40.93 -42.04)"/><path d="M41.7,144l.78,3.81H40.93Z" transform="translate(-40.93 -42.04)"/><path d="M358.37,159.46l-1.55,3.1Z" transform="translate(-40.93 -42.04)"/><path d="M350.63,171.8l-1.54,3.09Z" transform="translate(-40.93 -42.04)"/><path d="M341.37,185.7l-1.56,3.09Z" transform="translate(-40.93 -42.04)"/><path d="M86.5,191.88,88,195Z" transform="translate(-40.93 -42.04)"/><path d="M94.22,202.69l1.51,3.09Z" transform="translate(-40.93 -42.04)"/><path d="M68,208.87,69.51,212Z" transform="translate(-40.93 -42.04)"/><path d="M100.4,210.41l1.54,3.09Z" transform="translate(-40.93 -42.04)"/><path d="M71.05,213.5l1.54,3.09Z" transform="translate(-40.93 -42.04)"/><path d="M424.78,215l.78,24H424Z" transform="translate(-40.93 -42.04)"/><path d="M106.57,218.13l4.64,6.16Z" transform="translate(-40.93 -42.04)"/><path d="M75.71,219.68l1.55,3.1Z" transform="translate(-40.93 -42.04)"/><path d="M349.09,219.68l-1.55,3.1Z" transform="translate(-40.93 -42.04)"/><path d="M308.93,225.86l-6.18,7.72Z" transform="translate(-40.93 -42.04)"/><path d="M81.86,227.4,85,232Z" transform="translate(-40.93 -42.04)"/><path d="M91.13,238.21l7.72,9.28Z" transform="translate(-40.93 -42.04)"/><path d="M322.83,245.94l-1.54,3.14Z" transform="translate(-40.93 -42.04)"/><path d="M284.22,250.57,275,261.39Z" transform="translate(-40.93 -42.04)"/><path d="M140.55,252.11l6.17,7.73Z" transform="translate(-40.93 -42.04)"/><path d="M118.93,266l9.28,10.82Z" transform="translate(-40.93 -42.04)"/><path d="M156,266l3.09,4.63Z" transform="translate(-40.93 -42.04)"/><path d="M265.68,267.56l-3.1,4.63Z" transform="translate(-40.93 -42.04)"/><path d="M301.21,267.56l-7.73,9.28Z" transform="translate(-40.93 -42.04)"/><path d="M166.82,275.29l1.55,3.09Z" transform="translate(-40.93 -42.04)"/><path d="M256.41,275.29l-1.54,3.09Z" transform="translate(-40.93 -42.04)"/><path d="M135.93,281.5l4.63,6.18Z" transform="translate(-40.93 -42.04)"/><path d="M174.54,281.5l3.09,4.63Z" transform="translate(-40.93 -42.04)"/><path d="M248.69,281.5l-1.54,3.09Z" transform="translate(-40.93 -42.04)"/><path d="M284.22,283l-3.09,4.64Z" transform="translate(-40.93 -42.04)"/><path d="M242.5,286.09l-1.53,3.1Z" transform="translate(-40.93 -42.04)"/><path d="M182.27,287.65l1.54,3.09Z" transform="translate(-40.93 -42.04)"/><path d="M146.74,290.74l3.09,4.63Z" transform="translate(-40.93 -42.04)"/><path d="M236.33,290.74l-1.54,3.09Z" transform="translate(-40.93 -42.04)"/><path d="M273.41,292.27l-1.55,3.1Z" transform="translate(-40.93 -42.04)"/><path d="M190,293.83l1.54,3.09Z" transform="translate(-40.93 -42.04)"/><path d="M230.17,295.37l-1.55,3.09Z" transform="translate(-40.93 -42.04)"/><path d="M156,298.45l3.09,4.64Z" transform="translate(-40.93 -42.04)"/><path d="M196.17,298.45l1.58,3.07Z" transform="translate(-40.93 -42.04)"/><path d="M224,300l-1.54,3.09Z" transform="translate(-40.93 -42.04)"/><path d="M264.13,300l-1.55,3.09Z" transform="translate(-40.93 -42.04)"/><path d="M202.35,303.09l1.54,3.09Z" transform="translate(-40.93 -42.04)"/><path d="M163.73,304.64l3.09,4.63Z" transform="translate(-40.93 -42.04)"/><path d="M217.77,304.64l-1.54,3.09Z" transform="translate(-40.93 -42.04)"/><path d="M256.41,306.18l-1.54,3.09Z" transform="translate(-40.93 -42.04)"/><path d="M208.52,307.73l3.82,2.31-2.32.78Z" transform="translate(-40.93 -42.04)"/><path d="M171.46,310.82l1.5,3.1Z" transform="translate(-40.93 -42.04)"/><path d="M248.69,312.36l-1.54,3.09Z" transform="translate(-40.93 -42.04)"/><path d="M179.18,317l1.54,3.08Z" transform="translate(-40.93 -42.04)"/><path d="M242.5,317,241,320.08Z" transform="translate(-40.93 -42.04)"/><path d="M185.36,321.63l1.54,3.09Z" transform="translate(-40.93 -42.04)"/><path d="M236.33,321.63l-1.54,3.09Z" transform="translate(-40.93 -42.04)"/><path d="M230.17,326.31l-1.55,3.09Z" transform="translate(-40.93 -42.04)"/><path d="M224,330.9,222.43,334Z" transform="translate(-40.93 -42.04)"/><path d="M202.35,334l1.54,3.08Z" transform="translate(-40.93 -42.04)"/><path d="M149.83,42l3.82.78-3.82.77Z" transform="translate(-40.93 -42.04)"/><path d="M268.77,42l3.82.78-3.82.77Z" transform="translate(-40.93 -42.04)"/><path d="M237.87,54.4l-1.54,3.09Z" transform="translate(-40.93 -42.04)"/><path d="M188.45,57.44l1.54,3.1Z" transform="translate(-40.93 -42.04)"/><path d="M233.24,57.44l-1.55,3.1Z" transform="translate(-40.93 -42.04)"/><path d="M80.32,59l-1.55,3.09Z" transform="translate(-40.93 -42.04)"/><path d="M194.62,62.11l13.9,15.46Z" transform="translate(-40.93 -42.04)"/><path d="M344.46,62.11l1.55,3.1Z" transform="translate(-40.93 -42.04)"/><path d="M225.52,63.66,214.71,76.05Z" transform="translate(-40.93 -42.04)"/><path d="M72.59,65.21,63.32,76Z" transform="translate(-40.93 -42.04)"/><path d="M128.21,66.76l5.4.77-5.4.77Z" transform="translate(-40.93 -42.04)"/><path d="M142.11,66.76l5.4.77-5.4.77Z" transform="translate(-40.93 -42.04)"/><path d="M275,66.76l5.4.77-5.4.77Z" transform="translate(-40.93 -42.04)"/><path d="M287.31,66.76l3.81.77-3.81.77Z" transform="translate(-40.93 -42.04)"/><path d="M356.82,74.48l3.09,4.63Z" transform="translate(-40.93 -42.04)"/><path d="M245.59,77.57l-1.54,3.09Z" transform="translate(-40.93 -42.04)"/><path d="M94.22,80.66l-1.55,3.09Z" transform="translate(-40.93 -42.04)"/><path d="M180.72,80.66l3.09,4.63Z" transform="translate(-40.93 -42.04)"/><path d="M327.47,80.66,329,83.75Z" transform="translate(-40.93 -42.04)"/><path d="M239.43,82.23,228.6,94.63Z" transform="translate(-40.93 -42.04)"/><path d="M191.53,91.47l1.55,3.09Z" transform="translate(-40.93 -42.04)"/><path d="M80.32,94.56l-1.55,3.09Z" transform="translate(-40.93 -42.04)"/><path d="M341.37,94.56l1.54,3.09Z" transform="translate(-40.93 -42.04)"/><path d="M375.36,105.37l.77,3.82h-1.55Z" transform="translate(-40.93 -42.04)"/><path d="M373.81,111.55l-1.58,3.1Z" transform="translate(-40.93 -42.04)"/><path d="M370.72,116.18l-1.54,3.09Z" transform="translate(-40.93 -42.04)"/><path d="M367.62,120.82l-1.53,3.1Z" transform="translate(-40.93 -42.04)"/><path d="M66.42,127l.77,8.5H65.64Z" transform="translate(-40.93 -42.04)"/><path d="M355.28,127l.77,3.82H354.5Z" transform="translate(-40.93 -42.04)"/><path d="M358.37,134.72l-1.55,3.1Z" transform="translate(-40.93 -42.04)"/><path d="M66.42,137.81l.77,6.95H65.64Z" transform="translate(-40.93 -42.04)"/><path d="M364.54,148.62l-1.54,3.1Z" transform="translate(-40.93 -42.04)"/><path d="M236.33,153.25l3.81,2.33-2.32-.78Z" transform="translate(-40.93 -42.04)"/><path d="M241,157.9,242.5,161Z" transform="translate(-40.93 -42.04)"/><path d="M301.21,161l-1.55,3.09Z" transform="translate(-40.93 -42.04)"/><path d="M244.05,162.52l1.54,3.1Z" transform="translate(-40.93 -42.04)"/><path d="M353.72,165.62l-1.51,3.09Z" transform="translate(-40.93 -42.04)"/><path d="M250.19,171.8l1.54,3.09Z" transform="translate(-40.93 -42.04)"/><path d="M253.33,176.43l1.54,3.09Z" transform="translate(-40.93 -42.04)"/><path d="M346,178l-1.55,3.08Z" transform="translate(-40.93 -42.04)"/><path d="M256.41,181.05l1.54,3.1Z" transform="translate(-40.93 -42.04)"/><path d="M259.5,185.7l1.55,3.09Z" transform="translate(-40.93 -42.04)"/><path d="M364.54,196.51,363,199.6Z" transform="translate(-40.93 -42.04)"/><path d="M92.67,199.6l1.55,3.09Z" transform="translate(-40.93 -42.04)"/><path d="M97.31,205.78l1.54,3.09Z" transform="translate(-40.93 -42.04)"/><path d="M103.49,213.5l3.09,4.63Z" transform="translate(-40.93 -42.04)"/><path d="M353.72,213.5l-1.51,3.09Z" transform="translate(-40.93 -42.04)"/><path d="M72.59,216.59l1.55,3.09Z" transform="translate(-40.93 -42.04)"/><path d="M313.56,219.68l-4.63,6.18Z" transform="translate(-40.93 -42.04)"/><path d="M78.77,224.29l1.55,3.09Z" transform="translate(-40.93 -42.04)"/><path d="M112.75,224.29,139,252.1Z" transform="translate(-40.93 -42.04)"/><path d="M85,232l4.64,6.18Z" transform="translate(-40.93 -42.04)"/><path d="M301.21,233.58l-15.45,17Z" transform="translate(-40.93 -42.04)"/><path d="M222.43,238.21l-1.54,3.1-56.39-.81,56.39-.77Z" transform="translate(-40.93 -42.04)"/><path d="M264.14,238.21,268,239Q264.76,244.09,264.14,238.21Z" transform="translate(-40.93 -42.04)"/><path d="M378.44,239.76l45.59.77-45.59.78Z" transform="translate(-40.93 -42.04)"/><path d="M98.85,247.48l18.54,20.08Z" transform="translate(-40.93 -42.04)"/><path d="M321.29,249l-20.08,21.62Z" transform="translate(-40.93 -42.04)"/><path d="M148.29,258.29l6.18,7.73Z" transform="translate(-40.93 -42.04)"/><path d="M273.41,259.84l-6.18,7.72Z" transform="translate(-40.93 -42.04)"/><path d="M160.64,269.1l4.64,6.18Z" transform="translate(-40.93 -42.04)"/><path d="M261.05,270.65,258,275.29Z" transform="translate(-40.93 -42.04)"/><path d="M129.75,276.84l4.64,6.17Z" transform="translate(-40.93 -42.04)"/><path d="M253.33,276.84l-3.09,4.66Z" transform="translate(-40.93 -42.04)"/><path d="M291.94,276.84,287.31,283Z" transform="translate(-40.93 -42.04)"/><path d="M171.46,278.37l1.5,3.13Z" transform="translate(-40.93 -42.04)"/><path d="M245.59,283l-1.54,3.09Z" transform="translate(-40.93 -42.04)"/><path d="M179.18,284.55l1.54,3.1Z" transform="translate(-40.93 -42.04)"/><path d="M142.11,287.65l3.09,4.63Z" transform="translate(-40.93 -42.04)"/><path d="M239.42,287.65l-1.55,3.09Z" transform="translate(-40.93 -42.04)"/><path d="M279.58,287.65l-3.08,4.63Z" transform="translate(-40.93 -42.04)"/><path d="M186.9,290.74l1.55,3.09Z" transform="translate(-40.93 -42.04)"/><path d="M151.38,295.37l3.09,4.63Z" transform="translate(-40.93 -42.04)"/><path d="M193.08,295.37l1.54,3.09Z" transform="translate(-40.93 -42.04)"/><path d="M270.32,295.37,267.23,300Z" transform="translate(-40.93 -42.04)"/><path d="M227.06,296.92,225.51,300Z" transform="translate(-40.93 -42.04)"/><path d="M199.26,300l1.54,3.09Z" transform="translate(-40.93 -42.04)"/><path d="M220.88,301.52l-1.54,3.09Z" transform="translate(-40.93 -42.04)"/><path d="M160.64,303.09l1.55,3.09Z" transform="translate(-40.93 -42.04)"/><path d="M261.05,303.09,258,307.73Z" transform="translate(-40.93 -42.04)"/><path d="M205.44,304.64l1.54,3.09Z" transform="translate(-40.93 -42.04)"/><path d="M214.7,306.18l-1.54,3.09Z" transform="translate(-40.93 -42.04)"/><path d="M168.37,309.27l1.54,3.09Z" transform="translate(-40.93 -42.04)"/><path d="M253.33,309.27l-1.55,3.09Z" transform="translate(-40.93 -42.04)"/><path d="M174.54,313.92l1.55,3.08Z" transform="translate(-40.93 -42.04)"/><path d="M245.59,315.45l-1.54,3.09Z" transform="translate(-40.93 -42.04)"/><path d="M182.27,320.08l1.54,3.09Z" transform="translate(-40.93 -42.04)"/><path d="M239.42,320.08l-1.55,3.09Z" transform="translate(-40.93 -42.04)"/><path d="M233.24,324.72l-1.55,3.09Z" transform="translate(-40.93 -42.04)"/><path d="M193.08,327.81l1.54,3.09Z" transform="translate(-40.93 -42.04)"/><path d="M227.06,329.35l-1.55,3.09Z" transform="translate(-40.93 -42.04)"/><path d="M199.26,332.44l1.54,3.09Z" transform="translate(-40.93 -42.04)"/><path d="M220.88,334l-1.54,3.08Z" transform="translate(-40.93 -42.04)"/><path d="M216.25,337.07l-1.54,3.1Z" transform="translate(-40.93 -42.04)"/><path d="M123.57,43.58h26.26l18.54,4.64L190,60.62,211.62,80.7a108.81,108.81,0,0,1,41.71-32.42l18.53-4.64h26.26q38,6.88,57.9,31.61a82.43,82.43,0,0,1,18.53,34l-16.2,23.94-7-25.48a83,83,0,0,0-23.94-28.56L304.3,68.3l-7.73-1.54H270.32a68.64,68.64,0,0,0-42.48,25.48L212.4,120.85c-2.78,1.12-3.81.35-3.09-2.33a86.67,86.67,0,0,0-27-37.84L163.74,69.84l-12.39-3.09H123.57A71.21,71.21,0,0,0,78,95.35L67.19,115.41,64.1,130.86v10.82l6.18,23.17,17,30.84A356,356,0,0,0,139,253.63a493.85,493.85,0,0,0,72.6,57.16,539.85,539.85,0,0,0,91.91-76.47l10-11.58,10,22.4a679,679,0,0,1-112,95A651.64,651.64,0,0,1,91.92,239a241.53,241.53,0,0,1-41.74-61.8l-7.72-24.71L40.93,134l1.55-1.55L44,113.89,56.38,86.05,77.25,63.69l23.17-13.87Z" transform="translate(-40.93 -42.04)"/><path d="M301.21,100.74l33.21,79.54,5.4,8.5q3.56,1.25,2.32-2.32l30.09-47.11,6.95,17.76,13.9,52.53,3.81,7h27v21.62H378.41l-.78-5.39-10.82-35.54L364.5,195l-27,43.24q-4.19,1.69-3.09-2.31L302,159.44q-4.63-1.86-3.09,3.81l-33.19,75L241,202.68c-2.27-.73-3,0-2.32,2.32l-17.76,33.21H166.05V216.59h39.39l3.81-3.81,28.6-56.39,23.22,34Z" transform="translate(-40.93 -42.04)"/></svg>