<svg xmlns="http://www.w3.org/2000/svg" viewBox="0 0 1747.26 414.76"><defs><style>.cls-1,.cls-2,.cls-3{isolation:isolate;}.cls-2,.cls-3{font-size:201.62px;}.cls-2,.cls-3,.cls-5{fill:#000;}.cls-2{font-family:Poppins-Bold, Poppins;font-weight:700;}.cls-3{font-family:Poppins-Medium, Poppins;font-weight:500;}.cls-4{fill:none;}.cls-5{stroke:#fff;}</style></defs><g id="Camada_2" data-name="Camada 2"><g id="Camada_1-2" data-name="Camada 1"><g id="Componente_2_1" data-name="Componente 2 1"><g id="apollosaúde" class="cls-1"><text class="cls-2" transform="translate(461.36 276.5)">apollo</text><text class="cls-3" transform="translate(1110.96 276.5)">saúde</text></g><g id="Componente_1_1" data-name="Componente 1 1"><g id="Image_1" data-name="Image 1"><rect id="Sizing_Rectangle" data-name="Sizing Rectangle" class="cls-4" x="0.52" width="414.76" height="414.76"/><path id="rgba_0_0_0_0.94_" data-name="rgba 0 0 0 0.94 " class="cls-4" d="M95.29,51.84l13.78.82-13.78.81Z"/><path id="rgba_0_0_0_0.94_2" data-name="rgba 0 0 0 0.94 2" class="cls-4" d="M249.21,51.84l13.77.82-13.77.81Z"/><path id="rgba_0_0_0_0.94_3" data-name="rgba 0 0 0 0.94 3" class="cls-4" d="M82.33,53.46l4,.82-4,.81Z"/><path id="rgba_0_0_0_0.94_4" data-name="rgba 0 0 0 0.94 4" class="cls-4" d="M116.36,53.46l4,.82-4,.81Z"/><path id="rgba_0_0_0_0.94_5" data-name="rgba 0 0 0 0.94 5" class="cls-4" d="M237.87,53.46l4,.82-4,.81Z"/><path id="rgba_0_0_0_0.94_6" data-name="rgba 0 0 0 0.94 6" class="cls-4" d="M271.89,53.46l4,.82-4,.81Z"/><path id="rgba_0_0_0_0.94_7" data-name="rgba 0 0 0 0.94 7" class="cls-4" d="M202.22,69.67l-1.62,3.24Z"/><path id="rgba_0_0_0_0.94_8" data-name="rgba 0 0 0 0.94 8" class="cls-4" d="M41.83,71.29l-1.62,3.24Z"/><path id="rgba_0_0_0_0.94_9" data-name="rgba 0 0 0 0.94 9" class="cls-4" d="M317.25,72.9l3.25,4.87Z"/><path id="rgba_0_0_0_0.94_10" data-name="rgba 0 0 0 0.94 10" class="cls-4" d="M161.72,74.52l13,14.58Z"/><path id="rgba_0_0_0_0.94_11" data-name="rgba 0 0 0 0.94 11" class="cls-4" d="M35.35,76.15,24,89.11Z"/><path id="rgba_0_0_0_0.94_12" data-name="rgba 0 0 0 0.94 12" class="cls-4" d="M194.13,76.15,184.4,87.49Z"/><path id="rgba_0_0_0_0.94_13" data-name="rgba 0 0 0 0.94 13" class="cls-4" d="M142.28,87.48l1.62,3.25Z"/><path id="rgba_0_0_0_0.94_14" data-name="rgba 0 0 0 0.94 14" class="cls-4" d="M331.84,87.48l1.62,3.25Z"/><path id="rgba_0_0_0_0.94_15" data-name="rgba 0 0 0 0.94 15" class="cls-4" d="M56.41,90.73,54.79,94Z"/><path id="rgba_0_0_0_0.94_16" data-name="rgba 0 0 0 0.94 16" class="cls-4" d="M301.05,90.73,302.67,94Z"/><path id="rgba_0_0_0_0.94_17" data-name="rgba 0 0 0 0.94 17" class="cls-4" d="M148.76,92.35l1.62,3.24Z"/><path id="rgba_0_0_0_0.94_18" data-name="rgba 0 0 0 0.94 18" class="cls-4" d="M208.71,92.35l-11.35,13Z"/><path id="rgba_0_0_0_0.94_19" data-name="rgba 0 0 0 0.94 19" class="cls-4" d="M158.48,102.07l3.24,4.86Z"/><path id="rgba_0_0_0_0.94_20" data-name="rgba 0 0 0 0.94 20" class="cls-4" d="M194.12,108.55l-1.62,3.24Z"/><path id="rgba_0_0_0_0.94_21" data-name="rgba 0 0 0 0.94 21" class="cls-4" d="M273.51,111.79,271.89,115Z"/><path id="rgba_0_0_0_0.94_22" data-name="rgba 0 0 0 0.94 22" class="cls-4" d="M1.33,142.57l.81,4H.52Z"/><path id="rgba_0_0_0_0.94_23" data-name="rgba 0 0 0 0.94 23" class="cls-4" d="M331.84,142.57l.81,7.29H331Z"/><path id="rgba_0_0_0_0.94_24" data-name="rgba 0 0 0 0.94 24" class="cls-4" d="M25.63,144.19l.82,12.15H24.82Z"/><path id="rgba_0_0_0_0.94_25" data-name="rgba 0 0 0 0.94 25" class="cls-4" d="M1.33,153.91l.81,4H.52Z"/><path id="rgba_0_0_0_0.94_26" data-name="rgba 0 0 0 0.94 26" class="cls-4" d="M207.08,170.11l-1.62,3.25Z"/><path id="rgba_0_0_0_0.94_27" data-name="rgba 0 0 0 0.94 27" class="cls-4" d="M221.67,192.8l1.62,3.24Z"/><path id="rgba_0_0_0_0.94_28" data-name="rgba 0 0 0 0.94 28" class="cls-4" d="M43.45,202.52l1.62,3.24Z"/><path id="rgba_0_0_0_0.94_29" data-name="rgba 0 0 0 0.94 29" class="cls-4" d="M229.77,204.13l4,.82Q230.41,210.29,229.77,204.13Z"/><path id="rgba_0_0_0_0.94_30" data-name="rgba 0 0 0 0.94 30" class="cls-4" d="M49.93,212.24l1.62,3.24Z"/><path id="rgba_0_0_0_0.94_31" data-name="rgba 0 0 0 0.94 31" class="cls-4" d="M24,218.72,25.63,222Z"/><path id="rgba_0_0_0_0.94_32" data-name="rgba 0 0 0 0.94 32" class="cls-4" d="M211.94,222l1.62,3.24Z"/><path id="rgba_0_0_0_0.94_33" data-name="rgba 0 0 0 0.94 33" class="cls-4" d="M27.25,223.58l1.62,3.24Z"/><path id="rgba_0_0_0_0.94_34" data-name="rgba 0 0 0 0.94 34" class="cls-4" d="M59.65,225.2l1.62,3.24Z"/><path id="rgba_0_0_0_0.94_35" data-name="rgba 0 0 0 0.94 35" class="cls-4" d="M215.19,226.82l1.62,3.24Z"/><path id="rgba_0_0_0_0.94_36" data-name="rgba 0 0 0 0.94 36" class="cls-4" d="M330.21,226.82l-1.62,3.24Z"/><path id="rgba_0_0_0_0.94_37" data-name="rgba 0 0 0 0.94 37" class="cls-4" d="M64.51,231.68l3.24,4.86Z"/><path id="rgba_0_0_0_0.94_38" data-name="rgba 0 0 0 0.94 38" class="cls-4" d="M372.34,231.68,374,233.3l28.35.81-28.35.81Z"/><path id="rgba_0_0_0_0.94_39" data-name="rgba 0 0 0 0.94 39" class="cls-4" d="M132.56,233.3l41.31.81-42.12.81v22.69h57.52v1.62H130.13V235.74Z"/><path id="rgba_0_0_0_0.94_40" data-name="rgba 0 0 0 0.94 40" class="cls-4" d="M35.35,234.92,37,238.16Z"/><path id="rgba_0_0_0_0.94_41" data-name="rgba 0 0 0 0.94 41" class="cls-4" d="M40.21,241.4l3.25,4.86Z"/><path id="rgba_0_0_0_0.94_42" data-name="rgba 0 0 0 0.94 42" class="cls-4" d="M224.91,241.4l1.61,3.24Z"/><path id="rgba_0_0_0_0.94_43" data-name="rgba 0 0 0 0.94 43" class="cls-4" d="M284.85,241.4l-1.62,3.24Z"/><path id="rgba_0_0_0_0.94_44" data-name="rgba 0 0 0 0.94 44" class="cls-4" d="M75.85,244.64l27.54,29.17Z"/><path id="rgba_0_0_0_0.94_45" data-name="rgba 0 0 0 0.94 45" class="cls-4" d="M228.15,246.26l1.62,3.24Z"/><path id="rgba_0_0_0_0.94_46" data-name="rgba 0 0 0 0.94 46" class="cls-4" d="M48.31,251.12l4.86,6.48Z"/><path id="rgba_0_0_0_0.94_47" data-name="rgba 0 0 0 0.94 47" class="cls-4" d="M231.39,251.12l1.62,3.25Z"/><path id="rgba_0_0_0_0.94_48" data-name="rgba 0 0 0 0.94 48" class="cls-4" d="M275.13,252.74l-17.82,19.44Z"/><path id="rgba_0_0_0_0.94_49" data-name="rgba 0 0 0 0.94 49" class="cls-4" d="M234.63,256l1.62,3.24Z"/><path id="rgba_0_0_0_0.94_50" data-name="rgba 0 0 0 0.94 50" class="cls-4" d="M354.52,257.6l47.81.82-47.81.81Z"/><path id="rgba_0_0_0_0.94_51" data-name="rgba 0 0 0 0.94 51" class="cls-4" d="M62.89,267.32l17.82,19.44Z"/><path id="rgba_0_0_0_0.94_52" data-name="rgba 0 0 0 0.94 52" class="cls-4" d="M293,268.94l-17.82,19.44Z"/><path id="rgba_0_0_0_0.94_53" data-name="rgba 0 0 0 0.94 53" class="cls-4" d="M113.12,280.28l4.86,6.48Z"/><path id="rgba_0_0_0_0.94_54" data-name="rgba 0 0 0 0.94 54" class="cls-4" d="M244.35,281.9l-4.86,6.48Z"/><path id="rgba_0_0_0_0.94_55" data-name="rgba 0 0 0 0.94 55" class="cls-4" d="M126.08,291.62l3.24,4.87Z"/><path id="rgba_0_0_0_0.94_56" data-name="rgba 0 0 0 0.94 56" class="cls-4" d="M231.39,293.24l-1.62,3.25Z"/><path id="rgba_0_0_0_0.94_57" data-name="rgba 0 0 0 0.94 57" class="cls-4" d="M93.68,296.49,98.54,303Z"/><path id="rgba_0_0_0_0.94_58" data-name="rgba 0 0 0 0.94 58" class="cls-4" d="M263.79,296.49l-6.48,8.1Z"/><path id="rgba_0_0_0_0.94_59" data-name="rgba 0 0 0 0.94 59" class="cls-4" d="M135.8,299.72l3.24,4.87Z"/><path id="rgba_0_0_0_0.94_60" data-name="rgba 0 0 0 0.94 60" class="cls-4" d="M223.29,299.72,221.67,303Z"/><path id="rgba_0_0_0_0.94_61" data-name="rgba 0 0 0 0.94 61" class="cls-4" d="M215.18,306.2l-1.62,3.25Z"/><path id="rgba_0_0_0_0.94_62" data-name="rgba 0 0 0 0.94 62" class="cls-4" d="M106.64,307.82l3.24,4.87Z"/><path id="rgba_0_0_0_0.94_63" data-name="rgba 0 0 0 0.94 63" class="cls-4" d="M145.52,307.82l1.62,3.25Z"/><path id="rgba_0_0_0_0.94_64" data-name="rgba 0 0 0 0.94 64" class="cls-4" d="M249.21,309.45,246,314.31Z"/><path id="rgba_0_0_0_0.94_65" data-name="rgba 0 0 0 0.94 65" class="cls-4" d="M208.7,311.07l-1.62,3.24Z"/><path id="rgba_0_0_0_0.94_66" data-name="rgba 0 0 0 0.94 66" class="cls-4" d="M152,312.69l1.62,3.24Z"/><path id="rgba_0_0_0_0.94_67" data-name="rgba 0 0 0 0.94 67" class="cls-4" d="M118,317.55l1.62,3.24Z"/><path id="rgba_0_0_0_0.94_68" data-name="rgba 0 0 0 0.94 68" class="cls-4" d="M239.49,317.55l-3.24,4.86Z"/><path id="rgba_0_0_0_0.94_69" data-name="rgba 0 0 0 0.94 69" class="cls-4" d="M160.1,319.17l1.62,3.24Z"/><path id="rgba_0_0_0_0.94_70" data-name="rgba 0 0 0 0.94 70" class="cls-4" d="M195.74,320.78,194.12,324Z"/><path id="rgba_0_0_0_0.94_71" data-name="rgba 0 0 0 0.94 71" class="cls-4" d="M126.08,324l1.62,3.24Z"/><path id="rgba_0_0_0_0.94_72" data-name="rgba 0 0 0 0.94 72" class="cls-4" d="M166.58,324l1.62,3.24Z"/><path id="rgba_0_0_0_0.94_73" data-name="rgba 0 0 0 0.94 73" class="cls-4" d="M231.39,324l-3.24,4.86Z"/><path id="rgba_0_0_0_0.94_74" data-name="rgba 0 0 0 0.94 74" class="cls-4" d="M189.26,325.65l-1.62,3.24Z"/><path id="rgba_0_0_0_0.94_75" data-name="rgba 0 0 0 0.94 75" class="cls-4" d="M173.06,328.89l1.62,3.24Z"/><path id="rgba_0_0_0_0.94_76" data-name="rgba 0 0 0 0.94 76" class="cls-4" d="M134.18,330.51l1.62,3.24Z"/><path id="rgba_0_0_0_0.94_77" data-name="rgba 0 0 0 0.94 77" class="cls-4" d="M223.29,330.51l-3.24,4.86Z"/><path id="rgba_0_0_0_0.94_78" data-name="rgba 0 0 0 0.94 78" class="cls-4" d="M142.28,337l1.62,3.24Z"/><path id="rgba_0_0_0_0.94_79" data-name="rgba 0 0 0 0.94 79" class="cls-4" d="M215.18,337l-1.62,3.24Z"/><path id="rgba_0_0_0_0.94_80" data-name="rgba 0 0 0 0.94 80" class="cls-4" d="M148.76,341.85l1.62,3.24Z"/><path id="rgba_0_0_0_0.94_81" data-name="rgba 0 0 0 0.94 81" class="cls-4" d="M208.7,341.85l-1.62,3.24Z"/><path id="rgba_0_0_0_0.94_82" data-name="rgba 0 0 0 0.94 82" class="cls-4" d="M155.24,346.71l1.62,3.24Z"/><path id="rgba_0_0_0_0.94_83" data-name="rgba 0 0 0 0.94 83" class="cls-4" d="M202.22,346.71,200.6,350Z"/><path id="rgba_0_0_0_0.94_84" data-name="rgba 0 0 0 0.94 84" class="cls-4" d="M161.72,351.57l1.62,3.24Z"/><path id="rgba_0_0_0_0.94_85" data-name="rgba 0 0 0 0.94 85" class="cls-4" d="M189.26,356.43l-1.62,3.24Z"/><path id="rgba_0_0_0_0.94_86" data-name="rgba 0 0 0 0.94 86" class="cls-4" d="M173.06,359.67l1.62,3.24Z"/><path id="rgba_0_0_0" data-name="rgba 0 0 0" class="cls-4" d="M.52,0H415.27V414.76H.52V167.68H2.14L7,190.37l13,25.92a355.68,355.68,0,0,0,60.75,72.1,670.09,670.09,0,0,0,98.83,77.76,744.43,744.43,0,0,0,115.85-96.4l3.23-6.5-12.15-25.11L246,280.27a449.08,449.08,0,0,1-68,51.85A673.83,673.83,0,0,1,70.18,237.33L41,196.85,29.68,170.93,28.06,153.1l-1.62-1.6,4.86-25.92a68.91,68.91,0,0,1,21.89-30Q71.18,78.78,105,77.8q2.91,4.53,13,1.62l17.82,6.48,21.89,17,19.44,34.83q4.38,1.78,3.24-2.43L195,109.39l17-17q16.37-13.62,45.36-14.58l24.3,4.86a76.12,76.12,0,0,1,33.22,23.49l11.35,19.46,5.67,26.73,18.64-26.73,1.62-6.48a103.92,103.92,0,0,0-33.22-46.18A97,97,0,0,0,280,53.48l-8.1-1.64h-32.4A101.37,101.37,0,0,0,182,86.68l-2.43,4Q176,92,177.11,88.28a104.45,104.45,0,0,0-43-31.57Q116,48.11,85.58,51.84A103.63,103.63,0,0,0,23.2,86.68,85.3,85.3,0,0,0,1.31,134.49ZM271.08,110.17l-38.88,94-22.68-32.4-4.86-3.24-6.48,17.82-24.31,45.37v1.61H130.13v27.54h59.94L211.13,222l25.92,38.88,37.27-82.63,34,81q-1.62,3.24,3.24,1.62l29.17-45.36,13,45.36h48.59l1.62-1.62V233.3H373.15l-3.24-16.2-19.44-61.57q1.62-6.48-3.24-4.86l-32.4,53.46-40.5-90.72Q275.93,108.55,271.08,110.17Z"/><path id="rgba_0_0_0_0.65_" data-name="rgba 0 0 0 0.65 " class="cls-4" d="M88.81,51.84l5.67.82-5.67.81Z"/><path id="rgba_0_0_0_0.65_2" data-name="rgba 0 0 0 0.65 2" class="cls-4" d="M109.87,51.84l4,.82-4,.81Z"/><path id="rgba_0_0_0_0.65_3" data-name="rgba 0 0 0 0.65 3" class="cls-4" d="M244.35,51.84l4,.82-4,.81Z"/><path id="rgba_0_0_0_0.65_4" data-name="rgba 0 0 0 0.65 4" class="cls-4" d="M263.79,51.84l5.67.82-5.67.81Z"/><path id="rgba_0_0_0_0.65_5" data-name="rgba 0 0 0 0.65 5" class="cls-4" d="M152,66.42l1.62,3.25Z"/><path id="rgba_0_0_0_0.65_6" data-name="rgba 0 0 0 0.65 6" class="cls-4" d="M309.15,66.42l1.62,3.25Z"/><path id="rgba_0_0_0_0.65_7" data-name="rgba 0 0 0 0.65 7" class="cls-4" d="M45.07,68l-1.62,3.25Z"/><path id="rgba_0_0_0_0.65_8" data-name="rgba 0 0 0 0.65 8" class="cls-4" d="M314,69.67l1.62,3.24Z"/><path id="rgba_0_0_0_0.65_9" data-name="rgba 0 0 0 0.65 9" class="cls-4" d="M158.48,71.29l1.62,3.24Z"/><path id="rgba_0_0_0_0.65_10" data-name="rgba 0 0 0 0.65 10" class="cls-4" d="M199,71.29l-3.24,4.86Z"/><path id="rgba_0_0_0_0.65_11" data-name="rgba 0 0 0 0.65 11" class="cls-4" d="M38.59,72.9,37,76.15Z"/><path id="rgba_0_0_0_0.65_12" data-name="rgba 0 0 0 0.65 12" class="cls-4" d="M322.11,76.15l8.1,9.72Z"/><path id="rgba_0_0_0_0.65_13" data-name="rgba 0 0 0 0.65 13" class="cls-4" d="M263.79,77.77l4,.81-4,.81Z"/><path id="rgba_0_0_0_0.65_14" data-name="rgba 0 0 0 0.65 14" class="cls-4" d="M182.79,87.48l-3.24,4.87-4-2.43,2.43.81Z"/><path id="rgba_0_0_0_0.65_15" data-name="rgba 0 0 0 0.65 15" class="cls-4" d="M22.39,89.11l-1.62,3.24Z"/><path id="rgba_0_0_0_0.65_16" data-name="rgba 0 0 0 0.65 16" class="cls-4" d="M59.65,89.11,58,92.35Z"/><path id="rgba_0_0_0_0.65_17" data-name="rgba 0 0 0 0.65 17" class="cls-4" d="M211.94,90.73,210.33,94Z"/><path id="rgba_0_0_0_0.65_18" data-name="rgba 0 0 0 0.65 18" class="cls-4" d="M335.08,90.73,336.69,94Z"/><path id="rgba_0_0_0_0.65_19" data-name="rgba 0 0 0 0.65 19" class="cls-4" d="M53.17,94l-11.34,13Z"/><path id="rgba_0_0_0_0.65_20" data-name="rgba 0 0 0 0.65 20" class="cls-4" d="M304.29,94l11.34,13Z"/><path id="rgba_0_0_0_0.65_21" data-name="rgba 0 0 0 0.65 21" class="cls-4" d="M152,95.59l4.86,6.48Z"/><path id="rgba_0_0_0_0.65_22" data-name="rgba 0 0 0 0.65 22" class="cls-4" d="M161.72,106.93l1.62,3.24Z"/><path id="rgba_0_0_0_0.65_23" data-name="rgba 0 0 0 0.65 23" class="cls-4" d="M165,111.79l1.62,3.24Z"/><path id="rgba_0_0_0_0.65_24" data-name="rgba 0 0 0 0.65 24" class="cls-4" d="M1.33,137.71l.81,4H.52Z"/><path id="rgba_0_0_0_0.65_25" data-name="rgba 0 0 0 0.65 25" class="cls-4" d="M338.31,141l-1.62,3.25Z"/><path id="rgba_0_0_0_0.65_26" data-name="rgba 0 0 0 0.65 26" class="cls-4" d="M335.08,145.81l-1.62,3.24Z"/><path id="rgba_0_0_0_0.65_27" data-name="rgba 0 0 0 0.65 27" class="cls-4" d="M344.79,157.15l-1.62,3.25Z"/><path id="rgba_0_0_0_0.65_28" data-name="rgba 0 0 0 0.65 28" class="cls-4" d="M1.33,158.77l.81,4H.52Z"/><path id="rgba_0_0_0_0.65_29" data-name="rgba 0 0 0 0.65 29" class="cls-4" d="M333.46,175l-1.62,3.25Z"/><path id="rgba_0_0_0_0.65_30" data-name="rgba 0 0 0 0.65 30" class="cls-4" d="M325.35,187.94l-1.62,3.24Z"/><path id="rgba_0_0_0_0.65_31" data-name="rgba 0 0 0 0.65 31" class="cls-4" d="M315.63,202.52,314,205.76Z"/><path id="rgba_0_0_0_0.65_32" data-name="rgba 0 0 0 0.65 32" class="cls-4" d="M48.31,209l1.62,3.24Z"/><path id="rgba_0_0_0_0.65_33" data-name="rgba 0 0 0 0.65 33" class="cls-4" d="M56.41,220.34,58,223.58Z"/><path id="rgba_0_0_0_0.65_34" data-name="rgba 0 0 0 0.65 34" class="cls-4" d="M28.87,226.82l1.62,3.24Z"/><path id="rgba_0_0_0_0.65_35" data-name="rgba 0 0 0 0.65 35" class="cls-4" d="M62.89,228.44l1.62,3.24Z"/><path id="rgba_0_0_0_0.65_36" data-name="rgba 0 0 0 0.65 36" class="cls-4" d="M32.11,231.68l1.62,3.24Z"/><path id="rgba_0_0_0_0.65_37" data-name="rgba 0 0 0 0.65 37" class="cls-4" d="M403.12,233.3l.82,25.11h-1.63Z"/><path id="rgba_0_0_0_0.65_38" data-name="rgba 0 0 0 0.65 38" class="cls-4" d="M69.37,236.54,74.23,243Z"/><path id="rgba_0_0_0_0.65_39" data-name="rgba 0 0 0 0.65 39" class="cls-4" d="M37,238.16l1.62,3.25Z"/><path id="rgba_0_0_0_0.65_40" data-name="rgba 0 0 0 0.65 40" class="cls-4" d="M323.73,238.16l-1.62,3.25Z"/><path id="rgba_0_0_0_0.65_41" data-name="rgba 0 0 0 0.65 41" class="cls-4" d="M281.61,244.64l-6.48,8.1Z"/><path id="rgba_0_0_0_0.65_42" data-name="rgba 0 0 0 0.65 42" class="cls-4" d="M43.45,246.26l3.24,4.86Z"/><path id="rgba_0_0_0_0.65_43" data-name="rgba 0 0 0 0.65 43" class="cls-4" d="M53.17,257.6l8.1,9.73Z"/><path id="rgba_0_0_0_0.65_44" data-name="rgba 0 0 0 0.65 44" class="cls-4" d="M296.19,265.7,294.57,269Z"/><path id="rgba_0_0_0_0.65_45" data-name="rgba 0 0 0 0.65 45" class="cls-4" d="M255.69,270.56,246,281.91Z"/><path id="rgba_0_0_0_0.65_46" data-name="rgba 0 0 0 0.65 46" class="cls-4" d="M105,272.18l6.48,8.1Z"/><path id="rgba_0_0_0_0.65_47" data-name="rgba 0 0 0 0.65 47" class="cls-4" d="M82.33,286.76l9.73,11.35Z"/><path id="rgba_0_0_0_0.65_48" data-name="rgba 0 0 0 0.65 48" class="cls-4" d="M121.22,286.76l3.24,4.86Z"/><path id="rgba_0_0_0_0.65_49" data-name="rgba 0 0 0 0.65 49" class="cls-4" d="M236.25,288.38,233,293.24Z"/><path id="rgba_0_0_0_0.65_50" data-name="rgba 0 0 0 0.65 50" class="cls-4" d="M273.51,288.38l-8.1,9.73Z"/><path id="rgba_0_0_0_0.65_51" data-name="rgba 0 0 0 0.65 51" class="cls-4" d="M132.56,296.49l1.62,3.24Z"/><path id="rgba_0_0_0_0.65_52" data-name="rgba 0 0 0 0.65 52" class="cls-4" d="M226.52,296.49l-1.61,3.24Z"/><path id="rgba_0_0_0_0.65_53" data-name="rgba 0 0 0 0.65 53" class="cls-4" d="M100.16,303l4.86,6.48Z"/><path id="rgba_0_0_0_0.65_54" data-name="rgba 0 0 0 0.65 54" class="cls-4" d="M140.66,303l3.24,4.86Z"/><path id="rgba_0_0_0_0.65_55" data-name="rgba 0 0 0 0.65 55" class="cls-4" d="M218.43,303l-1.62,3.24Z"/><path id="rgba_0_0_0_0.65_56" data-name="rgba 0 0 0 0.65 56" class="cls-4" d="M255.69,304.59l-3.24,4.86Z"/><path id="rgba_0_0_0_0.65_57" data-name="rgba 0 0 0 0.65 57" class="cls-4" d="M211.94,307.82l-1.61,3.25Z"/><path id="rgba_0_0_0_0.65_58" data-name="rgba 0 0 0 0.65 58" class="cls-4" d="M148.76,309.45l1.62,3.24Z"/><path id="rgba_0_0_0_0.65_59" data-name="rgba 0 0 0 0.65 59" class="cls-4" d="M111.5,312.69l3.24,4.86Z"/><path id="rgba_0_0_0_0.65_60" data-name="rgba 0 0 0 0.65 60" class="cls-4" d="M205.46,312.69l-1.61,3.24Z"/><path id="rgba_0_0_0_0.65_61" data-name="rgba 0 0 0 0.65 61" class="cls-4" d="M244.35,314.3l-1.62,3.25Z"/><path id="rgba_0_0_0_0.65_62" data-name="rgba 0 0 0 0.65 62" class="cls-4" d="M156.86,315.93l1.62,3.24Z"/><path id="rgba_0_0_0_0.65_63" data-name="rgba 0 0 0 0.65 63" class="cls-4" d="M199,317.55l-1.62,3.24Z"/><path id="rgba_0_0_0_0.65_64" data-name="rgba 0 0 0 0.65 64" class="cls-4" d="M121.22,320.78l3.24,4.87Z"/><path id="rgba_0_0_0_0.65_65" data-name="rgba 0 0 0 0.65 65" class="cls-4" d="M163.34,320.78,165,324Z"/><path id="rgba_0_0_0_0.65_66" data-name="rgba 0 0 0 0.65 66" class="cls-4" d="M192.5,322.41l-1.62,3.24Z"/><path id="rgba_0_0_0_0.65_67" data-name="rgba 0 0 0 0.65 67" class="cls-4" d="M234.62,322.41,233,325.65Z"/><path id="rgba_0_0_0_0.65_68" data-name="rgba 0 0 0 0.65 68" class="cls-4" d="M169.82,325.65l1.62,3.24Z"/><path id="rgba_0_0_0_0.65_69" data-name="rgba 0 0 0 0.65 69" class="cls-4" d="M129.32,327.27l3.24,4.86Z"/><path id="rgba_0_0_0_0.65_70" data-name="rgba 0 0 0 0.65 70" class="cls-4" d="M186,327.27l-1.62,3.24Z"/><path id="rgba_0_0_0_0.65_71" data-name="rgba 0 0 0 0.65 71" class="cls-4" d="M226.52,328.89l-1.61,3.24Z"/><path id="rgba_0_0_0_0.65_72" data-name="rgba 0 0 0 0.65 72" class="cls-4" d="M176.3,330.51l4,2.43-2.43.81Z"/><path id="rgba_0_0_0_0.65_73" data-name="rgba 0 0 0 0.65 73" class="cls-4" d="M137.42,333.75,139,337Z"/><path id="rgba_0_0_0_0.65_74" data-name="rgba 0 0 0 0.65 74" class="cls-4" d="M218.43,335.37l-1.62,3.24Z"/><path id="rgba_0_0_0_0.65_75" data-name="rgba 0 0 0 0.65 75" class="cls-4" d="M145.52,340.23l1.62,3.24Z"/><path id="rgba_0_0_0_0.65_76" data-name="rgba 0 0 0 0.65 76" class="cls-4" d="M211.94,340.23l-1.61,3.24Z"/><path id="rgba_0_0_0_0.65_77" data-name="rgba 0 0 0 0.65 77" class="cls-4" d="M152,345.09l1.62,3.24Z"/><path id="rgba_0_0_0_0.65_78" data-name="rgba 0 0 0 0.65 78" class="cls-4" d="M205.46,345.09l-1.61,3.24Z"/><path id="rgba_0_0_0_0.65_79" data-name="rgba 0 0 0 0.65 79" class="cls-4" d="M199,350l-1.62,3.24Z"/><path id="rgba_0_0_0_0.65_80" data-name="rgba 0 0 0 0.65 80" class="cls-4" d="M192.5,354.81l-1.62,3.24Z"/><path id="rgba_0_0_0_0.65_81" data-name="rgba 0 0 0 0.65 81" class="cls-4" d="M169.82,358.05l1.62,3.24Z"/><path id="rgba_0_0_0_0.23_" data-name="rgba 0 0 0 0.23 " class="cls-4" d="M114.74,51.84l4,.82-4,.81Z"/><path id="rgba_0_0_0_0.23_2" data-name="rgba 0 0 0 0.23 2" class="cls-4" d="M239.49,51.84l4,.82-4,.81Z"/><path id="rgba_0_0_0_0.23_3" data-name="rgba 0 0 0 0.23 3" class="cls-4" d="M207.08,64.81l-1.62,3.24Z"/><path id="rgba_0_0_0_0.23_4" data-name="rgba 0 0 0 0.23 4" class="cls-4" d="M155.24,68l1.62,3.25Z"/><path id="rgba_0_0_0_0.23_5" data-name="rgba 0 0 0 0.23 5" class="cls-4" d="M202.22,68l-1.62,3.25Z"/><path id="rgba_0_0_0_0.23_6" data-name="rgba 0 0 0 0.23 6" class="cls-4" d="M41.83,69.67l-1.62,3.24Z"/><path id="rgba_0_0_0_0.23_7" data-name="rgba 0 0 0 0.23 7" class="cls-4" d="M161.72,72.9,176.3,89.11Z"/><path id="rgba_0_0_0_0.23_8" data-name="rgba 0 0 0 0.23 8" class="cls-4" d="M318.88,72.9l1.62,3.25Z"/><path id="rgba_0_0_0_0.23_9" data-name="rgba 0 0 0 0.23 9" class="cls-4" d="M194.13,74.52l-11.34,13Z"/><path id="rgba_0_0_0_0.23_10" data-name="rgba 0 0 0 0.23 10" class="cls-4" d="M33.73,76.15,24,87.49Z"/><path id="rgba_0_0_0_0.23_11" data-name="rgba 0 0 0 0.23 11" class="cls-4" d="M92.06,77.77l5.67.81-5.67.81Z"/><path id="rgba_0_0_0_0.23_12" data-name="rgba 0 0 0 0.23 12" class="cls-4" d="M106.64,77.77l5.67.81-5.67.81Z"/><path id="rgba_0_0_0_0.23_13" data-name="rgba 0 0 0 0.23 13" class="cls-4" d="M246,77.77l5.66.81-5.66.81Z"/><path id="rgba_0_0_0_0.23_14" data-name="rgba 0 0 0 0.23 14" class="cls-4" d="M258.93,77.77l4,.81-4,.81Z"/><path id="rgba_0_0_0_0.23_15" data-name="rgba 0 0 0 0.23 15" class="cls-4" d="M331.84,85.87l3.24,4.86Z"/><path id="rgba_0_0_0_0.23_16" data-name="rgba 0 0 0 0.23 16" class="cls-4" d="M215.18,89.11l-1.62,3.24Z"/><path id="rgba_0_0_0_0.23_17" data-name="rgba 0 0 0 0.23 17" class="cls-4" d="M56.41,92.35l-1.62,3.24Z"/><path id="rgba_0_0_0_0.23_18" data-name="rgba 0 0 0 0.23 18" class="cls-4" d="M147.14,92.35l3.24,4.86Z"/><path id="rgba_0_0_0_0.23_19" data-name="rgba 0 0 0 0.23 19" class="cls-4" d="M301.05,92.35l1.62,3.24Z"/><path id="rgba_0_0_0_0.23_20" data-name="rgba 0 0 0 0.23 20" class="cls-4" d="M208.71,94l-11.35,13Z"/><path id="rgba_0_0_0_0.23_21" data-name="rgba 0 0 0 0.23 21" class="cls-4" d="M158.48,103.69l1.62,3.24Z"/><path id="rgba_0_0_0_0.23_22" data-name="rgba 0 0 0 0.23 22" class="cls-4" d="M41.83,106.93l-1.62,3.24Z"/><path id="rgba_0_0_0_0.23_23" data-name="rgba 0 0 0 0.23 23" class="cls-4" d="M315.63,106.93l1.62,3.24Z"/><path id="rgba_0_0_0_0.23_24" data-name="rgba 0 0 0 0.23 24" class="cls-4" d="M351.28,118.27l.81,4h-1.62Z"/><path id="rgba_0_0_0_0.23_25" data-name="rgba 0 0 0 0.23 25" class="cls-4" d="M349.66,124.75,348,128Z"/><path id="rgba_0_0_0_0.23_26" data-name="rgba 0 0 0 0.23 26" class="cls-4" d="M346.42,129.61l-1.62,3.24Z"/><path id="rgba_0_0_0_0.23_27" data-name="rgba 0 0 0 0.23 27" class="cls-4" d="M343.17,134.47l-1.61,3.25Z"/><path id="rgba_0_0_0_0.23_28" data-name="rgba 0 0 0 0.23 28" class="cls-4" d="M27.25,141l.81,8.91H26.44Z"/><path id="rgba_0_0_0_0.23_29" data-name="rgba 0 0 0 0.23 29" class="cls-4" d="M330.22,141l.81,4h-1.62Z"/><path id="rgba_0_0_0_0.23_30" data-name="rgba 0 0 0 0.23 30" class="cls-4" d="M333.46,149.05l-1.62,3.25Z"/><path id="rgba_0_0_0_0.23_31" data-name="rgba 0 0 0 0.23 31" class="cls-4" d="M27.25,152.29l.81,7.29H26.44Z"/><path id="rgba_0_0_0_0.23_32" data-name="rgba 0 0 0 0.23 32" class="cls-4" d="M339.94,163.63l-1.62,3.25Z"/><path id="rgba_0_0_0_0.23_33" data-name="rgba 0 0 0 0.23 33" class="cls-4" d="M205.46,168.49l4,2.44-2.43-.82Z"/><path id="rgba_0_0_0_0.23_34" data-name="rgba 0 0 0 0.23 34" class="cls-4" d="M210.33,173.36l1.61,3.24Z"/><path id="rgba_0_0_0_0.23_35" data-name="rgba 0 0 0 0.23 35" class="cls-4" d="M273.51,176.59l-1.62,3.25Z"/><path id="rgba_0_0_0_0.23_36" data-name="rgba 0 0 0 0.23 36" class="cls-4" d="M213.56,178.21l1.62,3.25Z"/><path id="rgba_0_0_0_0.23_37" data-name="rgba 0 0 0 0.23 37" class="cls-4" d="M328.59,181.46,327,184.7Z"/><path id="rgba_0_0_0_0.23_38" data-name="rgba 0 0 0 0.23 38" class="cls-4" d="M220,187.94l1.62,3.24Z"/><path id="rgba_0_0_0_0.23_39" data-name="rgba 0 0 0 0.23 39" class="cls-4" d="M223.29,192.8l1.62,3.24Z"/><path id="rgba_0_0_0_0.23_40" data-name="rgba 0 0 0 0.23 40" class="cls-4" d="M320.5,194.42l-1.62,3.24Z"/><path id="rgba_0_0_0_0.23_41" data-name="rgba 0 0 0 0.23 41" class="cls-4" d="M226.52,197.65l1.62,3.25Z"/><path id="rgba_0_0_0_0.23_42" data-name="rgba 0 0 0 0.23 42" class="cls-4" d="M229.77,202.52l1.62,3.24Z"/><path id="rgba_0_0_0_0.23_43" data-name="rgba 0 0 0 0.23 43" class="cls-4" d="M339.94,213.86l-1.62,3.24Z"/><path id="rgba_0_0_0_0.23_44" data-name="rgba 0 0 0 0.23 44" class="cls-4" d="M54.79,217.1l1.62,3.24Z"/><path id="rgba_0_0_0_0.23_45" data-name="rgba 0 0 0 0.23 45" class="cls-4" d="M59.65,223.58l1.62,3.24Z"/><path id="rgba_0_0_0_0.23_46" data-name="rgba 0 0 0 0.23 46" class="cls-4" d="M66.14,231.68l3.24,4.86Z"/><path id="rgba_0_0_0_0.23_47" data-name="rgba 0 0 0 0.23 47" class="cls-4" d="M328.59,231.68,327,234.92Z"/><path id="rgba_0_0_0_0.23_48" data-name="rgba 0 0 0 0.23 48" class="cls-4" d="M33.73,234.92l1.62,3.24Z"/><path id="rgba_0_0_0_0.23_49" data-name="rgba 0 0 0 0.23 49" class="cls-4" d="M286.47,238.16l-4.86,6.48Z"/><path id="rgba_0_0_0_0.23_50" data-name="rgba 0 0 0 0.23 50" class="cls-4" d="M40.21,243l1.62,3.24Z"/><path id="rgba_0_0_0_0.23_51" data-name="rgba 0 0 0 0.23 51" class="cls-4" d="M75.85,243l27.54,29.16Z"/><path id="rgba_0_0_0_0.23_52" data-name="rgba 0 0 0 0.23 52" class="cls-4" d="M46.69,251.12l4.87,6.48Z"/><path id="rgba_0_0_0_0.23_53" data-name="rgba 0 0 0 0.23 53" class="cls-4" d="M273.51,252.74l-16.2,17.82Z"/><path id="rgba_0_0_0_0.23_54" data-name="rgba 0 0 0 0.23 54" class="cls-4" d="M190.88,257.6l-1.61,3.25L130.13,260l59.14-.81Z"/><path id="rgba_0_0_0_0.23_55" data-name="rgba 0 0 0 0.23 55" class="cls-4" d="M234.63,257.6l4,.82Q235.27,263.76,234.63,257.6Z"/><path id="rgba_0_0_0_0.23_56" data-name="rgba 0 0 0 0.23 56" class="cls-4" d="M354.52,259.22l47.81.81-47.81.82Z"/><path id="rgba_0_0_0_0.23_57" data-name="rgba 0 0 0 0.23 57" class="cls-4" d="M61.27,267.32l19.44,21.06Z"/><path id="rgba_0_0_0_0.23_58" data-name="rgba 0 0 0 0.23 58" class="cls-4" d="M294.57,268.94l-21.06,22.68Z"/><path id="rgba_0_0_0_0.23_59" data-name="rgba 0 0 0 0.23 59" class="cls-4" d="M113.12,278.66l6.48,8.1Z"/><path id="rgba_0_0_0_0.23_60" data-name="rgba 0 0 0 0.23 60" class="cls-4" d="M244.35,280.28l-6.48,8.1Z"/><path id="rgba_0_0_0_0.23_61" data-name="rgba 0 0 0 0.23 61" class="cls-4" d="M126.08,290l4.86,6.48Z"/><path id="rgba_0_0_0_0.23_62" data-name="rgba 0 0 0 0.23 62" class="cls-4" d="M231.39,291.62l-3.24,4.87Z"/><path id="rgba_0_0_0_0.23_63" data-name="rgba 0 0 0 0.23 63" class="cls-4" d="M93.68,298.11l4.86,6.48Z"/><path id="rgba_0_0_0_0.23_64" data-name="rgba 0 0 0 0.23 64" class="cls-4" d="M223.29,298.11,220.05,303Z"/><path id="rgba_0_0_0_0.23_65" data-name="rgba 0 0 0 0.23 65" class="cls-4" d="M263.79,298.11l-4.86,6.48Z"/><path id="rgba_0_0_0_0.23_66" data-name="rgba 0 0 0 0.23 66" class="cls-4" d="M137.42,299.72,139,303Z"/><path id="rgba_0_0_0_0.23_67" data-name="rgba 0 0 0 0.23 67" class="cls-4" d="M215.18,304.59l-1.62,3.24Z"/><path id="rgba_0_0_0_0.23_68" data-name="rgba 0 0 0 0.23 68" class="cls-4" d="M145.52,306.2l1.62,3.25Z"/><path id="rgba_0_0_0_0.23_69" data-name="rgba 0 0 0 0.23 69" class="cls-4" d="M106.64,309.45l3.24,4.86Z"/><path id="rgba_0_0_0_0.23_70" data-name="rgba 0 0 0 0.23 70" class="cls-4" d="M208.7,309.45l-1.62,3.24Z"/><path id="rgba_0_0_0_0.23_71" data-name="rgba 0 0 0 0.23 71" class="cls-4" d="M250.83,309.45l-3.23,4.86Z"/><path id="rgba_0_0_0_0.23_72" data-name="rgba 0 0 0 0.23 72" class="cls-4" d="M153.62,312.69l1.62,3.24Z"/><path id="rgba_0_0_0_0.23_73" data-name="rgba 0 0 0 0.23 73" class="cls-4" d="M116.36,317.55l3.24,4.86Z"/><path id="rgba_0_0_0_0.23_74" data-name="rgba 0 0 0 0.23 74" class="cls-4" d="M160.1,317.55l1.62,3.24Z"/><path id="rgba_0_0_0_0.23_75" data-name="rgba 0 0 0 0.23 75" class="cls-4" d="M241.11,317.55l-3.24,4.86Z"/><path id="rgba_0_0_0_0.23_76" data-name="rgba 0 0 0 0.23 76" class="cls-4" d="M195.74,319.17l-1.62,3.24Z"/><path id="rgba_0_0_0_0.23_77" data-name="rgba 0 0 0 0.23 77" class="cls-4" d="M166.58,322.41l1.62,3.24Z"/><path id="rgba_0_0_0_0.23_78" data-name="rgba 0 0 0 0.23 78" class="cls-4" d="M189.26,324l-1.62,3.24Z"/><path id="rgba_0_0_0_0.23_79" data-name="rgba 0 0 0 0.23 79" class="cls-4" d="M126.08,325.65l1.62,3.24Z"/><path id="rgba_0_0_0_0.23_80" data-name="rgba 0 0 0 0.23 80" class="cls-4" d="M231.39,325.65l-3.24,4.86Z"/><path id="rgba_0_0_0_0.23_81" data-name="rgba 0 0 0 0.23 81" class="cls-4" d="M173.06,327.27l1.62,3.24Z"/><path id="rgba_0_0_0_0.23_82" data-name="rgba 0 0 0 0.23 82" class="cls-4" d="M182.78,328.89l-1.62,3.24Z"/><path id="rgba_0_0_0_0.23_83" data-name="rgba 0 0 0 0.23 83" class="cls-4" d="M134.18,332.13l1.62,3.24Z"/><path id="rgba_0_0_0_0.23_84" data-name="rgba 0 0 0 0.23 84" class="cls-4" d="M223.29,332.13l-1.62,3.24Z"/><path id="rgba_0_0_0_0.23_85" data-name="rgba 0 0 0 0.23 85" class="cls-4" d="M140.66,337l1.62,3.24Z"/><path id="rgba_0_0_0_0.23_86" data-name="rgba 0 0 0 0.23 86" class="cls-4" d="M215.18,338.61l-1.62,3.24Z"/><path id="rgba_0_0_0_0.23_87" data-name="rgba 0 0 0 0.23 87" class="cls-4" d="M148.76,343.47l1.62,3.24Z"/><path id="rgba_0_0_0_0.23_88" data-name="rgba 0 0 0 0.23 88" class="cls-4" d="M208.7,343.47l-1.62,3.24Z"/><path id="rgba_0_0_0_0.23_89" data-name="rgba 0 0 0 0.23 89" class="cls-4" d="M202.22,348.33l-1.62,3.24Z"/><path id="rgba_0_0_0_0.23_90" data-name="rgba 0 0 0 0.23 90" class="cls-4" d="M160.1,351.57l1.62,3.24Z"/><path id="rgba_0_0_0_0.23_91" data-name="rgba 0 0 0 0.23 91" class="cls-4" d="M195.74,353.19l-1.62,3.24Z"/><path id="rgba_0_0_0_0.23_92" data-name="rgba 0 0 0 0.23 92" class="cls-4" d="M166.58,356.43l1.62,3.24Z"/><path id="rgba_0_0_0_0.23_93" data-name="rgba 0 0 0 0.23 93" class="cls-4" d="M189.26,358.05l-1.62,3.24Z"/><path id="rgba_0_0_0_0.23_94" data-name="rgba 0 0 0 0.23 94" class="cls-4" d="M184.4,361.29l-1.61,3.25Z"/><path id="rgba_0_0_0-2" data-name="rgba 0 0 0" class="cls-5" d="M87.2,53.46h27.54l19.44,4.87,22.68,13,22.69,21.06a114.17,114.17,0,0,1,43.74-34l19.44-4.87h27.54Q310.13,60.75,331,86.68a86.47,86.47,0,0,1,19.44,35.64l-17,25.11-7.29-26.73a86.91,86.91,0,0,0-25.11-29.95L276.75,79.39l-8.1-1.62H241.11a72,72,0,0,0-44.55,26.73l-16.2,30q-4.37,1.77-3.24-2.44a90.86,90.86,0,0,0-28.35-39.69L129.33,81l-13-3.24H87.2a74.65,74.65,0,0,0-47.82,30L28.06,128.8,24.82,145v11.35l6.48,24.3L49.12,213a373.09,373.09,0,0,0,54.27,60.77,517.82,517.82,0,0,0,76.15,59.95,566.57,566.57,0,0,0,96.4-80.2l10.53-12.15L297,264.87a713.11,713.11,0,0,1-117.46,99.66A683.34,683.34,0,0,1,54,258.41,253.23,253.23,0,0,1,10.22,193.6l-8.1-25.92L.52,148.24l1.62-1.62L3.76,127.2,16.72,98,38.61,74.55,62.91,60Z"/><path id="rgba_0_0_0_1_2" data-name="rgba 0 0 0 1 2" class="cls-5" d="M273.51,113.41l34.83,83.43,5.67,8.91q3.72,1.31,2.43-2.43L348,153.91l7.29,18.63,14.58,55.09,4,7.29h28.35V257.6H354.48l-.82-5.66-11.34-37.27-2.43-2.43L311.54,257.6q-4.38,1.78-3.24-2.43l-34-80.19q-4.86-1.95-3.24,4L236.25,257.6l-25.92-37.27q-3.57-1.14-2.43,2.43L189.27,257.6H131.75V234.92h41.31l4-4,30-59.14,24.35,35.63Z"/></g></g></g></g></g></svg>