<svg xmlns="http://www.w3.org/2000/svg" xmlns:xlink="http://www.w3.org/1999/xlink" viewBox="0 0 639.14 363.89"><defs><style>.cls-1{opacity:0.29;}.cls-2{fill:url(#Gradiente_sem_nome);}.cls-10,.cls-3{fill:none;}.cls-3{stroke:#fff;}.cls-4{fill:url(#Gradiente_sem_nome_2);}.cls-5,.cls-6,.cls-7{fill:#fff;}.cls-12,.cls-6,.cls-7,.cls-8,.cls-9{isolation:isolate;}.cls-6{font-size:40px;}.cls-12,.cls-6,.cls-7,.cls-8{font-family:Poppins-Bold, Poppins;font-weight:700;}.cls-12,.cls-7{font-size:20px;}.cls-8,.cls-9{font-size:35px;}.cls-9{font-family:Poppins-Medium, Poppins;font-weight:500;}.cls-11{stroke:#000;}</style><linearGradient id="Gradiente_sem_nome" x1="-606.1" y1="-137.89" x2="-605.5" y2="-137.89" gradientTransform="translate(387497.26 50357.65) scale(639.13 363.89)" gradientUnits="userSpaceOnUse"><stop offset="0" stop-color="#f7f7ff"/><stop offset="1" stop-color="#8984ff"/></linearGradient><linearGradient id="Gradiente_sem_nome_2" x1="-606.1" y1="-140.05" x2="-605.5" y2="-140.05" gradientTransform="translate(386892.66 19932.67) scale(638.14 140.23)" gradientUnits="userSpaceOnUse"><stop offset="0" stop-color="#ff00e2"/><stop offset="1" stop-color="#0a00ff"/></linearGradient></defs><g id="Camada_2" data-name="Camada 2"><g id="Camada_1-2" data-name="Camada 1"><g id="Camada_2-2" data-name="Camada 2"><g id="Camada_1-2-2" data-name="Camada 1-2"><g id="Retângulo_7" data-name="Retângulo 7" class="cls-1"><rect class="cls-2" width="639.13" height="363.89" rx="60"/><rect class="cls-3" x="0.5" y="0.5" width="638.13" height="362.89" rx="59.5"/></g><g id="Interseção_3" data-name="Interseção 3"><path class="cls-4" d="M579.13,363.39H60A59.46,59.46,0,0,1,.5,304V223.16H638.64v80.73a59.23,59.23,0,0,1-10.17,33.27,59.48,59.48,0,0,1-49.34,26.23Z"/><path class="cls-5" d="M579.13,362.89a58.64,58.64,0,0,0,23-4.64,57.6,57.6,0,0,0,10-5.44,58.91,58.91,0,0,0,26-48.92V223.66H1v80.23a58.6,58.6,0,0,0,4.64,23,58,58,0,0,0,5.44,10A59.11,59.11,0,0,0,27,352.81a58,58,0,0,0,10,5.44,58.6,58.6,0,0,0,23,4.64H579.13m0,1H60a60,60,0,0,1-60-60V222.66H639.14v81.23a60,60,0,0,1-60,60Z"/></g><g id="LEANDRO_L_S" data-name="LEANDRO L S"><text class="cls-6" transform="translate(48.45 294.56)">Joao A Soares</text></g><g id="_" data-name=" "><text class="cls-7" transform="translate(48.45 326.56)">**************</text></g><g id="Componente_2_9" data-name="Componente 2 9"><g id="apollosaúde"><text class="cls-8" transform="translate(128.45 77.39)">apollo</text><text class="cls-9" transform="translate(241.22 77.39)">saúde</text></g><g id="Componente_1_1" data-name="Componente 1 1"><g id="Image_1" data-name="Image 1"><rect id="Sizing_Rectangle" data-name="Sizing Rectangle" class="cls-10" x="48.45" y="29.39" width="72" height="72"/><path id="rgba_0_0_0_0.94_" data-name="rgba 0 0 0 0.94 " class="cls-10" d="M64.9,38.39l2.39.14-2.39.14Z"/><path id="rgba_0_0_0_0.94_2" data-name="rgba 0 0 0 0.94 2" class="cls-10" d="M91.62,38.39l2.38.14-2.39.14Z"/><path id="rgba_0_0_0_0.94_3" data-name="rgba 0 0 0 0.94 3" class="cls-10" d="M62.65,38.67l.7.14-.7.14Z"/><path id="rgba_0_0_0_0.94_4" data-name="rgba 0 0 0 0.94 4" class="cls-10" d="M68.56,38.67l.7.14-.7.14Z"/><path id="rgba_0_0_0_0.94_5" data-name="rgba 0 0 0 0.94 5" class="cls-10" d="M89.65,38.67l.7.14-.7.14Z"/><path id="rgba_0_0_0_0.94_6" data-name="rgba 0 0 0 0.94 6" class="cls-10" d="M95.56,38.67l.7.14-.7.14Z"/><path id="rgba_0_0_0_0.94_7" data-name="rgba 0 0 0 0.94 7" class="cls-10" d="M83.47,41.48l-.29.57Z"/><path id="rgba_0_0_0_0.94_8" data-name="rgba 0 0 0 0.94 8" class="cls-10" d="M55.62,41.77l-.28.56Z"/><path id="rgba_0_0_0_0.94_9" data-name="rgba 0 0 0 0.94 9" class="cls-10" d="M103.43,42.05l.57.84Z"/><path id="rgba_0_0_0_0.94_10" data-name="rgba 0 0 0 0.94 10" class="cls-10" d="M76.43,42.33l2.25,2.56Z"/><path id="rgba_0_0_0_0.94_11" data-name="rgba 0 0 0 0.94 11" class="cls-10" d="M54.5,42.61l-2,2.25Z"/><path id="rgba_0_0_0_0.94_12" data-name="rgba 0 0 0 0.94 12" class="cls-10" d="M82.06,42.61l-1.69,2Z"/><path id="rgba_0_0_0_0.94_13" data-name="rgba 0 0 0 0.94 13" class="cls-10" d="M73.06,44.58l.28.56Z"/><path id="rgba_0_0_0_0.94_14" data-name="rgba 0 0 0 0.94 14" class="cls-10" d="M106,44.58l.28.56Z"/><path id="rgba_0_0_0_0.94_15" data-name="rgba 0 0 0 0.94 15" class="cls-10" d="M58.15,45.14l-.28.56Z"/><path id="rgba_0_0_0_0.94_16" data-name="rgba 0 0 0 0.94 16" class="cls-10" d="M100.62,45.14l.28.56Z"/><path id="rgba_0_0_0_0.94_17" data-name="rgba 0 0 0 0.94 17" class="cls-10" d="M74.18,45.42l.29.56Z"/><path id="rgba_0_0_0_0.94_18" data-name="rgba 0 0 0 0.94 18" class="cls-10" d="M84.59,45.42l-2,2.25Z"/><path id="rgba_0_0_0_0.94_19" data-name="rgba 0 0 0 0.94 19" class="cls-10" d="M75.87,47.11l.57.84Z"/><path id="rgba_0_0_0_0.94_20" data-name="rgba 0 0 0 0.94 20" class="cls-10" d="M82.06,48.23l-.28.57Z"/><path id="rgba_0_0_0_0.94_21" data-name="rgba 0 0 0 0.94 21" class="cls-10" d="M95.84,48.8l-.28.56Z"/><path id="rgba_0_0_0_0.94_22" data-name="rgba 0 0 0 0.94 22" class="cls-10" d="M48.59,54.14l.14.7h-.28Z"/><path id="rgba_0_0_0_0.94_23" data-name="rgba 0 0 0 0.94 23" class="cls-10" d="M106,54.14l.14,1.27h-.28Z"/><path id="rgba_0_0_0_0.94_24" data-name="rgba 0 0 0 0.94 24" class="cls-10" d="M52.81,54.42,53,56.53h-.28Z"/><path id="rgba_0_0_0_0.94_25" data-name="rgba 0 0 0 0.94 25" class="cls-10" d="M48.59,56.11l.14.7h-.28Z"/><path id="rgba_0_0_0_0.94_26" data-name="rgba 0 0 0 0.94 26" class="cls-10" d="M84.31,58.89l-.28.56Z"/><path id="rgba_0_0_0_0.94_27" data-name="rgba 0 0 0 0.94 27" class="cls-10" d="M86.84,62.89l.28.56Z"/><path id="rgba_0_0_0_0.94_28" data-name="rgba 0 0 0 0.94 28" class="cls-10" d="M55.9,64.55l.28.56Z"/><path id="rgba_0_0_0_0.94_29" data-name="rgba 0 0 0 0.94 29" class="cls-10" d="M88.25,64.83,89,65C88.55,65.59,88.32,65.54,88.25,64.83Z"/><path id="rgba_0_0_0_0.94_30" data-name="rgba 0 0 0 0.94 30" class="cls-10" d="M57,66.23l.28.57Z"/><path id="rgba_0_0_0_0.94_31" data-name="rgba 0 0 0 0.94 31" class="cls-10" d="M52.53,67.36l.28.56Z"/><path id="rgba_0_0_0_0.94_32" data-name="rgba 0 0 0 0.94 32" class="cls-10" d="M85.15,67.89l.28.56Z"/><path id="rgba_0_0_0_0.94_33" data-name="rgba 0 0 0 0.94 33" class="cls-10" d="M53.09,68.2l.28.57Z"/><path id="rgba_0_0_0_0.94_34" data-name="rgba 0 0 0 0.94 34" class="cls-10" d="M58.72,68.48l.28.57Z"/><path id="rgba_0_0_0_0.94_35" data-name="rgba 0 0 0 0.94 35" class="cls-10" d="M85.72,68.77l.28.56Z"/><path id="rgba_0_0_0_0.94_36" data-name="rgba 0 0 0 0.94 36" class="cls-10" d="M105.68,68.77l-.28.56Z"/><path id="rgba_0_0_0_0.94_37" data-name="rgba 0 0 0 0.94 37" class="cls-10" d="M59.56,69.61l.56.84Z"/><path id="rgba_0_0_0_0.94_38" data-name="rgba 0 0 0 0.94 38" class="cls-10" d="M113,69.61l.28.28,4.92.14-4.92.14Z"/><path id="rgba_0_0_0_0.94_39" data-name="rgba 0 0 0 0.94 39" class="cls-10" d="M71.37,69.89l7.17.14-7.31.14v3.94h10v.28H71V70.31Z"/><path id="rgba_0_0_0_0.94_40" data-name="rgba 0 0 0 0.94 40" class="cls-10" d="M54.5,70.17l.28.56Z"/><path id="rgba_0_0_0_0.94_41" data-name="rgba 0 0 0 0.94 41" class="cls-10" d="M55.34,71.3l.56.84Z"/><path id="rgba_0_0_0_0.94_42" data-name="rgba 0 0 0 0.94 42" class="cls-10" d="M87.4,71.3l.28.56Z"/><path id="rgba_0_0_0_0.94_43" data-name="rgba 0 0 0 0.94 43" class="cls-10" d="M97.81,71.3l-.28.56Z"/><path id="rgba_0_0_0_0.94_44" data-name="rgba 0 0 0 0.94 44" class="cls-10" d="M61.53,71.89l4.78,5Z"/><path id="rgba_0_0_0_0.94_45" data-name="rgba 0 0 0 0.94 45" class="cls-10" d="M88,72.14l.28.56Z"/><path id="rgba_0_0_0_0.94_46" data-name="rgba 0 0 0 0.94 46" class="cls-10" d="M56.75,73l.84,1.13Z"/><path id="rgba_0_0_0_0.94_47" data-name="rgba 0 0 0 0.94 47" class="cls-10" d="M88.53,73l.28.57Z"/><path id="rgba_0_0_0_0.94_48" data-name="rgba 0 0 0 0.94 48" class="cls-10" d="M96.12,73.27,93,76.64Z"/><path id="rgba_0_0_0_0.94_49" data-name="rgba 0 0 0 0.94 49" class="cls-10" d="M89.09,73.83l.28.56Z"/><path id="rgba_0_0_0_0.94_50" data-name="rgba 0 0 0 0.94 50" class="cls-10" d="M109.9,74.11l8.3.14-8.3.14Z"/><path id="rgba_0_0_0_0.94_51" data-name="rgba 0 0 0 0.94 51" class="cls-10" d="M59.28,75.8l3.09,3.37Z"/><path id="rgba_0_0_0_0.94_52" data-name="rgba 0 0 0 0.94 52" class="cls-10" d="M99.22,76.08l-3.1,3.37Z"/><path id="rgba_0_0_0_0.94_53" data-name="rgba 0 0 0 0.94 53" class="cls-10" d="M68,78.05l.84,1.12Z"/><path id="rgba_0_0_0_0.94_54" data-name="rgba 0 0 0 0.94 54" class="cls-10" d="M90.78,78.33l-.85,1.12Z"/><path id="rgba_0_0_0_0.94_55" data-name="rgba 0 0 0 0.94 55" class="cls-10" d="M70.25,80l.56.84Z"/><path id="rgba_0_0_0_0.94_56" data-name="rgba 0 0 0 0.94 56" class="cls-10" d="M88.53,80.3l-.28.56Z"/><path id="rgba_0_0_0_0.94_57" data-name="rgba 0 0 0 0.94 57" class="cls-10" d="M64.62,80.89,65.47,82Z"/><path id="rgba_0_0_0_0.94_58" data-name="rgba 0 0 0 0.94 58" class="cls-10" d="M94.15,80.89,93,82.27Z"/><path id="rgba_0_0_0_0.94_59" data-name="rgba 0 0 0 0.94 59" class="cls-10" d="M71.93,81.42l.57.85Z"/><path id="rgba_0_0_0_0.94_60" data-name="rgba 0 0 0 0.94 60" class="cls-10" d="M87.12,81.42l-.28.56Z"/><path id="rgba_0_0_0_0.94_61" data-name="rgba 0 0 0 0.94 61" class="cls-10" d="M85.72,82.55l-.29.56Z"/><path id="rgba_0_0_0_0.94_62" data-name="rgba 0 0 0 0.94 62" class="cls-10" d="M66.87,82.83l.57.84Z"/><path id="rgba_0_0_0_0.94_63" data-name="rgba 0 0 0 0.94 63" class="cls-10" d="M73.62,82.83l.28.56Z"/><path id="rgba_0_0_0_0.94_64" data-name="rgba 0 0 0 0.94 64" class="cls-10" d="M91.62,83.11l-.56.84Z"/><path id="rgba_0_0_0_0.94_65" data-name="rgba 0 0 0 0.94 65" class="cls-10" d="M84.59,83.39l-.28.56Z"/><path id="rgba_0_0_0_0.94_66" data-name="rgba 0 0 0 0.94 66" class="cls-10" d="M74.75,83.67l.28.56Z"/><path id="rgba_0_0_0_0.94_67" data-name="rgba 0 0 0 0.94 67" class="cls-10" d="M68.84,84.52l.28.56Z"/><path id="rgba_0_0_0_0.94_68" data-name="rgba 0 0 0 0.94 68" class="cls-10" d="M89.94,84.52l-.57.84Z"/><path id="rgba_0_0_0_0.94_69" data-name="rgba 0 0 0 0.94 69" class="cls-10" d="M76.15,84.8l.28.56Z"/><path id="rgba_0_0_0_0.94_70" data-name="rgba 0 0 0 0.94 70" class="cls-10" d="M82.34,85.08l-.28.56Z"/><path id="rgba_0_0_0_0.94_71" data-name="rgba 0 0 0 0.94 71" class="cls-10" d="M70.25,85.64l.28.56Z"/><path id="rgba_0_0_0_0.94_72" data-name="rgba 0 0 0 0.94 72" class="cls-10" d="M77.28,85.64l.28.56Z"/><path id="rgba_0_0_0_0.94_73" data-name="rgba 0 0 0 0.94 73" class="cls-10" d="M88.53,85.64l-.56.84Z"/><path id="rgba_0_0_0_0.94_74" data-name="rgba 0 0 0 0.94 74" class="cls-10" d="M81.22,85.89l-.29.56Z"/><path id="rgba_0_0_0_0.94_75" data-name="rgba 0 0 0 0.94 75" class="cls-10" d="M78.4,86.48l.28.57Z"/><path id="rgba_0_0_0_0.94_76" data-name="rgba 0 0 0 0.94 76" class="cls-10" d="M71.65,86.77l.28.56Z"/><path id="rgba_0_0_0_0.94_77" data-name="rgba 0 0 0 0.94 77" class="cls-10" d="M87.12,86.77l-.56.84Z"/><path id="rgba_0_0_0_0.94_78" data-name="rgba 0 0 0 0.94 78" class="cls-10" d="M73.06,87.89l.28.56Z"/><path id="rgba_0_0_0_0.94_79" data-name="rgba 0 0 0 0.94 79" class="cls-10" d="M85.72,87.89l-.29.56Z"/><path id="rgba_0_0_0_0.94_80" data-name="rgba 0 0 0 0.94 80" class="cls-10" d="M74.18,88.73l.29.57Z"/><path id="rgba_0_0_0_0.94_81" data-name="rgba 0 0 0 0.94 81" class="cls-10" d="M84.59,88.73l-.28.57Z"/><path id="rgba_0_0_0_0.94_82" data-name="rgba 0 0 0 0.94 82" class="cls-10" d="M75.31,89.58l.28.56Z"/><path id="rgba_0_0_0_0.94_83" data-name="rgba 0 0 0 0.94 83" class="cls-10" d="M83.47,89.58l-.29.56Z"/><path id="rgba_0_0_0_0.94_84" data-name="rgba 0 0 0 0.94 84" class="cls-10" d="M76.43,90.42l.29.56Z"/><path id="rgba_0_0_0_0.94_85" data-name="rgba 0 0 0 0.94 85" class="cls-10" d="M81.22,91.27l-.29.56Z"/><path id="rgba_0_0_0_0.94_86" data-name="rgba 0 0 0 0.94 86" class="cls-10" d="M78.4,91.83l.28.56Z"/><path id="rgba_0_0_0" data-name="rgba 0 0 0" class="cls-10" d="M48.45,29.39h72v72h-72V58.5h.28l.85,3.94,2.25,4.45A61.6,61.6,0,0,0,62.37,79.4,115.88,115.88,0,0,0,79.53,92.9,129.33,129.33,0,0,0,99.64,76.17L100.2,75l-2.11-4.36-7,7.31a77.69,77.69,0,0,1-11.81,9,118,118,0,0,1-18.74-16.4l-5.06-7-2-4.5L53.2,56l-.28-.28.84-4.5a11.94,11.94,0,0,1,3.8-5.2q3.13-2.93,9-3.09c.34.52,1.09.61,2.25.28l3.1,1.12,3.8,3,3.37,6q.77.31.57-.42l2.53-4.5,2.94-3A12.64,12.64,0,0,1,93,42.89l4.21.84A13.2,13.2,0,0,1,103,47.81l2,3.38,1,4.64,3.23-4.64.28-1.13a18,18,0,0,0-5.76-8A16.94,16.94,0,0,0,97,38.67l-1.41-.28H89.93a17.5,17.5,0,0,0-10,6l-.42.7c-.41.15-.56,0-.42-.43a18.13,18.13,0,0,0-7.46-5.48q-3.15-1.48-8.43-.84a18,18,0,0,0-10.83,6,14.8,14.8,0,0,0-3.8,8.3Zm47,19.13L88.7,64.83,84.76,59.2l-.84-.56-1.13,3.1-4.22,7.87v.28H71v4.78H81.36L85,67.89l4.5,6.75L96,60.33l5.91,14.06c-.19.37,0,.47.56.28l5.06-7.87,2.25,7.87h8.44l.28-.28v-4.5h-5.34l-.56-2.81-3.38-10.69c.19-.75,0-1-.56-.84L103,64.83,96,49.08c.17-.56,0-.75-.58-.56Z"/><path id="rgba_0_0_0_0.65_" data-name="rgba 0 0 0 0.65 " class="cls-10" d="M63.78,38.39l1,.14-1,.14Z"/><path id="rgba_0_0_0_0.65_2" data-name="rgba 0 0 0 0.65 2" class="cls-10" d="M67.43,38.39l.7.14-.7.14Z"/><path id="rgba_0_0_0_0.65_3" data-name="rgba 0 0 0 0.65 3" class="cls-10" d="M90.78,38.39l.7.14-.7.14Z"/><path id="rgba_0_0_0_0.65_4" data-name="rgba 0 0 0 0.65 4" class="cls-10" d="M94.15,38.39l1,.14-1,.14Z"/><path id="rgba_0_0_0_0.65_5" data-name="rgba 0 0 0 0.65 5" class="cls-10" d="M74.75,40.89l.28.56Z"/><path id="rgba_0_0_0_0.65_6" data-name="rgba 0 0 0 0.65 6" class="cls-10" d="M102,40.89l.28.56Z"/><path id="rgba_0_0_0_0.65_7" data-name="rgba 0 0 0 0.65 7" class="cls-10" d="M56.18,41.2l-.28.57Z"/><path id="rgba_0_0_0_0.65_8" data-name="rgba 0 0 0 0.65 8" class="cls-10" d="M102.87,41.48l.28.57Z"/><path id="rgba_0_0_0_0.65_9" data-name="rgba 0 0 0 0.65 9" class="cls-10" d="M75.87,41.77l.28.56Z"/><path id="rgba_0_0_0_0.65_10" data-name="rgba 0 0 0 0.65 10" class="cls-10" d="M82.9,41.77l-.56.84Z"/><path id="rgba_0_0_0_0.65_11" data-name="rgba 0 0 0 0.65 11" class="cls-10" d="M55.06,42.05l-.28.56Z"/><path id="rgba_0_0_0_0.65_12" data-name="rgba 0 0 0 0.65 12" class="cls-10" d="M104.28,42.61l1.4,1.69Z"/><path id="rgba_0_0_0_0.65_13" data-name="rgba 0 0 0 0.65 13" class="cls-10" d="M94.15,42.89l.7.14-.7.14Z"/><path id="rgba_0_0_0_0.65_14" data-name="rgba 0 0 0 0.65 14" class="cls-10" d="M80.09,44.58l-.56.84-.7-.42.42.14Z"/><path id="rgba_0_0_0_0.65_15" data-name="rgba 0 0 0 0.65 15" class="cls-10" d="M52.25,44.89l-.28.56Z"/><path id="rgba_0_0_0_0.65_16" data-name="rgba 0 0 0 0.65 16" class="cls-10" d="M58.71,44.89l-.28.56Z"/><path id="rgba_0_0_0_0.65_17" data-name="rgba 0 0 0 0.65 17" class="cls-10" d="M85.15,45.14l-.28.56Z"/><path id="rgba_0_0_0_0.65_18" data-name="rgba 0 0 0 0.65 18" class="cls-10" d="M106.53,45.14l.28.56Z"/><path id="rgba_0_0_0_0.65_19" data-name="rgba 0 0 0 0.65 19" class="cls-10" d="M57.59,45.7l-2,2.25Z"/><path id="rgba_0_0_0_0.65_20" data-name="rgba 0 0 0 0.65 20" class="cls-10" d="M101.18,45.7l2,2.25Z"/><path id="rgba_0_0_0_0.65_21" data-name="rgba 0 0 0 0.65 21" class="cls-10" d="M74.75,46l.84,1.13Z"/><path id="rgba_0_0_0_0.65_22" data-name="rgba 0 0 0 0.65 22" class="cls-10" d="M76.43,48l.29.57Z"/><path id="rgba_0_0_0_0.65_23" data-name="rgba 0 0 0 0.65 23" class="cls-10" d="M77,48.8l.28.56Z"/><path id="rgba_0_0_0_0.65_24" data-name="rgba 0 0 0 0.65 24" class="cls-10" d="M48.59,53.3l.14.7h-.28Z"/><path id="rgba_0_0_0_0.65_25" data-name="rgba 0 0 0 0.65 25" class="cls-10" d="M107.09,53.89l-.28.56Z"/><path id="rgba_0_0_0_0.65_26" data-name="rgba 0 0 0 0.65 26" class="cls-10" d="M106.53,54.7l-.28.57Z"/><path id="rgba_0_0_0_0.65_27" data-name="rgba 0 0 0 0.65 27" class="cls-10" d="M108.22,56.67l-.29.56Z"/><path id="rgba_0_0_0_0.65_28" data-name="rgba 0 0 0 0.65 28" class="cls-10" d="M48.59,57l.14.7h-.28Z"/><path id="rgba_0_0_0_0.65_29" data-name="rgba 0 0 0 0.65 29" class="cls-10" d="M106.25,59.77l-.28.56Z"/><path id="rgba_0_0_0_0.65_30" data-name="rgba 0 0 0 0.65 30" class="cls-10" d="M104.84,62l-.28.56Z"/><path id="rgba_0_0_0_0.65_31" data-name="rgba 0 0 0 0.65 31" class="cls-10" d="M103.15,64.55l-.28.56Z"/><path id="rgba_0_0_0_0.65_32" data-name="rgba 0 0 0 0.65 32" class="cls-10" d="M56.75,65.67l.28.56Z"/><path id="rgba_0_0_0_0.65_33" data-name="rgba 0 0 0 0.65 33" class="cls-10" d="M58.15,67.64l.28.56Z"/><path id="rgba_0_0_0_0.65_34" data-name="rgba 0 0 0 0.65 34" class="cls-10" d="M53.37,68.77l.28.56Z"/><path id="rgba_0_0_0_0.65_35" data-name="rgba 0 0 0 0.65 35" class="cls-10" d="M59.28,69.05l.28.56Z"/><path id="rgba_0_0_0_0.65_36" data-name="rgba 0 0 0 0.65 36" class="cls-10" d="M53.93,69.61l.29.56Z"/><path id="rgba_0_0_0_0.65_37" data-name="rgba 0 0 0 0.65 37" class="cls-10" d="M118.34,69.89l.14,4.36h-.28Z"/><path id="rgba_0_0_0_0.65_38" data-name="rgba 0 0 0 0.65 38" class="cls-10" d="M60.4,70.45l.85,1.13Z"/><path id="rgba_0_0_0_0.65_39" data-name="rgba 0 0 0 0.65 39" class="cls-10" d="M54.78,70.73l.28.57Z"/><path id="rgba_0_0_0_0.65_40" data-name="rgba 0 0 0 0.65 40" class="cls-10" d="M104.56,70.73l-.28.57Z"/><path id="rgba_0_0_0_0.65_41" data-name="rgba 0 0 0 0.65 41" class="cls-10" d="M97.25,71.89,96.12,73.3Z"/><path id="rgba_0_0_0_0.65_42" data-name="rgba 0 0 0 0.65 42" class="cls-10" d="M55.9,72.14l.57.84Z"/><path id="rgba_0_0_0_0.65_43" data-name="rgba 0 0 0 0.65 43" class="cls-10" d="M57.59,74.11,59,75.8Z"/><path id="rgba_0_0_0_0.65_44" data-name="rgba 0 0 0 0.65 44" class="cls-10" d="M99.78,75.52l-.28.56Z"/><path id="rgba_0_0_0_0.65_45" data-name="rgba 0 0 0 0.65 45" class="cls-10" d="M92.75,76.36l-1.69,2Z"/><path id="rgba_0_0_0_0.65_46" data-name="rgba 0 0 0 0.65 46" class="cls-10" d="M66.59,76.64l1.13,1.41Z"/><path id="rgba_0_0_0_0.65_47" data-name="rgba 0 0 0 0.65 47" class="cls-10" d="M62.65,79.17l1.69,2Z"/><path id="rgba_0_0_0_0.65_48" data-name="rgba 0 0 0 0.65 48" class="cls-10" d="M69.4,79.17,70,80Z"/><path id="rgba_0_0_0_0.65_49" data-name="rgba 0 0 0 0.65 49" class="cls-10" d="M89.37,79.45l-.56.85Z"/><path id="rgba_0_0_0_0.65_50" data-name="rgba 0 0 0 0.65 50" class="cls-10" d="M95.84,79.45l-1.41,1.69Z"/><path id="rgba_0_0_0_0.65_51" data-name="rgba 0 0 0 0.65 51" class="cls-10" d="M71.37,80.89l.28.56Z"/><path id="rgba_0_0_0_0.65_52" data-name="rgba 0 0 0 0.65 52" class="cls-10" d="M87.68,80.89l-.28.56Z"/><path id="rgba_0_0_0_0.65_53" data-name="rgba 0 0 0 0.65 53" class="cls-10" d="M65.75,82l.84,1.13Z"/><path id="rgba_0_0_0_0.65_54" data-name="rgba 0 0 0 0.65 54" class="cls-10" d="M72.78,82l.56.85Z"/><path id="rgba_0_0_0_0.65_55" data-name="rgba 0 0 0 0.65 55" class="cls-10" d="M86.28,82l-.28.57Z"/><path id="rgba_0_0_0_0.65_56" data-name="rgba 0 0 0 0.65 56" class="cls-10" d="M92.75,82.27l-.56.84Z"/><path id="rgba_0_0_0_0.65_57" data-name="rgba 0 0 0 0.65 57" class="cls-10" d="M85.15,82.83l-.28.56Z"/><path id="rgba_0_0_0_0.65_58" data-name="rgba 0 0 0 0.65 58" class="cls-10" d="M74.18,83.11l.29.56Z"/><path id="rgba_0_0_0_0.65_59" data-name="rgba 0 0 0 0.65 59" class="cls-10" d="M67.72,83.67l.56.85Z"/><path id="rgba_0_0_0_0.65_60" data-name="rgba 0 0 0 0.65 60" class="cls-10" d="M84,83.67l-.28.56Z"/><path id="rgba_0_0_0_0.65_61" data-name="rgba 0 0 0 0.65 61" class="cls-10" d="M90.78,84l-.28.57Z"/><path id="rgba_0_0_0_0.65_62" data-name="rgba 0 0 0 0.65 62" class="cls-10" d="M75.59,84.23l.28.57Z"/><path id="rgba_0_0_0_0.65_63" data-name="rgba 0 0 0 0.65 63" class="cls-10" d="M82.9,84.52l-.28.56Z"/><path id="rgba_0_0_0_0.65_64" data-name="rgba 0 0 0 0.65 64" class="cls-10" d="M69.4,85.08l.6.81Z"/><path id="rgba_0_0_0_0.65_65" data-name="rgba 0 0 0 0.65 65" class="cls-10" d="M76.72,85.08l.28.56Z"/><path id="rgba_0_0_0_0.65_66" data-name="rgba 0 0 0 0.65 66" class="cls-10" d="M81.78,85.36l-.28.53Z"/><path id="rgba_0_0_0_0.65_67" data-name="rgba 0 0 0 0.65 67" class="cls-10" d="M89.09,85.36l-.28.56Z"/><path id="rgba_0_0_0_0.65_68" data-name="rgba 0 0 0 0.65 68" class="cls-10" d="M77.84,85.89l.28.56Z"/><path id="rgba_0_0_0_0.65_69" data-name="rgba 0 0 0 0.65 69" class="cls-10" d="M70.81,86.2l.56.85Z"/><path id="rgba_0_0_0_0.65_70" data-name="rgba 0 0 0 0.65 70" class="cls-10" d="M80.65,86.2l-.28.57Z"/><path id="rgba_0_0_0_0.65_71" data-name="rgba 0 0 0 0.65 71" class="cls-10" d="M87.68,86.48l-.28.57Z"/><path id="rgba_0_0_0_0.65_72" data-name="rgba 0 0 0 0.65 72" class="cls-10" d="M79,86.77l.7.42-.43.14Z"/><path id="rgba_0_0_0_0.65_73" data-name="rgba 0 0 0 0.65 73" class="cls-10" d="M72.22,87.33l.28.56Z"/><path id="rgba_0_0_0_0.65_74" data-name="rgba 0 0 0 0.65 74" class="cls-10" d="M86.28,87.61l-.28.56Z"/><path id="rgba_0_0_0_0.65_75" data-name="rgba 0 0 0 0.65 75" class="cls-10" d="M73.62,88.45l.28.57Z"/><path id="rgba_0_0_0_0.65_76" data-name="rgba 0 0 0 0.65 76" class="cls-10" d="M85.15,88.45l-.28.57Z"/><path id="rgba_0_0_0_0.65_77" data-name="rgba 0 0 0 0.65 77" class="cls-10" d="M74.75,89.3l.25.59Z"/><path id="rgba_0_0_0_0.65_78" data-name="rgba 0 0 0 0.65 78" class="cls-10" d="M84,89.3l-.28.56Z"/><path id="rgba_0_0_0_0.65_79" data-name="rgba 0 0 0 0.65 79" class="cls-10" d="M82.9,90.14l-.28.56Z"/><path id="rgba_0_0_0_0.65_80" data-name="rgba 0 0 0 0.65 80" class="cls-10" d="M81.78,91l-.28.57Z"/><path id="rgba_0_0_0_0.65_81" data-name="rgba 0 0 0 0.65 81" class="cls-10" d="M77.84,91.55l.28.56Z"/><path id="rgba_0_0_0_0.23_" data-name="rgba 0 0 0 0.23 " class="cls-10" d="M68.28,38.39l.7.14-.7.14Z"/><path id="rgba_0_0_0_0.23_2" data-name="rgba 0 0 0 0.23 2" class="cls-10" d="M89.93,38.39l.7.14-.7.14Z"/><path id="rgba_0_0_0_0.23_3" data-name="rgba 0 0 0 0.23 3" class="cls-10" d="M84.31,40.64,84,41.2Z"/><path id="rgba_0_0_0_0.23_4" data-name="rgba 0 0 0 0.23 4" class="cls-10" d="M75.31,41.2l.28.57Z"/><path id="rgba_0_0_0_0.23_5" data-name="rgba 0 0 0 0.23 5" class="cls-10" d="M83.47,41.2l-.29.57Z"/><path id="rgba_0_0_0_0.23_6" data-name="rgba 0 0 0 0.23 6" class="cls-10" d="M55.62,41.48l-.28.57Z"/><path id="rgba_0_0_0_0.23_7" data-name="rgba 0 0 0 0.23 7" class="cls-10" d="M76.43,42.05,79,44.89Z"/><path id="rgba_0_0_0_0.23_8" data-name="rgba 0 0 0 0.23 8" class="cls-10" d="M103.72,42.05l.28.56Z"/><path id="rgba_0_0_0_0.23_9" data-name="rgba 0 0 0 0.23 9" class="cls-10" d="M82.06,42.33l-2,2.25Z"/><path id="rgba_0_0_0_0.23_10" data-name="rgba 0 0 0 0.23 10" class="cls-10" d="M54.22,42.61l-1.69,2Z"/><path id="rgba_0_0_0_0.23_11" data-name="rgba 0 0 0 0.23 11" class="cls-10" d="M64.34,42.89l1,.14-1,.14Z"/><path id="rgba_0_0_0_0.23_12" data-name="rgba 0 0 0 0.23 12" class="cls-10" d="M66.87,42.89l1,.14-1,.14Z"/><path id="rgba_0_0_0_0.23_13" data-name="rgba 0 0 0 0.23 13" class="cls-10" d="M91.06,42.89l1,.14-1,.14Z"/><path id="rgba_0_0_0_0.23_14" data-name="rgba 0 0 0 0.23 14" class="cls-10" d="M93.31,42.89,94,43l-.7.14Z"/><path id="rgba_0_0_0_0.23_15" data-name="rgba 0 0 0 0.23 15" class="cls-10" d="M106,44.3l.56.84Z"/><path id="rgba_0_0_0_0.23_16" data-name="rgba 0 0 0 0.23 16" class="cls-10" d="M85.72,44.89l-.29.56Z"/><path id="rgba_0_0_0_0.23_17" data-name="rgba 0 0 0 0.23 17" class="cls-10" d="M58.15,45.42l-.28.56Z"/><path id="rgba_0_0_0_0.23_18" data-name="rgba 0 0 0 0.23 18" class="cls-10" d="M73.9,45.42l.57.85Z"/><path id="rgba_0_0_0_0.23_19" data-name="rgba 0 0 0 0.23 19" class="cls-10" d="M100.62,45.42l.28.56Z"/><path id="rgba_0_0_0_0.23_20" data-name="rgba 0 0 0 0.23 20" class="cls-10" d="M84.59,45.7l-2,2.25Z"/><path id="rgba_0_0_0_0.23_21" data-name="rgba 0 0 0 0.23 21" class="cls-10" d="M75.87,47.39l.28.56Z"/><path id="rgba_0_0_0_0.23_22" data-name="rgba 0 0 0 0.23 22" class="cls-10" d="M55.62,48l-.28.57Z"/><path id="rgba_0_0_0_0.23_23" data-name="rgba 0 0 0 0.23 23" class="cls-10" d="M103.15,48l.28.57Z"/><path id="rgba_0_0_0_0.23_24" data-name="rgba 0 0 0 0.23 24" class="cls-10" d="M109.34,49.89l.14.7h-.28Z"/><path id="rgba_0_0_0_0.23_25" data-name="rgba 0 0 0 0.23 25" class="cls-10" d="M109.06,51.05l-.28.56Z"/><path id="rgba_0_0_0_0.23_26" data-name="rgba 0 0 0 0.23 26" class="cls-10" d="M108.5,51.89l-.28.56Z"/><path id="rgba_0_0_0_0.23_27" data-name="rgba 0 0 0 0.23 27" class="cls-10" d="M107.93,52.73l-.28.57Z"/><path id="rgba_0_0_0_0.23_28" data-name="rgba 0 0 0 0.23 28" class="cls-10" d="M53.09,53.89l.14,1.55H53Z"/><path id="rgba_0_0_0_0.23_29" data-name="rgba 0 0 0 0.23 29" class="cls-10" d="M105.69,53.89l.14.7h-.29Z"/><path id="rgba_0_0_0_0.23_30" data-name="rgba 0 0 0 0.23 30" class="cls-10" d="M106.25,55.27l-.28.56Z"/><path id="rgba_0_0_0_0.23_31" data-name="rgba 0 0 0 0.23 31" class="cls-10" d="M53.09,55.83l.14,1.26H53Z"/><path id="rgba_0_0_0_0.23_32" data-name="rgba 0 0 0 0.23 32" class="cls-10" d="M107.37,57.8l-.28.56Z"/><path id="rgba_0_0_0_0.23_33" data-name="rgba 0 0 0 0.23 33" class="cls-10" d="M84,58.64l.7.42-.42-.14Z"/><path id="rgba_0_0_0_0.23_34" data-name="rgba 0 0 0 0.23 34" class="cls-10" d="M84.87,59.48l.28.57Z"/><path id="rgba_0_0_0_0.23_35" data-name="rgba 0 0 0 0.23 35" class="cls-10" d="M95.84,60.05l-.28.56Z"/><path id="rgba_0_0_0_0.23_36" data-name="rgba 0 0 0 0.23 36" class="cls-10" d="M85.43,60.33l.29.56Z"/><path id="rgba_0_0_0_0.23_37" data-name="rgba 0 0 0 0.23 37" class="cls-10" d="M105.4,60.89l-.28.56Z"/><path id="rgba_0_0_0_0.23_38" data-name="rgba 0 0 0 0.23 38" class="cls-10" d="M86.56,62l.28.56Z"/><path id="rgba_0_0_0_0.23_39" data-name="rgba 0 0 0 0.23 39" class="cls-10" d="M87.12,62.89l.28.56Z"/><path id="rgba_0_0_0_0.23_40" data-name="rgba 0 0 0 0.23 40" class="cls-10" d="M104,63.14l-.28.56Z"/><path id="rgba_0_0_0_0.23_41" data-name="rgba 0 0 0 0.23 41" class="cls-10" d="M87.68,63.7l.29.57Z"/><path id="rgba_0_0_0_0.23_42" data-name="rgba 0 0 0 0.23 42" class="cls-10" d="M88.25,64.55l.28.56Z"/><path id="rgba_0_0_0_0.23_43" data-name="rgba 0 0 0 0.23 43" class="cls-10" d="M107.37,66.52l-.28.56Z"/><path id="rgba_0_0_0_0.23_44" data-name="rgba 0 0 0 0.23 44" class="cls-10" d="M57.87,67.08l.28.56Z"/><path id="rgba_0_0_0_0.23_45" data-name="rgba 0 0 0 0.23 45" class="cls-10" d="M58.72,68.2l.28.57Z"/><path id="rgba_0_0_0_0.23_46" data-name="rgba 0 0 0 0.23 46" class="cls-10" d="M59.84,69.61l.56.84Z"/><path id="rgba_0_0_0_0.23_47" data-name="rgba 0 0 0 0.23 47" class="cls-10" d="M105.4,69.61l-.28.56Z"/><path id="rgba_0_0_0_0.23_48" data-name="rgba 0 0 0 0.23 48" class="cls-10" d="M54.22,70.17l.28.56Z"/><path id="rgba_0_0_0_0.23_49" data-name="rgba 0 0 0 0.23 49" class="cls-10" d="M98.09,70.73l-.84,1.16Z"/><path id="rgba_0_0_0_0.23_50" data-name="rgba 0 0 0 0.23 50" class="cls-10" d="M55.34,71.58l.28.56Z"/><path id="rgba_0_0_0_0.23_51" data-name="rgba 0 0 0 0.23 51" class="cls-10" d="M61.53,71.58l4.78,5.06Z"/><path id="rgba_0_0_0_0.23_52" data-name="rgba 0 0 0 0.23 52" class="cls-10" d="M56.47,73l.84,1.13Z"/><path id="rgba_0_0_0_0.23_53" data-name="rgba 0 0 0 0.23 53" class="cls-10" d="M95.84,73.27,93,76.36Z"/><path id="rgba_0_0_0_0.23_54" data-name="rgba 0 0 0 0.23 54" class="cls-10" d="M81.5,74.11l-.28.56L71,74.53l10.27-.14Z"/><path id="rgba_0_0_0_0.23_55" data-name="rgba 0 0 0 0.23 55" class="cls-10" d="M89.09,74.11l.7.14C89.4,74.89,89.17,74.82,89.09,74.11Z"/><path id="rgba_0_0_0_0.23_56" data-name="rgba 0 0 0 0.23 56" class="cls-10" d="M109.9,74.39l8.3.14-8.3.14Z"/><path id="rgba_0_0_0_0.23_57" data-name="rgba 0 0 0 0.23 57" class="cls-10" d="M59,75.8l3.37,3.65Z"/><path id="rgba_0_0_0_0.23_58" data-name="rgba 0 0 0 0.23 58" class="cls-10" d="M99.5,76.08,95.84,80Z"/><path id="rgba_0_0_0_0.23_59" data-name="rgba 0 0 0 0.23 59" class="cls-10" d="M68,77.77l1.12,1.4Z"/><path id="rgba_0_0_0_0.23_60" data-name="rgba 0 0 0 0.23 60" class="cls-10" d="M90.78,78.05l-1.13,1.4Z"/><path id="rgba_0_0_0_0.23_61" data-name="rgba 0 0 0 0.23 61" class="cls-10" d="M70.25,79.73l.84,1.13Z"/><path id="rgba_0_0_0_0.23_62" data-name="rgba 0 0 0 0.23 62" class="cls-10" d="M88.53,80l-.53.87Z"/><path id="rgba_0_0_0_0.23_63" data-name="rgba 0 0 0 0.23 63" class="cls-10" d="M64.62,81.14l.85,1.13Z"/><path id="rgba_0_0_0_0.23_64" data-name="rgba 0 0 0 0.23 64" class="cls-10" d="M87.12,81.14l-.56.84Z"/><path id="rgba_0_0_0_0.23_65" data-name="rgba 0 0 0 0.23 65" class="cls-10" d="M94.15,81.14l-.84,1.13Z"/><path id="rgba_0_0_0_0.23_66" data-name="rgba 0 0 0 0.23 66" class="cls-10" d="M72.22,81.42l.28.56Z"/><path id="rgba_0_0_0_0.23_67" data-name="rgba 0 0 0 0.23 67" class="cls-10" d="M85.72,82.27l-.29.56Z"/><path id="rgba_0_0_0_0.23_68" data-name="rgba 0 0 0 0.23 68" class="cls-10" d="M73.62,82.55l.28.56Z"/><path id="rgba_0_0_0_0.23_69" data-name="rgba 0 0 0 0.23 69" class="cls-10" d="M66.87,83.11l.57.84Z"/><path id="rgba_0_0_0_0.23_70" data-name="rgba 0 0 0 0.23 70" class="cls-10" d="M84.59,83.11l-.28.56Z"/><path id="rgba_0_0_0_0.23_71" data-name="rgba 0 0 0 0.23 71" class="cls-10" d="M91.9,83.11l-.56.84Z"/><path id="rgba_0_0_0_0.23_72" data-name="rgba 0 0 0 0.23 72" class="cls-10" d="M75,83.67l.28.56Z"/><path id="rgba_0_0_0_0.23_73" data-name="rgba 0 0 0 0.23 73" class="cls-10" d="M68.56,84.52l.56.84Z"/><path id="rgba_0_0_0_0.23_74" data-name="rgba 0 0 0 0.23 74" class="cls-10" d="M76.15,84.52l.28.56Z"/><path id="rgba_0_0_0_0.23_75" data-name="rgba 0 0 0 0.23 75" class="cls-10" d="M90.22,84.52l-.57.84Z"/><path id="rgba_0_0_0_0.23_76" data-name="rgba 0 0 0 0.23 76" class="cls-10" d="M82.34,84.8l-.28.56Z"/><path id="rgba_0_0_0_0.23_77" data-name="rgba 0 0 0 0.23 77" class="cls-10" d="M77.28,85.36l.28.56Z"/><path id="rgba_0_0_0_0.23_78" data-name="rgba 0 0 0 0.23 78" class="cls-10" d="M81.22,85.64l-.29.56Z"/><path id="rgba_0_0_0_0.23_79" data-name="rgba 0 0 0 0.23 79" class="cls-10" d="M70.25,85.89l.28.56Z"/><path id="rgba_0_0_0_0.23_80" data-name="rgba 0 0 0 0.23 80" class="cls-10" d="M88.53,85.89l-.56.85Z"/><path id="rgba_0_0_0_0.23_81" data-name="rgba 0 0 0 0.23 81" class="cls-10" d="M78.4,86.2l.28.57Z"/><path id="rgba_0_0_0_0.23_82" data-name="rgba 0 0 0 0.23 82" class="cls-10" d="M80.09,86.48l-.28.57Z"/><path id="rgba_0_0_0_0.23_83" data-name="rgba 0 0 0 0.23 83" class="cls-10" d="M71.65,87.05l.28.56Z"/><path id="rgba_0_0_0_0.23_84" data-name="rgba 0 0 0 0.23 84" class="cls-10" d="M87.12,87.05l-.28.56Z"/><path id="rgba_0_0_0_0.23_85" data-name="rgba 0 0 0 0.23 85" class="cls-10" d="M72.78,87.89l.28.56Z"/><path id="rgba_0_0_0_0.23_86" data-name="rgba 0 0 0 0.23 86" class="cls-10" d="M85.72,88.17l-.29.56Z"/><path id="rgba_0_0_0_0.23_87" data-name="rgba 0 0 0 0.23 87" class="cls-10" d="M74.18,89l.29.56Z"/><path id="rgba_0_0_0_0.23_88" data-name="rgba 0 0 0 0.23 88" class="cls-10" d="M84.59,89l-.28.56Z"/><path id="rgba_0_0_0_0.23_89" data-name="rgba 0 0 0 0.23 89" class="cls-10" d="M83.47,89.89l-.29.56Z"/><path id="rgba_0_0_0_0.23_90" data-name="rgba 0 0 0 0.23 90" class="cls-10" d="M76.15,90.42l.28.56Z"/><path id="rgba_0_0_0_0.23_91" data-name="rgba 0 0 0 0.23 91" class="cls-10" d="M82.34,90.7l-.28.57Z"/><path id="rgba_0_0_0_0.23_92" data-name="rgba 0 0 0 0.23 92" class="cls-10" d="M77.28,91.27l.28.56Z"/><path id="rgba_0_0_0_0.23_93" data-name="rgba 0 0 0 0.23 93" class="cls-10" d="M81.22,91.55l-.29.56Z"/><path id="rgba_0_0_0_0.23_94" data-name="rgba 0 0 0 0.23 94" class="cls-10" d="M80.37,92.11l-.28.56Z"/><path id="rgba_0_0_0-2" data-name="rgba 0 0 0-2" class="cls-11" d="M63.5,38.67h4.78l3.37.85,3.94,2.25,3.94,3.65a19.77,19.77,0,0,1,7.59-5.9l3.38-.85h4.78q6.91,1.26,10.55,5.77a15,15,0,0,1,3.37,6.18l-3,4.36-1.27-4.64a15.1,15.1,0,0,0-4.36-5.2l-4.22-2L95,42.89H90.22a12.48,12.48,0,0,0-7.74,4.64l-2.81,5.2c-.51.21-.69.07-.56-.42a15.78,15.78,0,0,0-4.92-6.89l-3.38-2-2.25-.56H63.5a13,13,0,0,0-8.3,5.2l-2,3.66-.56,2.81v2l1.12,4.22,3.1,5.62a64.21,64.21,0,0,0,9.45,10.52A89.72,89.72,0,0,0,79.53,87.3,99.11,99.11,0,0,0,96.26,73.38l1.83-2.11,1.83,4.07a123.4,123.4,0,0,1-20.39,17.3,118.5,118.5,0,0,1-21.8-18.42A44.22,44.22,0,0,1,50.13,63l-1.4-4.5-.28-3.38.28-.28L49,51.44l2.25-5.06,3.8-4.08,4.22-2.53Z"/><path id="rgba_0_0_0_1_2" data-name="rgba 0 0 0 1 2" class="cls-11" d="M95.84,49.08l6,14.48,1,1.55q.64.23.42-.42l5.49-8.58L110,59.34l2.57,9.55.7,1.26h4.93v3.94h-8.3l-.15-1-2-6.47-.43-.43-4.92,7.88c-.5.21-.69.06-.56-.42L96,59.77c-.56-.23-.75,0-.56.7l-6,13.64-4.5-6.47q-.61-.19-.42.42l-3.23,6h-10V70.17H78.4l.7-.7,5.2-10.26,4.23,6.18Z"/></g></g></g><g id="_2" data-name=" 2"><text class="cls-12" transform="translate(48.45 149.39)">**************</text></g></g></g></g></g></svg>
